<?xml version="1.0" encoding="UTF-8" standalone="no"?>
<svg
   xmlns:dc="http://purl.org/dc/elements/1.1/"
   xmlns:cc="http://creativecommons.org/ns#"
   xmlns:rdf="http://www.w3.org/1999/02/22-rdf-syntax-ns#"
   xmlns:svg="http://www.w3.org/2000/svg"
   xmlns="http://www.w3.org/2000/svg"
   xmlns:sodipodi="http://sodipodi.sourceforge.net/DTD/sodipodi-0.dtd"
   xmlns:inkscape="http://www.inkscape.org/namespaces/inkscape"
   id="svg8"
   version="1.1"
   viewBox="0 0 33.866666 33.866668"
   height="128"
   width="128"
   sodipodi:docname="classification.svg"
   inkscape:version="0.92.3 (2405546, 2018-03-11)">
  <sodipodi:namedview
     pagecolor="#ffffff"
     bordercolor="#666666"
     borderopacity="1"
     objecttolerance="10"
     gridtolerance="10"
     guidetolerance="10"
     inkscape:pageopacity="0"
     inkscape:pageshadow="2"
     inkscape:window-width="1920"
     inkscape:window-height="1018"
     id="namedview8"
     showgrid="false"
     inkscape:pagecheckerboard="true"
     inkscape:zoom="5.2149125"
     inkscape:cx="70.009783"
     inkscape:cy="63.656389"
     inkscape:window-x="0"
     inkscape:window-y="25"
     inkscape:window-maximized="1"
     inkscape:current-layer="svg8" />
  <defs
     id="defs2" />
  <metadata
     id="metadata5">
    <rdf:RDF>
      <cc:Work
         rdf:about="">
        <dc:format>image/svg+xml</dc:format>
        <dc:type
           rdf:resource="http://purl.org/dc/dcmitype/StillImage" />
        <dc:title></dc:title>
      </cc:Work>
    </rdf:RDF>
  </metadata>
  <path
     id="path945"
     d="m 16.933333,2.6236139 c 0,0 -3.888442,2.9446529 -6.077665,3.6602416 -2.2669359,0.7409904 -6.6223342,0.5953124 -6.6223342,0.5953124 0,0 1.3357812,10.9308061 3.7207031,15.0616121 2.3849221,4.130804 8.9792961,9.302275 8.9792961,9.302275 0,0 6.594376,-5.171471 8.979297,-9.302275 2.384922,-4.130806 3.720703,-15.0616121 3.720703,-15.0616121 0,0 -4.355398,0.145678 -6.622335,-0.5953124 C 20.821775,5.5682668 16.933333,2.6236139 16.933333,2.6236139 Z"
     style="display:inline;fill:none;fill-opacity:1;stroke:#000000;stroke-width:2.64583325;stroke-linejoin:miter;stroke-miterlimit:4;stroke-dasharray:none;stroke-opacity:1"
     inkscape:connector-curvature="0" />
  <path
     style="display:inline;opacity:1;fill:#000000;fill-opacity:1;stroke:none;stroke-width:1.37739861;stroke-linecap:round;stroke-linejoin:miter;stroke-miterlimit:4;stroke-dasharray:none;stroke-opacity:1;paint-order:fill markers stroke"
     d="m 16.933818,8.2133703 c -2.162488,-0.028314 -4.222401,1.384093 -5.05025,3.3690927 -0.30961,0.697251 -0.455352,1.454301 -0.45506,2.211817 h -0.698343 v 8.684434 H 23.136502 V 13.79428 H 22.441553 C 22.450967,11.642831 21.119056,9.5464211 19.139335,8.6839382 18.448121,8.3737567 17.691392,8.212473 16.933818,8.2133703 Z m 0,1.7548164 c 1.724467,-0.033697 3.316845,1.2958333 3.658416,2.9746123 0.06806,0.280236 0.09833,0.566157 0.09838,0.851481 h -7.504379 c 0.0084,-1.028428 0.396474,-2.054851 1.156793,-2.770102 0.683356,-0.67179 1.63175,-1.0613106 2.590792,-1.0559913 z m -4.84e-4,5.3962693 a 1.7495035,1.7495035 0 0 1 0.124062,0.0044 1.7495035,1.7495035 0 0 1 0.173981,0.02133 1.7495035,1.7495035 0 0 1 0.170587,0.03828 1.7495035,1.7495035 0 0 1 0.16574,0.05524 1.7495035,1.7495035 0 0 1 0.159442,0.07124 1.7495035,1.7495035 0 0 1 0.151686,0.08723 1.7495035,1.7495035 0 0 1 0.14248,0.101767 1.7495035,1.7495035 0 0 1 0.131331,0.11534 1.7495035,1.7495035 0 0 1 0.119219,0.127941 1.7495035,1.7495035 0 0 1 0.105644,0.139088 1.7495035,1.7495035 0 0 1 0.0916,0.149263 1.7495035,1.7495035 0 0 1 0.0756,0.157502 1.7495035,1.7495035 0 0 1 0.0601,0.164286 1.7495035,1.7495035 0 0 1 0.04314,0.169618 1.7495035,1.7495035 0 0 1 0.02618,0.173011 1.7495035,1.7495035 0 0 1 0.0087,0.174463 1.7495035,1.7495035 0 0 1 -0.0044,0.0916 1.7495035,1.7495035 0 0 1 -0.0039,0.07512 1.7495035,1.7495035 0 0 1 -0.0252,0.173011 1.7495035,1.7495035 0 0 1 -0.04264,0.169618 1.7495035,1.7495035 0 0 1 -0.05961,0.164772 1.7495035,1.7495035 0 0 1 -0.07512,0.157502 1.7495035,1.7495035 0 0 1 -0.09111,0.149748 1.7495035,1.7495035 0 0 1 -0.105168,0.139572 1.7495035,1.7495035 0 0 1 -0.118731,0.128425 1.7495035,1.7495035 0 0 1 -0.13085,0.115824 v 0.779757 1.488277 H 15.840499 V 19.280264 18.4787 a 1.7495035,1.7495035 0 0 1 -0.124549,-0.11001 1.7495035,1.7495035 0 0 1 -0.119217,-0.127454 1.7495035,1.7495035 0 0 1 -0.106132,-0.139087 1.7495035,1.7495035 0 0 1 -0.0916,-0.149264 1.7495035,1.7495035 0 0 1 -0.07608,-0.157501 1.7495035,1.7495035 0 0 1 -0.06059,-0.163803 1.7495035,1.7495035 0 0 1 -0.04314,-0.169618 1.7495035,1.7495035 0 0 1 -0.02665,-0.17301 1.7495035,1.7495035 0 0 1 -0.0049,-0.09401 1.7495035,1.7495035 0 0 1 -0.0039,-0.08044 1.7495035,1.7495035 0 0 1 0.0043,-0.124063 1.7495035,1.7495035 0 0 1 0.02133,-0.17398 1.7495035,1.7495035 0 0 1 0.03828,-0.170588 1.7495035,1.7495035 0 0 1 0.05475,-0.16574 1.7495035,1.7495035 0 0 1 0.07173,-0.159441 1.7495035,1.7495035 0 0 1 0.08675,-0.151686 1.7495035,1.7495035 0 0 1 0.101767,-0.14248 1.7495035,1.7495035 0 0 1 0.115341,-0.131331 1.7495035,1.7495035 0 0 1 0.12794,-0.119219 1.7495035,1.7495035 0 0 1 0.139571,-0.105644 1.7495035,1.7495035 0 0 1 0.14878,-0.0916 1.7495035,1.7495035 0 0 1 0.157502,-0.07608 1.7495035,1.7495035 0 0 1 0.164286,-0.0601 1.7495035,1.7495035 0 0 1 0.169619,-0.04314 1.7495035,1.7495035 0 0 1 0.173011,-0.02618 1.7495035,1.7495035 0 0 1 0.174463,-0.0087 z"
     id="rect815"
     inkscape:connector-curvature="0" />
</svg>
