<?xml version="1.0" encoding="UTF-8" standalone="no"?>
<svg
   xmlns:dc="http://purl.org/dc/elements/1.1/"
   xmlns:cc="http://creativecommons.org/ns#"
   xmlns:rdf="http://www.w3.org/1999/02/22-rdf-syntax-ns#"
   xmlns:svg="http://www.w3.org/2000/svg"
   xmlns="http://www.w3.org/2000/svg"
   xmlns:sodipodi="http://sodipodi.sourceforge.net/DTD/sodipodi-0.dtd"
   xmlns:inkscape="http://www.inkscape.org/namespaces/inkscape"
   id="svg8"
   version="1.1"
   viewBox="0 0 33.866666 33.866668"
   height="128"
   width="128"
   sodipodi:docname="classification3.svg"
   inkscape:version="0.92.3 (2405546, 2018-03-11)">
  <sodipodi:namedview
     pagecolor="#ffffff"
     bordercolor="#666666"
     borderopacity="1"
     objecttolerance="10"
     gridtolerance="10"
     guidetolerance="10"
     inkscape:pageopacity="0"
     inkscape:pageshadow="2"
     inkscape:window-width="1920"
     inkscape:window-height="1018"
     id="namedview8"
     showgrid="false"
     inkscape:pagecheckerboard="true"
     inkscape:zoom="5.2149125"
     inkscape:cx="48.066004"
     inkscape:cy="52.037777"
     inkscape:window-x="0"
     inkscape:window-y="25"
     inkscape:window-maximized="1"
     inkscape:current-layer="svg8" />
  <defs
     id="defs2" />
  <metadata
     id="metadata5">
    <rdf:RDF>
      <cc:Work
         rdf:about="">
        <dc:format>image/svg+xml</dc:format>
        <dc:type
           rdf:resource="http://purl.org/dc/dcmitype/StillImage" />
        <dc:title></dc:title>
      </cc:Work>
    </rdf:RDF>
  </metadata>
  <path
     style="display:inline;fill:#000000;fill-opacity:1;stroke:none;stroke-width:11.13457775;stroke-linejoin:miter;stroke-miterlimit:4;stroke-dasharray:none;stroke-opacity:1"
     d="M 64 3.7792969 C 64 3.7792969 47.636831 16.17215 38.423828 19.183594 C 28.883779 22.301937 10.554687 21.689453 10.554688 21.689453 C 10.554688 21.689453 16.176318 67.688412 26.212891 85.072266 C 36.249464 102.45611 64 124.2207 64 124.2207 C 64 124.2207 91.75054 102.45611 101.78711 85.072266 C 111.82368 67.688412 117.44531 21.689453 117.44531 21.689453 C 117.44531 21.689453 99.116225 22.301937 89.576172 19.183594 C 80.363169 16.17215 64 3.7792969 64 3.7792969 z M 64.001953 31.042969 C 66.865225 31.039577 69.725428 31.647973 72.337891 32.820312 C 79.820301 36.08009 84.85394 44.005258 84.818359 52.136719 L 87.445312 52.136719 L 87.445312 84.958984 L 40.554688 84.958984 L 40.554688 52.136719 L 43.195312 52.136719 C 43.194209 49.273666 43.743883 46.41067 44.914062 43.775391 C 48.042941 36.27303 55.82877 30.935955 64.001953 31.042969 z M 64.001953 37.675781 C 60.377227 37.655677 56.791747 39.126967 54.208984 41.666016 C 51.335338 44.369326 49.869639 48.249747 49.837891 52.136719 L 78.201172 52.136719 C 78.200983 51.058329 78.08536 49.977128 77.828125 48.917969 C 76.537148 42.572977 70.519624 37.548423 64.001953 37.675781 z M 64 58.070312 A 6.6122966 6.6122966 0 0 0 63.339844 58.103516 A 6.6122966 6.6122966 0 0 0 62.685547 58.203125 A 6.6122966 6.6122966 0 0 0 62.044922 58.365234 A 6.6122966 6.6122966 0 0 0 61.423828 58.591797 A 6.6122966 6.6122966 0 0 0 60.828125 58.880859 A 6.6122966 6.6122966 0 0 0 60.265625 59.226562 A 6.6122966 6.6122966 0 0 0 59.738281 59.625 A 6.6122966 6.6122966 0 0 0 59.255859 60.076172 A 6.6122966 6.6122966 0 0 0 58.820312 60.572266 A 6.6122966 6.6122966 0 0 0 58.435547 61.111328 A 6.6122966 6.6122966 0 0 0 58.107422 61.683594 A 6.6122966 6.6122966 0 0 0 57.835938 62.287109 A 6.6122966 6.6122966 0 0 0 57.628906 62.914062 A 6.6122966 6.6122966 0 0 0 57.484375 63.558594 A 6.6122966 6.6122966 0 0 0 57.404297 64.216797 A 6.6122966 6.6122966 0 0 0 57.386719 64.685547 A 6.6122966 6.6122966 0 0 0 57.402344 64.988281 A 6.6122966 6.6122966 0 0 0 57.419922 65.34375 A 6.6122966 6.6122966 0 0 0 57.521484 65.998047 A 6.6122966 6.6122966 0 0 0 57.683594 66.638672 A 6.6122966 6.6122966 0 0 0 57.914062 67.257812 A 6.6122966 6.6122966 0 0 0 58.201172 67.853516 A 6.6122966 6.6122966 0 0 0 58.546875 68.417969 A 6.6122966 6.6122966 0 0 0 58.949219 68.943359 A 6.6122966 6.6122966 0 0 0 59.398438 69.425781 A 6.6122966 6.6122966 0 0 0 59.869141 69.839844 L 59.869141 72.871094 L 59.869141 78.416016 L 68.130859 78.416016 L 68.130859 72.791016 L 68.130859 69.84375 A 6.6122966 6.6122966 0 0 0 68.625 69.40625 A 6.6122966 6.6122966 0 0 0 69.074219 68.921875 A 6.6122966 6.6122966 0 0 0 69.470703 68.394531 A 6.6122966 6.6122966 0 0 0 69.814453 67.828125 A 6.6122966 6.6122966 0 0 0 70.099609 67.232422 A 6.6122966 6.6122966 0 0 0 70.324219 66.609375 A 6.6122966 6.6122966 0 0 0 70.486328 65.96875 A 6.6122966 6.6122966 0 0 0 70.580078 65.314453 A 6.6122966 6.6122966 0 0 0 70.595703 65.03125 A 6.6122966 6.6122966 0 0 0 70.611328 64.683594 A 6.6122966 6.6122966 0 0 0 70.580078 64.025391 A 6.6122966 6.6122966 0 0 0 70.480469 63.371094 A 6.6122966 6.6122966 0 0 0 70.316406 62.730469 A 6.6122966 6.6122966 0 0 0 70.089844 62.109375 A 6.6122966 6.6122966 0 0 0 69.804688 61.513672 A 6.6122966 6.6122966 0 0 0 69.458984 60.949219 A 6.6122966 6.6122966 0 0 0 69.058594 60.423828 A 6.6122966 6.6122966 0 0 0 68.609375 59.941406 A 6.6122966 6.6122966 0 0 0 68.111328 59.503906 A 6.6122966 6.6122966 0 0 0 67.574219 59.119141 A 6.6122966 6.6122966 0 0 0 67 58.791016 A 6.6122966 6.6122966 0 0 0 66.398438 58.521484 A 6.6122966 6.6122966 0 0 0 65.771484 58.3125 A 6.6122966 6.6122966 0 0 0 65.126953 58.167969 A 6.6122966 6.6122966 0 0 0 64.46875 58.087891 A 6.6122966 6.6122966 0 0 0 64 58.070312 z "
     transform="scale(0.26458334)"
     id="path945" />
</svg>
