<?xml version="1.0" encoding="UTF-8" standalone="no"?>
<svg
   xmlns:dc="http://purl.org/dc/elements/1.1/"
   xmlns:cc="http://creativecommons.org/ns#"
   xmlns:rdf="http://www.w3.org/1999/02/22-rdf-syntax-ns#"
   xmlns:svg="http://www.w3.org/2000/svg"
   xmlns="http://www.w3.org/2000/svg"
   id="svg1185"
   version="1.1"
   viewBox="0 0 33.866666 33.866668"
   height="128"
   width="128">
  <defs
     id="defs1179" />
  <metadata
     id="metadata1182">
    <rdf:RDF>
      <cc:Work
         rdf:about="">
        <dc:format>image/svg+xml</dc:format>
        <dc:type
           rdf:resource="http://purl.org/dc/dcmitype/StillImage" />
        <dc:title></dc:title>
      </cc:Work>
    </rdf:RDF>
  </metadata>
  <g
     transform="translate(0,-263.13332)"
     id="layer1">
    <path
       transform="matrix(0.26458333,0,0,0.26458333,0,263.13332)"
       id="path1187"
       d="M 64,6.5175781 A 57.482227,57.482227 0 0 0 6.5175781,64 57.482227,57.482227 0 0 0 64,121.48242 57.482227,57.482227 0 0 0 121.48242,64 57.482227,57.482227 0 0 0 64,6.5175781 Z m 0,17.9394529 a 11.875001,11.875001 0 0 1 1.185547,0.05859 11.875001,11.875001 0 0 1 1.173828,0.177734 11.875001,11.875001 0 0 1 1.150391,0.292969 11.875001,11.875001 0 0 1 1.115234,0.408203 11.875001,11.875001 0 0 1 1.068359,0.515625 11.875001,11.875001 0 0 1 1.011719,0.621094 11.875001,11.875001 0 0 1 0.945313,0.71875 11.875001,11.875001 0 0 1 0.86914,0.808594 11.875001,11.875001 0 0 1 0.783203,0.890625 11.875001,11.875001 0 0 1 0.689454,0.966797 11.875001,11.875001 0 0 1 0.591796,1.029296 11.875001,11.875001 0 0 1 0.484375,1.083985 11.875001,11.875001 0 0 1 0.373047,1.125 11.875001,11.875001 0 0 1 0.261719,1.158203 11.875001,11.875001 0 0 1 0.142578,1.179688 11.875001,11.875001 0 0 1 0.0293,0.839843 11.875001,11.875001 0 0 1 -0.05859,1.185547 11.875001,11.875001 0 0 1 -0.177734,1.173828 11.875001,11.875001 0 0 1 -0.294922,1.150391 11.875001,11.875001 0 0 1 -0.40625,1.113281 11.875001,11.875001 0 0 1 -0.515625,1.070313 11.875001,11.875001 0 0 1 -0.621094,1.011718 11.875001,11.875001 0 0 1 -0.71875,0.945313 11.875001,11.875001 0 0 1 -0.808593,0.867187 11.875001,11.875001 0 0 1 -0.892579,0.783203 11.875001,11.875001 0 0 1 -0.964843,0.691407 11.875001,11.875001 0 0 1 -1.029297,0.589843 11.875001,11.875001 0 0 1 -1.083985,0.486329 11.875001,11.875001 0 0 1 -1.126953,0.373047 11.875001,11.875001 0 0 1 -1.158203,0.259765 A 11.875001,11.875001 0 0 1 64.839851,48.17773 11.875001,11.875001 0 0 1 64,48.207031 11.875001,11.875001 0 0 1 62.814453,48.146484 11.875001,11.875001 0 0 1 61.640625,47.970703 11.875001,11.875001 0 0 1 60.490234,47.675781 11.875001,11.875001 0 0 1 59.375,47.269531 a 11.875001,11.875001 0 0 1 -1.068359,-0.517578 11.875001,11.875001 0 0 1 -1.011719,-0.619141 11.875001,11.875001 0 0 1 -0.945313,-0.71875 11.875001,11.875001 0 0 1 -0.86914,-0.808593 11.875001,11.875001 0 0 1 -0.783203,-0.892578 11.875001,11.875001 0 0 1 -0.689454,-0.964844 11.875001,11.875001 0 0 1 -0.591796,-1.029297 11.875001,11.875001 0 0 1 -0.484375,-1.083984 11.875001,11.875001 0 0 1 -0.373047,-1.126954 11.875001,11.875001 0 0 1 -0.261719,-1.158203 11.875001,11.875001 0 0 1 -0.142578,-1.177734 11.875001,11.875001 0 0 1 -0.0293,-0.839844 11.875001,11.875001 0 0 1 0.05859,-1.185547 11.875001,11.875001 0 0 1 0.177734,-1.173828 11.875001,11.875001 0 0 1 0.294922,-1.15039 11.875001,11.875001 0 0 1 0.40625,-1.115235 11.875001,11.875001 0 0 1 0.515625,-1.068359 11.875001,11.875001 0 0 1 0.621094,-1.011719 11.875001,11.875001 0 0 1 0.71875,-0.945312 11.875001,11.875001 0 0 1 0.808593,-0.869141 11.875001,11.875001 0 0 1 0.892579,-0.783203 11.875001,11.875001 0 0 1 0.964843,-0.689453 11.875001,11.875001 0 0 1 1.029297,-0.591797 11.875001,11.875001 0 0 1 1.083985,-0.484375 11.875001,11.875001 0 0 1 1.126953,-0.375 11.875001,11.875001 0 0 1 1.158203,-0.259766 11.875001,11.875001 0 0 1 1.177734,-0.142578 A 11.875001,11.875001 0 0 1 64,24.457031 Z M 52.130859,56.384766 H 75.869141 V 103.60938 H 52.130859 Z"
       style="opacity:1;fill:#000000;fill-opacity:1;stroke:none;stroke-width:5.71904469;stroke-linecap:round;stroke-linejoin:round;stroke-miterlimit:10;stroke-dasharray:none;stroke-opacity:0.97925313;paint-order:fill markers stroke" />
  </g>
</svg>
