<?xml version="1.0" encoding="UTF-8" standalone="no"?>
<svg
   xmlns:dc="http://purl.org/dc/elements/1.1/"
   xmlns:cc="http://creativecommons.org/ns#"
   xmlns:rdf="http://www.w3.org/1999/02/22-rdf-syntax-ns#"
   xmlns:svg="http://www.w3.org/2000/svg"
   xmlns="http://www.w3.org/2000/svg"
   xmlns:sodipodi="http://sodipodi.sourceforge.net/DTD/sodipodi-0.dtd"
   xmlns:inkscape="http://www.inkscape.org/namespaces/inkscape"
   id="svg8"
   version="1.1"
   viewBox="0 0 33.866666 33.866668"
   height="128"
   width="128"
   sodipodi:docname="lock.svg"
   inkscape:version="0.92.3 (2405546, 2018-03-11)">
  <sodipodi:namedview
     pagecolor="#ffffff"
     bordercolor="#666666"
     borderopacity="1"
     objecttolerance="10"
     gridtolerance="10"
     guidetolerance="10"
     inkscape:pageopacity="0"
     inkscape:pageshadow="2"
     inkscape:window-width="1920"
     inkscape:window-height="1018"
     id="namedview8"
     showgrid="false"
     inkscape:pagecheckerboard="true"
     inkscape:zoom="1.3037281"
     inkscape:cx="-141.27527"
     inkscape:cy="15.280397"
     inkscape:window-x="0"
     inkscape:window-y="25"
     inkscape:window-maximized="1"
     inkscape:current-layer="svg8" />
  <defs
     id="defs2" />
  <metadata
     id="metadata5">
    <rdf:RDF>
      <cc:Work
         rdf:about="">
        <dc:format>image/svg+xml</dc:format>
        <dc:type
           rdf:resource="http://purl.org/dc/dcmitype/StillImage" />
        <dc:title></dc:title>
      </cc:Work>
    </rdf:RDF>
  </metadata>
  <path
     style="display:inline;opacity:1;fill:#000000;fill-opacity:1;stroke:none;stroke-width:2.92300224;stroke-linecap:round;stroke-linejoin:miter;stroke-miterlimit:4;stroke-dasharray:none;stroke-opacity:1;paint-order:fill markers stroke"
     d="M 3.7694807,13.5844 V 32.013794 H 30.097186 V 13.5844 Z m 13.1638523,3.332101 a 3.7126528,3.7126528 0 0 1 0.263277,0.0093 3.7126528,3.7126528 0 0 1 0.369205,0.04525 3.7126528,3.7126528 0 0 1 0.362006,0.08125 3.7126528,3.7126528 0 0 1 0.351722,0.117241 3.7126528,3.7126528 0 0 1 0.338352,0.151178 3.7126528,3.7126528 0 0 1 0.321897,0.185117 3.7126528,3.7126528 0 0 1 0.302357,0.215969 3.7126528,3.7126528 0 0 1 0.278704,0.244766 3.7126528,3.7126528 0 0 1 0.252993,0.271505 3.7126528,3.7126528 0 0 1 0.224197,0.295157 3.7126528,3.7126528 0 0 1 0.194372,0.316756 3.7126528,3.7126528 0 0 1 0.160434,0.334238 3.7126528,3.7126528 0 0 1 0.127525,0.348637 3.7126528,3.7126528 0 0 1 0.09153,0.359948 3.7126528,3.7126528 0 0 1 0.05554,0.367149 3.7126528,3.7126528 0 0 1 0.01852,0.370233 3.7126528,3.7126528 0 0 1 -0.01748,0.353779 3.7126528,3.7126528 0 0 1 -0.05348,0.367147 3.7126528,3.7126528 0 0 1 -0.09051,0.35995 3.7126528,3.7126528 0 0 1 -0.126496,0.349665 3.7126528,3.7126528 0 0 1 -0.159406,0.334238 3.7126528,3.7126528 0 0 1 -0.193345,0.317783 3.7126528,3.7126528 0 0 1 -0.223169,0.296187 3.7126528,3.7126528 0 0 1 -0.251963,0.272533 3.7126528,3.7126528 0 0 1 -0.277675,0.245794 v 4.812986 h -4.63821 v -4.81509 a 3.7126528,3.7126528 0 0 1 -0.264305,-0.233453 3.7126528,3.7126528 0 0 1 -0.252993,-0.270475 3.7126528,3.7126528 0 0 1 -0.225225,-0.295159 3.7126528,3.7126528 0 0 1 -0.194373,-0.316755 3.7126528,3.7126528 0 0 1 -0.161462,-0.334238 3.7126528,3.7126528 0 0 1 -0.128554,-0.347608 3.7126528,3.7126528 0 0 1 -0.09153,-0.35995 3.7126528,3.7126528 0 0 1 -0.05656,-0.367147 3.7126528,3.7126528 0 0 1 -0.01852,-0.370234 3.7126528,3.7126528 0 0 1 0.0093,-0.263276 3.7126528,3.7126528 0 0 1 0.04525,-0.369206 3.7126528,3.7126528 0 0 1 0.08125,-0.362006 3.7126528,3.7126528 0 0 1 0.116212,-0.351721 3.7126528,3.7126528 0 0 1 0.152208,-0.338353 3.7126528,3.7126528 0 0 1 0.184088,-0.321897 3.7126528,3.7126528 0 0 1 0.215969,-0.302357 3.7126528,3.7126528 0 0 1 0.244765,-0.278704 3.7126528,3.7126528 0 0 1 0.271505,-0.252992 3.7126528,3.7126528 0 0 1 0.296187,-0.224197 3.7126528,3.7126528 0 0 1 0.315727,-0.194373 3.7126528,3.7126528 0 0 1 0.334238,-0.161462 3.7126528,3.7126528 0 0 1 0.348636,-0.127526 3.7126528,3.7126528 0 0 1 0.35995,-0.09153 3.7126528,3.7126528 0 0 1 0.367148,-0.05554 3.7126528,3.7126528 0 0 1 0.370233,-0.01852 z"
     id="rect815"
     inkscape:connector-curvature="0" />
  <path
     style="color:#000000;font-style:normal;font-variant:normal;font-weight:normal;font-stretch:normal;font-size:medium;line-height:normal;font-family:sans-serif;font-variant-ligatures:normal;font-variant-position:normal;font-variant-caps:normal;font-variant-numeric:normal;font-variant-alternates:normal;font-feature-settings:normal;text-indent:0;text-align:start;text-decoration:none;text-decoration-line:none;text-decoration-style:solid;text-decoration-color:#000000;letter-spacing:normal;word-spacing:normal;text-transform:none;writing-mode:lr-tb;direction:ltr;text-orientation:mixed;dominant-baseline:auto;baseline-shift:baseline;text-anchor:start;white-space:normal;shape-padding:0;clip-rule:nonzero;display:inline;overflow:visible;visibility:visible;opacity:1;isolation:auto;mix-blend-mode:normal;color-interpolation:sRGB;color-interpolation-filters:linearRGB;solid-color:#000000;solid-opacity:1;vector-effect:none;fill:#000000;fill-opacity:1;fill-rule:nonzero;stroke:none;stroke-width:3.72501111;stroke-linecap:round;stroke-linejoin:miter;stroke-miterlimit:4;stroke-dasharray:none;stroke-dashoffset:0;stroke-opacity:1;paint-order:fill markers stroke;color-rendering:auto;image-rendering:auto;shape-rendering:auto;text-rendering:auto;enable-background:accumulate"
     d="M 16.930241,1.7410472 C 12.341187,1.6809595 7.9698062,4.6782592 6.2130149,8.8906642 4.302476,13.193259 5.264167,18.566617 8.5639962,21.928021 c 1.6023148,1.720526 3.7587098,2.819481 6.0461158,3.298161 V 23.525166 A 3.7126528,3.7126528 0 0 1 14.345807,23.291713 3.7126528,3.7126528 0 0 1 14.092814,23.021238 3.7126528,3.7126528 0 0 1 13.867589,22.726079 3.7126528,3.7126528 0 0 1 13.673216,22.409324 3.7126528,3.7126528 0 0 1 13.511754,22.075085 3.7126528,3.7126528 0 0 1 13.3832,21.727478 3.7126528,3.7126528 0 0 1 13.29167,21.367528 3.7126528,3.7126528 0 0 1 13.23511,21.000381 3.7126528,3.7126528 0 0 1 13.22478,20.800866 c -0.931002,-0.49191 -1.791628,-1.108856 -2.444526,-1.952982 -2.6460771,-3.17041 -2.3615035,-8.307062 0.652022,-11.1419662 1.450163,-1.4256167 3.462763,-2.2522261 5.497965,-2.2409399 3.659524,-0.071505 7.038736,2.7499129 7.763589,6.3124781 0.845714,3.482555 -0.877935,7.374852 -4.061255,9.047064 a 3.7126528,3.7126528 0 0 1 -0.0082,0.159406 3.7126528,3.7126528 0 0 1 -0.05348,0.367147 3.7126528,3.7126528 0 0 1 -0.0905,0.35995 3.7126528,3.7126528 0 0 1 -0.126496,0.349665 3.7126528,3.7126528 0 0 1 -0.159407,0.334238 3.7126528,3.7126528 0 0 1 -0.193344,0.317783 3.7126528,3.7126528 0 0 1 -0.223169,0.296187 3.7126528,3.7126528 0 0 1 -0.251963,0.272533 3.7126528,3.7126528 0 0 1 -0.277676,0.245794 v 1.654737 c 0.430958,-0.09044 0.87598,-0.09098 1.294788,-0.235509 4.602911,-1.478513 7.952088,-6.031804 8.070069,-10.854008 C 28.855907,9.3519543 25.967725,4.6378509 21.610645,2.7396486 20.143807,2.0814087 18.537939,1.7391427 16.930278,1.7410472 Z"
     id="path817"
     inkscape:connector-curvature="0" />
  <g
     inkscape:groupmode="layer"
     id="layer1"
     inkscape:label="Layer 1" />
</svg>
