<?xml version="1.0" encoding="UTF-8" standalone="no"?>
<!-- Created with Inkscape (http://www.inkscape.org/) -->

<svg
   xmlns:dc="http://purl.org/dc/elements/1.1/"
   xmlns:cc="http://creativecommons.org/ns#"
   xmlns:rdf="http://www.w3.org/1999/02/22-rdf-syntax-ns#"
   xmlns:svg="http://www.w3.org/2000/svg"
   xmlns="http://www.w3.org/2000/svg"
   xmlns:sodipodi="http://sodipodi.sourceforge.net/DTD/sodipodi-0.dtd"
   xmlns:inkscape="http://www.inkscape.org/namespaces/inkscape"
   width="128"
   height="128"
   viewBox="0 0 33.866666 33.866668"
   version="1.1"
   id="svg8"
   sodipodi:docname="patch2.svg"
   inkscape:version="0.92.3 (2405546, 2018-03-11)">
  <defs
     id="defs2" />
  <sodipodi:namedview
     id="base"
     pagecolor="#ffffff"
     bordercolor="#666666"
     borderopacity="1.0"
     inkscape:pageopacity="0.0"
     inkscape:pageshadow="2"
     inkscape:zoom="5.6568543"
     inkscape:cx="7.9332502"
     inkscape:cy="66.362892"
     inkscape:document-units="mm"
     inkscape:current-layer="layer1"
     showgrid="false"
     units="px"
     inkscape:pagecheckerboard="true"
     inkscape:snap-smooth-nodes="true"
     inkscape:object-paths="true"
     inkscape:snap-intersection-paths="true"
     inkscape:snap-midpoints="true"
     showguides="true"
     inkscape:guide-bbox="true"
     inkscape:window-width="1920"
     inkscape:window-height="1018"
     inkscape:window-x="0"
     inkscape:window-y="25"
     inkscape:window-maximized="1" />
  <metadata
     id="metadata5">
    <rdf:RDF>
      <cc:Work
         rdf:about="">
        <dc:format>image/svg+xml</dc:format>
        <dc:type
           rdf:resource="http://purl.org/dc/dcmitype/StillImage" />
        <dc:title></dc:title>
      </cc:Work>
    </rdf:RDF>
  </metadata>
  <g
     inkscape:label="Layer 1"
     inkscape:groupmode="layer"
     id="layer1"
     transform="translate(0,-263.13332)">
    <path
       id="path45"
       transform="matrix(0.26458333,0,0,0.26458333,0,263.13332)"
       style="display:inline;opacity:1;fill:none;fill-opacity:1;stroke:#000000;stroke-width:7;stroke-linecap:round;stroke-linejoin:miter;stroke-miterlimit:10;stroke-dasharray:none;stroke-opacity:1;paint-order:fill markers stroke"
       d="m 35.423828,15.716797 a 19.999999,19.999999 0 0 0 -13.849609,5.857422 19.999999,19.999999 0 0 0 0,28.283203 L 35.714844,64 21.574219,78.142578 a 19.999999,19.999999 0 0 0 0,28.283202 19.999999,19.999999 0 0 0 28.283203,0 L 64,92.285156 49.857422,78.142578 35.716797,64 49.857422,49.857422 64,35.714844 49.857422,21.574219 A 19.999999,19.999999 0 0 0 35.423828,15.716797 Z M 64,35.714844 78.142578,49.857422 92.283203,64 78.142578,78.142578 64,92.285156 78.142578,106.42578 a 19.999999,19.999999 0 0 0 28.283202,0 19.999999,19.999999 0 0 0 0,-28.283202 L 92.285156,64 106.42578,49.857422 a 19.999999,19.999999 0 0 0 0,-28.283203 19.999999,19.999999 0 0 0 -28.283202,0 z"
       inkscape:connector-curvature="0" />
    <path
       style="display:inline;opacity:1;fill:#000000;fill-opacity:1;stroke:none;stroke-width:1.32291663;stroke-linecap:round;stroke-linejoin:round;stroke-miterlimit:10;stroke-dasharray:none;stroke-opacity:0.97925313;paint-order:fill markers stroke"
       d="m 12.560238,279.43528 c -0.348733,0.34873 -0.348733,0.91413 0,1.26286 0.34871,0.34875 0.914113,0.34877 1.262856,6e-5 0.348724,-0.34873 0.34872,-0.91413 -9e-6,-1.26285 -0.348707,-0.34875 -0.914107,-0.34878 -1.262853,-7e-5 z m 1.870858,-1.87091 c -0.348723,0.34872 -0.348727,0.91411 -10e-6,1.26284 0.34871,0.34874 0.914107,0.34877 1.26285,6e-5 0.348727,-0.34873 0.348727,-0.91412 0,-1.26285 -0.348709,-0.34874 -0.914102,-0.34877 -1.262844,-6e-5 z m 1.87085,-1.87091 c -0.348733,0.34873 -0.348733,0.91413 0,1.26286 0.34871,0.34874 0.914108,0.34877 1.262851,6e-5 0.348747,-0.34873 0.348747,-0.91415 0,-1.26288 -0.34871,-0.34874 -0.914108,-0.34877 -1.262851,-6e-5 z m -1.87085,5.61268 c -0.348736,0.34872 -0.348741,0.91413 -10e-6,1.26286 0.348709,0.34874 0.914102,0.34877 1.262844,6e-5 0.348726,-0.34872 0.348735,-0.91411 2.1e-5,-1.26284 -0.34871,-0.34874 -0.914109,-0.34877 -1.262852,-6e-5 z m 1.870821,-1.87096 c -0.348733,0.34873 -0.348733,0.91413 0,1.26286 0.348712,0.34876 0.914124,0.34878 1.262869,6e-5 0.348743,-0.34873 0.348747,-0.91414 10e-6,-1.26287 -0.348713,-0.34876 -0.91413,-0.34879 -1.262876,-6e-5 z m 1.870869,-1.8709 c -0.348716,0.34872 -0.348721,0.9141 -10e-6,1.26283 0.34871,0.34874 0.914109,0.34877 1.262852,6e-5 0.348727,-0.34873 0.348727,-0.91412 0,-1.26285 -0.348709,-0.34874 -0.914098,-0.34876 -1.26284,-6e-5 z m -1.870898,5.61264 c -0.348747,0.34873 -0.348747,0.91415 0,1.26288 0.34871,0.34874 0.914109,0.34877 1.262852,6e-5 0.348747,-0.34873 0.348747,-0.91415 0,-1.26288 -0.34871,-0.34874 -0.914107,-0.34877 -1.26285,-6e-5 z m 1.870848,-1.87092 c -0.348727,0.34873 -0.348727,0.91412 0,1.26285 0.348708,0.34873 0.914095,0.34876 1.262836,6e-5 0.3487,-0.34872 0.3487,-0.91409 0,-1.26281 -0.348709,-0.34874 -0.9141,-0.34876 -1.262842,-6e-5 z m 1.870838,-1.87094 c -0.348724,0.34873 -0.34872,0.91413 10e-6,1.26285 0.348707,0.34875 0.914104,0.34878 1.262849,7e-5 0.348727,-0.34873 0.348728,-0.91412 1e-6,-1.26285 -0.34871,-0.34874 -0.914107,-0.34877 -1.26285,-6e-5 z"
       id="path57-2"
       inkscape:connector-curvature="0"
       sodipodi:nodetypes="cccccccccccccccccccccccccccccccccccccccccccccccccccccc" />
    <path
       style="display:inline;opacity:1;fill:#000000;fill-opacity:1;stroke:none;stroke-width:1.50110137;stroke-linecap:round;stroke-linejoin:miter;stroke-miterlimit:10;stroke-dasharray:none;stroke-opacity:1;paint-order:fill markers stroke"
       d="m 7.1555037,269.95702 a 3.6809822,4.0589226 5.549525 0 0 -0.026872,0.0315 3.6809822,4.0589226 5.549525 0 0 -0.4625041,4.79868 l 0.7136516,-0.71366 a 2.7473351,3.0294143 5.5495237 0 1 -0.042892,-0.091 2.7473351,3.0294143 5.5495237 0 1 -0.1012857,-0.27905 2.7473351,3.0294143 5.5495237 0 1 -0.074931,-0.28939 2.7473351,3.0294143 5.5495237 0 1 -0.048576,-0.29662 2.7473351,3.0294143 5.5495237 0 1 -0.021188,-0.30127 2.7473351,3.0294143 5.5495237 0 1 0.0062,-0.30283 2.7473351,3.0294143 5.5495237 0 1 0.03359,-0.30075 2.7473351,3.0294143 5.5495237 0 1 0.060978,-0.29611 2.7473351,3.0294143 5.5495237 0 1 0.087333,-0.28887 2.7473351,3.0294143 5.5495237 0 1 0.1126549,-0.27802 2.7473351,3.0294143 5.5495237 0 1 0.1374592,-0.2651 2.7473351,3.0294143 5.5495237 0 1 0.160197,-0.24856 2.7473351,3.0294143 5.5495237 0 1 0.1271238,-0.16537 2.7473351,3.0294143 5.5495237 0 1 0.026355,-0.03 l -0.2490773,-0.24898 z"
       id="path1188"
       inkscape:connector-curvature="0" />
    <path
       style="display:inline;opacity:1;fill:#000000;fill-opacity:1;stroke:none;stroke-width:0.89652848;stroke-linecap:round;stroke-linejoin:miter;stroke-miterlimit:10;stroke-dasharray:none;stroke-opacity:1;paint-order:fill markers stroke"
       d="m 13.970207,286.94686 -1.668632,1.66863 0.665592,0.6656 1.668632,-1.66864 z"
       id="rect1071"
       inkscape:connector-curvature="0" />
  </g>
</svg>
