<?xml version="1.0" encoding="UTF-8" standalone="no"?>
<!-- Created with Inkscape (http://www.inkscape.org/) -->

<svg
   xmlns:dc="http://purl.org/dc/elements/1.1/"
   xmlns:cc="http://creativecommons.org/ns#"
   xmlns:rdf="http://www.w3.org/1999/02/22-rdf-syntax-ns#"
   xmlns:svg="http://www.w3.org/2000/svg"
   xmlns="http://www.w3.org/2000/svg"
   xmlns:sodipodi="http://sodipodi.sourceforge.net/DTD/sodipodi-0.dtd"
   xmlns:inkscape="http://www.inkscape.org/namespaces/inkscape"
   width="128"
   height="128"
   viewBox="0 0 33.866666 33.866668"
   version="1.1"
   id="svg8"
   sodipodi:docname="patch_new.svg"
   inkscape:version="0.92.3 (2405546, 2018-03-11)">
  <defs
     id="defs2" />
  <sodipodi:namedview
     id="base"
     pagecolor="#ffffff"
     bordercolor="#666666"
     borderopacity="1.0"
     inkscape:pageopacity="0.0"
     inkscape:pageshadow="2"
     inkscape:zoom="5.6568544"
     inkscape:cx="57.107633"
     inkscape:cy="59.076551"
     inkscape:document-units="mm"
     inkscape:current-layer="layer1"
     showgrid="false"
     units="px"
     inkscape:pagecheckerboard="true"
     inkscape:snap-smooth-nodes="true"
     inkscape:object-paths="true"
     inkscape:snap-intersection-paths="true"
     inkscape:snap-midpoints="false"
     showguides="true"
     inkscape:guide-bbox="true"
     inkscape:window-width="1920"
     inkscape:window-height="1018"
     inkscape:window-x="0"
     inkscape:window-y="25"
     inkscape:window-maximized="1"
     inkscape:object-nodes="true" />
  <metadata
     id="metadata5">
    <rdf:RDF>
      <cc:Work
         rdf:about="">
        <dc:format>image/svg+xml</dc:format>
        <dc:type
           rdf:resource="http://purl.org/dc/dcmitype/StillImage" />
        <dc:title />
      </cc:Work>
    </rdf:RDF>
  </metadata>
  <g
     inkscape:label="Layer 1"
     inkscape:groupmode="layer"
     id="layer1"
     transform="translate(0,-263.13332)">
    <path
       style="display:inline;opacity:1;fill:#000000;fill-opacity:1;stroke:none;stroke-width:2.25893998;stroke-linecap:round;stroke-linejoin:miter;stroke-miterlimit:10;stroke-dasharray:none;stroke-opacity:1;paint-order:fill markers stroke"
       d="m 7.7116389,264.48545 a 6.4541141,6.4541141 0 0 0 -4.4693481,1.89022 6.4541141,6.4541141 0 0 0 0,9.12716 l 4.5632606,4.56389 -4.5632606,4.56389 a 6.4541141,6.4541141 0 0 0 0,9.12715 6.4541141,6.4541141 0 0 0 9.1271512,0 l 4.563891,-4.56326 4.563891,4.56326 a 6.4541141,6.4541141 0 0 0 9.127151,0 6.4541141,6.4541141 0 0 0 0,-9.12715 l -4.56326,-4.56389 4.56326,-4.56389 a 6.4541141,6.4541141 0 0 0 0,-9.12716 6.4541141,6.4541141 0 0 0 -9.127151,0 l -4.563891,4.56327 -4.563891,-4.56327 a 6.4541141,6.4541141 0 0 0 -4.6578031,-1.89022 z m -2.7039209,3.25101 0.5344813,0.53007 0.3037971,0.30317 a 3.3508565,3.6949015 5.5495237 0 0 -0.032145,0.0372 3.3508565,3.6949015 5.5495237 0 0 -0.1550501,0.20169 3.3508565,3.6949015 5.5495237 0 0 -0.1953883,0.30317 3.3508565,3.6949015 5.5495237 0 0 -0.1676556,0.32334 3.3508565,3.6949015 5.5495237 0 0 -0.137402,0.33909 3.3508565,3.6949015 5.5495237 0 0 -0.1065181,0.35233 3.3508565,3.6949015 5.5495237 0 0 -0.074374,0.36115 3.3508565,3.6949015 5.5495237 0 0 -0.040968,0.36683 3.3508565,3.6949015 5.5495237 0 0 -0.00756,0.36934 3.3508565,3.6949015 5.5495237 0 0 0.025842,0.36746 3.3508565,3.6949015 5.5495237 0 0 0.059247,0.36178 3.3508565,3.6949015 5.5495237 0 0 0.091391,0.35296 3.3508565,3.6949015 5.5495237 0 0 0.123536,0.34036 3.3508565,3.6949015 5.5495237 0 0 0.052314,0.11093 l -0.8704232,0.87042 a 4.4896027,4.9505672 5.549525 0 1 0.5641048,-5.85282 4.4896027,4.9505672 5.549525 0 1 0.032775,-0.0384 z m 11.925615,6.67723 c 0.278734,2e-5 0.557551,0.10625 0.770208,0.31893 0.425358,0.42534 0.425358,1.11508 0,1.54041 -0.425353,0.42532 -1.115103,0.42535 -1.540416,0 -0.425341,-0.42533 -0.425341,-1.11507 0,-1.54041 0.212677,-0.21266 0.491474,-0.31894 0.770208,-0.31893 z m -2.28163,2.28226 c 0.278732,2e-5 0.557552,0.10625 0.770208,0.31893 0.425333,0.42534 0.425333,1.11508 0,1.54041 -0.425354,0.42532 -1.115103,0.42535 -1.540416,0 -0.425322,-0.42533 -0.425329,-1.11509 0,-1.54041 0.212676,-0.21266 0.491476,-0.31894 0.770208,-0.31893 z m 4.56326,0 c 0.278731,2e-5 0.557553,0.10625 0.770208,0.31893 0.425334,0.42534 0.425334,1.11445 0,1.53978 -0.425353,0.42532 -1.115102,0.42535 -1.540415,0 -0.425314,-0.42533 -0.425321,-1.11446 0,-1.53978 0.212676,-0.21265 0.491477,-0.31894 0.770207,-0.31893 z m -6.845521,2.28164 c 0.278734,10e-6 0.557553,0.10624 0.770208,0.31892 0.425336,0.42532 0.42533,1.11508 0,1.54041 -0.425353,0.42532 -1.114472,0.42537 -1.539785,0 -0.425341,-0.42533 -0.425341,-1.11507 0,-1.54041 0.212678,-0.21266 0.490843,-0.31894 0.769577,-0.31892 z m 4.563891,0 c 0.27874,10e-6 0.55755,0.10623 0.770208,0.31892 0.425346,0.42534 0.425353,1.11508 0,1.54041 -0.425356,0.42533 -1.1151,0.42538 -1.540416,0 -0.425341,-0.42533 -0.425341,-1.11507 0,-1.54041 0.212679,-0.21267 0.491468,-0.31894 0.770208,-0.31892 z m 4.563891,0 c 0.278734,10e-6 0.556921,0.10624 0.769578,0.31892 0.425333,0.42534 0.425333,1.11508 0,1.54041 -0.425356,0.42532 -1.114477,0.42537 -1.539786,0 -0.425337,-0.42532 -0.42533,-1.11507 0,-1.54041 0.212677,-0.21266 0.491474,-0.31894 0.770208,-0.31892 z m -2.282261,2.28163 c 0.278732,10e-6 0.557553,0.10624 0.770208,0.31892 0.425301,0.42532 0.425301,1.11509 0,1.54041 -0.42535,0.42531 -1.115105,0.42534 -1.540415,0 -0.425334,-0.42533 -0.425334,-1.11507 0,-1.54041 0.212676,-0.21265 0.491476,-0.31894 0.770207,-0.31892 z m -4.56326,6.4e-4 c 0.278734,10e-6 0.557551,0.10625 0.770208,0.31892 0.425317,0.42534 0.425332,1.11446 0,1.53979 -0.425352,0.42531 -1.115104,0.42535 -1.540416,0 -0.425339,-0.42534 -0.425345,-1.11446 0,-1.53979 0.212677,-0.21265 0.491474,-0.31893 0.770208,-0.31892 z m 2.28163,2.28162 c 0.278734,1e-5 0.557551,0.10625 0.770208,0.31892 0.425358,0.42534 0.425358,1.11508 0,1.54042 -0.425353,0.42531 -1.115103,0.42534 -1.540416,0 -0.425358,-0.42534 -0.425358,-1.11508 0,-1.54042 0.212677,-0.21266 0.491475,-0.31894 0.770208,-0.31892 z m 12.096424,2.61694 a 4.9505672,4.4896027 84.450475 0 1 0.03277,0.0385 4.9505672,4.4896027 84.450475 0 1 0.564103,5.85282 l -0.870422,-0.87043 a 3.6949015,3.3508565 84.450476 0 0 0.05231,-0.11093 3.6949015,3.3508565 84.450476 0 0 0.123535,-0.34035 3.6949015,3.3508565 84.450476 0 0 0.09139,-0.35296 3.6949015,3.3508565 84.450476 0 0 0.05925,-0.36178 3.6949015,3.3508565 84.450476 0 0 0.02585,-0.36746 3.6949015,3.3508565 84.450476 0 0 -0.0076,-0.36934 3.6949015,3.3508565 84.450476 0 0 -0.04097,-0.36683 3.6949015,3.3508565 84.450476 0 0 -0.07437,-0.36115 3.6949015,3.3508565 84.450476 0 0 -0.106519,-0.35233 3.6949015,3.3508565 84.450476 0 0 -0.137401,-0.3391 3.6949015,3.3508565 84.450476 0 0 -0.167656,-0.32333 3.6949015,3.3508565 84.450476 0 0 -0.195389,-0.30317 3.6949015,3.3508565 84.450476 0 0 -0.15505,-0.20169 3.6949015,3.3508565 84.450476 0 0 -0.03214,-0.0366 l 0.303797,-0.30379 z m -15.065064,1.65449 0.811806,0.81181 -2.035189,2.03519 -2.035189,2.03519 -0.8118064,-0.81181 2.0351894,-2.03519 z"
       id="path45"
       inkscape:connector-curvature="0" />
  </g>
</svg>
