<?xml version="1.0" encoding="UTF-8" standalone="no"?>
<!-- Created with Inkscape (http://www.inkscape.org/) -->

<svg
   xmlns:dc="http://purl.org/dc/elements/1.1/"
   xmlns:cc="http://creativecommons.org/ns#"
   xmlns:rdf="http://www.w3.org/1999/02/22-rdf-syntax-ns#"
   xmlns:svg="http://www.w3.org/2000/svg"
   xmlns="http://www.w3.org/2000/svg"
   xmlns:sodipodi="http://sodipodi.sourceforge.net/DTD/sodipodi-0.dtd"
   xmlns:inkscape="http://www.inkscape.org/namespaces/inkscape"
   width="128"
   height="128"
   viewBox="0 0 33.866666 33.866668"
   version="1.1"
   id="svg8"
   inkscape:version="0.92.3 (2405546, 2018-03-11)"
   sodipodi:docname="scale.svg">
  <defs
     id="defs2" />
  <sodipodi:namedview
     id="base"
     pagecolor="#ffffff"
     bordercolor="#666666"
     borderopacity="1.0"
     inkscape:pageopacity="0.0"
     inkscape:pageshadow="2"
     inkscape:zoom="4"
     inkscape:cx="25.796678"
     inkscape:cy="82.672831"
     inkscape:document-units="mm"
     inkscape:current-layer="layer1"
     showgrid="false"
     units="px"
     inkscape:pagecheckerboard="true"
     inkscape:window-width="1920"
     inkscape:window-height="1018"
     inkscape:window-x="0"
     inkscape:window-y="25"
     inkscape:window-maximized="1"
     inkscape:object-paths="true"
     inkscape:snap-intersection-paths="true"
     inkscape:object-nodes="false"
     inkscape:snap-nodes="true"
     inkscape:snap-smooth-nodes="true"
     inkscape:snap-midpoints="true" />
  <metadata
     id="metadata5">
    <rdf:RDF>
      <cc:Work
         rdf:about="">
        <dc:format>image/svg+xml</dc:format>
        <dc:type
           rdf:resource="http://purl.org/dc/dcmitype/StillImage" />
        <dc:title></dc:title>
      </cc:Work>
    </rdf:RDF>
  </metadata>
  <g
     inkscape:label="Layer 1"
     inkscape:groupmode="layer"
     id="layer1"
     transform="translate(0,-263.13332)">
    <path
       style="opacity:1;fill:#000000;fill-opacity:1;stroke:#000000;stroke-width:0.50381351;stroke-linecap:round;stroke-linejoin:miter;stroke-miterlimit:4;stroke-dasharray:none;stroke-opacity:1;paint-order:fill markers stroke"
       d="m 6.3416414,268.73467 -2.5829133,5.10566 -3.10499218,6.138 a 7.172769,3.9845046 0 0 0 0.071028,0.0551 7.172769,3.9845046 0 0 0 0.47334428,0.29928 7.172769,3.9845046 0 0 0 0.5246706,0.27128 7.172769,3.9845046 0 0 0 0.5708124,0.24139 7.172769,3.9845046 0 0 0 0.6112516,0.20825 7.172769,3.9845046 0 0 0 0.6454691,0.17322 7.172769,3.9845046 0 0 0 0.6734656,0.13633 7.172769,3.9845046 0 0 0 0.6947216,0.0985 7.172769,3.9845046 0 0 0 0.70872,0.0598 7.172769,3.9845046 0 0 0 0.7164967,0.0196 7.172769,3.9845046 0 0 0 0.5070433,-0.01 7.172769,3.9845046 0 0 0 0.7118307,-0.0481 7.172769,3.9845046 0 0 0 0.6993877,-0.0873 7.172769,3.9845046 0 0 0 0.680724,-0.1256 7.172769,3.9845046 0 0 0 0.654282,-0.16248 7.172769,3.9845046 0 0 0 0.6221395,-0.19844 7.172769,3.9845046 0 0 0 0.583255,-0.23159 7.172769,3.9845046 0 0 0 0.538151,-0.26287 7.172769,3.9845046 0 0 0 0.488897,-0.29135 7.172769,3.9845046 0 0 0 0.200122,-0.14615 l -3.1029195,-6.13332 z m 0,1.66033 1.8985607,3.75209 2.2785839,4.50429 a 5.2674643,2.9260995 0 0 1 -0.147239,0.10738 5.2674643,2.9260995 0 0 1 -0.358767,0.21385 5.2674643,2.9260995 0 0 1 -0.3950585,0.1933 5.2674643,2.9260995 0 0 1 -0.428757,0.16995 5.2674643,2.9260995 0 0 1 -0.456754,0.14568 5.2674643,2.9260995 0 0 1 -0.4806024,0.11906 5.2674643,2.9260995 0 0 1 -0.4997851,0.0924 5.2674643,2.9260995 0 0 1 -0.5137831,0.064 5.2674643,2.9260995 0 0 1 -0.5225967,0.0355 5.2674643,2.9260995 0 0 1 -0.3722463,0.007 5.2674643,2.9260995 0 0 1 -0.5262258,-0.0145 5.2674643,2.9260995 0 0 1 -0.5205231,-0.0439 5.2674643,2.9260995 0 0 1 -0.5101539,-0.0719 5.2674643,2.9260995 0 0 1 -0.4946004,-0.10038 5.2674643,2.9260995 0 0 1 -0.4738624,-0.127 5.2674643,2.9260995 0 0 1 -0.448977,-0.15315 5.2674643,2.9260995 0 0 1 -0.4189071,-0.17742 5.2674643,2.9260995 0 0 1 -0.385726,-0.19891 5.2674643,2.9260995 0 0 1 -0.3473609,-0.21991 5.2674643,2.9260995 0 0 1 -0.052363,-0.0407 l 2.2801393,-4.50755 z"
       id="path16"
       inkscape:connector-curvature="0" />
    <path
       style="opacity:1;fill:#000000;fill-opacity:1;stroke:none;stroke-width:1.32291663;stroke-linecap:round;stroke-linejoin:miter;stroke-miterlimit:4;stroke-dasharray:none;stroke-opacity:1;paint-order:fill markers stroke"
       d="m 16.933333,267.2053 a 1.8911525,1.8911525 0 0 0 -1.652095,0.97204 H 6.3427652 v 1.83761 h 8.9405398 a 1.8911525,1.8911525 0 0 0 0.731221,0.73381 v 17.1421 a 3.4739278,3.4739278 0 0 0 -2.569352,3.22151 H 6.4094277 v 1.83762 H 27.457238 v -1.83762 H 20.381701 A 3.4739278,3.4739278 0 0 0 17.85214,287.8981 v -17.15141 a 1.8911525,1.8911525 0 0 0 0.733805,-0.73174 H 27.5239 v -1.83761 h -8.940538 a 1.8911525,1.8911525 0 0 0 -1.650029,-0.97204 z"
       id="rect55"
       inkscape:connector-curvature="0" />
    <path
       style="opacity:1;fill:#000000;fill-opacity:1;stroke:#000000;stroke-width:0.50381351;stroke-linecap:round;stroke-linejoin:miter;stroke-miterlimit:4;stroke-dasharray:none;stroke-opacity:1;paint-order:fill markers stroke"
       d="m 27.523643,268.73467 -2.582914,5.10566 -3.104992,6.138 a 7.172769,3.9845046 0 0 0 0.07103,0.0551 7.172769,3.9845046 0 0 0 0.473344,0.29928 7.172769,3.9845046 0 0 0 0.524671,0.27128 7.172769,3.9845046 0 0 0 0.570812,0.24139 7.172769,3.9845046 0 0 0 0.611252,0.20825 7.172769,3.9845046 0 0 0 0.645469,0.17322 7.172769,3.9845046 0 0 0 0.673466,0.13633 7.172769,3.9845046 0 0 0 0.694721,0.0985 7.172769,3.9845046 0 0 0 0.708721,0.0598 7.172769,3.9845046 0 0 0 0.716496,0.0196 7.172769,3.9845046 0 0 0 0.507043,-0.01 7.172769,3.9845046 0 0 0 0.711831,-0.0481 7.172769,3.9845046 0 0 0 0.699388,-0.0873 7.172769,3.9845046 0 0 0 0.680723,-0.1256 7.172769,3.9845046 0 0 0 0.654283,-0.16248 7.172769,3.9845046 0 0 0 0.622139,-0.19844 7.172769,3.9845046 0 0 0 0.583255,-0.23159 7.172769,3.9845046 0 0 0 0.538151,-0.26287 7.172769,3.9845046 0 0 0 0.488897,-0.29135 7.172769,3.9845046 0 0 0 0.200122,-0.14615 l -3.102919,-6.13332 z m 0,1.66033 1.89856,3.75209 2.278584,4.50429 a 5.2674644,2.9260996 0 0 1 -0.147239,0.10738 5.2674644,2.9260996 0 0 1 -0.358767,0.21385 5.2674644,2.9260996 0 0 1 -0.395058,0.1933 5.2674644,2.9260996 0 0 1 -0.428757,0.16995 5.2674644,2.9260996 0 0 1 -0.456755,0.14568 5.2674644,2.9260996 0 0 1 -0.480602,0.11906 5.2674644,2.9260996 0 0 1 -0.499785,0.0924 5.2674644,2.9260996 0 0 1 -0.513783,0.064 5.2674644,2.9260996 0 0 1 -0.522596,0.0355 5.2674644,2.9260996 0 0 1 -0.372247,0.007 5.2674644,2.9260996 0 0 1 -0.526225,-0.0145 5.2674644,2.9260996 0 0 1 -0.520524,-0.0439 5.2674644,2.9260996 0 0 1 -0.510154,-0.0719 5.2674644,2.9260996 0 0 1 -0.4946,-0.10038 5.2674644,2.9260996 0 0 1 -0.473862,-0.127 5.2674644,2.9260996 0 0 1 -0.448977,-0.15315 5.2674644,2.9260996 0 0 1 -0.418908,-0.17742 5.2674644,2.9260996 0 0 1 -0.385726,-0.19891 5.2674644,2.9260996 0 0 1 -0.34736,-0.21991 5.2674644,2.9260996 0 0 1 -0.05236,-0.0407 l 2.280139,-4.50755 z"
       id="path16-2"
       inkscape:connector-curvature="0" />
  </g>
</svg>
