<?xml version="1.0" encoding="UTF-8" standalone="no"?>
<svg
   xmlns:dc="http://purl.org/dc/elements/1.1/"
   xmlns:cc="http://creativecommons.org/ns#"
   xmlns:rdf="http://www.w3.org/1999/02/22-rdf-syntax-ns#"
   xmlns:svg="http://www.w3.org/2000/svg"
   xmlns="http://www.w3.org/2000/svg"
   xmlns:sodipodi="http://sodipodi.sourceforge.net/DTD/sodipodi-0.dtd"
   xmlns:inkscape="http://www.inkscape.org/namespaces/inkscape"
   id="svg8"
   version="1.1"
   viewBox="0 0 33.866666 33.866668"
   height="128"
   width="128"
   sodipodi:docname="settings_new.svg"
   inkscape:version="0.92.3 (2405546, 2018-03-11)">
  <sodipodi:namedview
     pagecolor="#ffffff"
     bordercolor="#666666"
     borderopacity="1"
     objecttolerance="10"
     gridtolerance="10"
     guidetolerance="10"
     inkscape:pageopacity="0"
     inkscape:pageshadow="2"
     inkscape:window-width="1920"
     inkscape:window-height="1018"
     id="namedview7"
     showgrid="false"
     inkscape:zoom="2.6074563"
     inkscape:cx="-12.578624"
     inkscape:cy="37.240751"
     inkscape:window-x="0"
     inkscape:window-y="25"
     inkscape:window-maximized="1"
     inkscape:current-layer="svg8"
     inkscape:pagecheckerboard="true" />
  <defs
     id="defs2" />
  <metadata
     id="metadata5">
    <rdf:RDF>
      <cc:Work
         rdf:about="">
        <dc:format>image/svg+xml</dc:format>
        <dc:type
           rdf:resource="http://purl.org/dc/dcmitype/StillImage" />
        <dc:title></dc:title>
      </cc:Work>
    </rdf:RDF>
  </metadata>
  <g
     transform="matrix(1.0647682,0,0,1.0647682,-1.0967422,-281.27274)"
     id="layer1"
     style="fill:#000000">
    <path
       id="path26"
       d="m 11.151452,266.17636 c -0.459076,0.19651 -0.908085,0.41575 -1.3453584,0.65691 0,0 0.5198714,2.07681 0.1594195,3.01725 -0.5537787,1.44484 -1.8369021,2.72718 -3.2804479,3.28434 -0.9391308,0.36247 -3.016292,-0.14881 -3.016292,-0.14881 -0.4693669,0.87943 -0.8501755,1.80332 -1.1368123,2.75807 0,0 1.8370855,1.10051 2.2471836,2.0206 0.6310361,1.41578 0.6284777,3.23294 6.169e-4,4.65013 -0.4082534,0.9215 -2.2398418,2.03115 -2.2398418,2.03115 0.1444765,0.47555 0.3124274,0.94365 0.5032351,1.40258 0.1964934,0.45909 0.4157204,0.90811 0.656867,1.3454 0,0 2.0769987,-0.51946 3.0174813,-0.15892 1.4446608,0.55382 2.7270142,1.83659 3.284134,3.27998 0.362485,0.93913 -0.1488442,3.0163 -0.1488442,3.0163 0.8794362,0.46936 1.8033412,0.85016 2.7580932,1.13679 0,0 1.100529,-1.83707 2.020619,-2.24716 1.415784,-0.63102 3.23294,-0.62842 4.650125,-5.5e-4 0.921482,0.40825 2.03113,2.2398 2.03113,2.2398 0.475514,-0.1446 0.943571,-0.31268 1.402449,-0.50361 0.459076,-0.19651 0.908085,-0.41575 1.345359,-0.65691 0,0 -0.519869,-2.0768 -0.159418,-3.01724 0.553779,-1.44484 1.836902,-2.72718 3.280448,-3.28434 0.939132,-0.36247 3.016296,0.14881 3.016296,0.14881 0.469366,-0.87943 0.850173,-1.80334 1.136807,-2.75809 0,0 -1.837088,-1.10051 -2.247185,-2.0206 -0.631032,-1.41577 -0.628465,-3.23293 -6.08e-4,-4.65011 0.408254,-0.9215 2.239839,-2.03116 2.239839,-2.03116 -0.144486,-0.47555 -0.312447,-0.94365 -0.503264,-1.40258 -0.196494,-0.45908 -0.41572,-0.90809 -0.656865,-1.34537 0,0 -2.076996,0.51946 -3.017477,0.15892 -1.444659,-0.55381 -2.727012,-1.83658 -3.284132,-3.27997 -0.362488,-0.93913 0.148843,-3.01632 0.148843,-3.01632 -0.879438,-0.46936 -1.803343,-0.85016 -2.758096,-1.13678 0,0 -1.100531,1.83707 -2.020619,2.24715 -1.415783,0.63102 -3.232935,0.62842 -4.650117,5.5e-4 -0.921485,-0.40825 -2.031135,-2.23981 -2.031135,-2.23981 -0.475514,0.14461 -0.94357,0.31269 -1.402448,0.50363 z m 2.879965,6.91869 c 0.232424,-0.0968 0.469547,-0.18199 0.710478,-0.25514 0.240906,-0.073 0.48531,-0.13382 0.732295,-0.18237 0.247056,-0.0484 0.496376,-0.0844 0.747027,-0.10783 0.250718,-0.024 0.502479,-0.0354 0.754338,-0.0342 0.251766,0.001 0.503301,0.0156 0.75366,0.0422 0.250289,0.0265 0.499097,0.0654 0.745494,0.11678 0.246497,0.0514 0.49027,0.11506 0.730406,0.19079 0.240165,0.0758 0.476391,0.16348 0.707791,0.26284 0.231313,0.0993 0.457517,0.21009 0.677764,0.33197 0.220314,0.12188 0.434395,0.2547 0.641441,0.39796 0.206948,0.1435 0.406588,0.29727 0.598172,0.46072 0.191692,0.16321 0.375102,0.3359 0.549544,0.51743 0.174452,0.18152 0.339718,0.37165 0.495178,0.56968 0.155243,0.19811 0.300484,0.40386 0.435179,0.61648 0.135003,0.21253 0.259293,0.43168 0.372403,0.65663 0.07988,0.15937 0.154092,0.32152 0.222495,0.48615 0.09677,0.23245 0.181846,0.46958 0.254921,0.71053 0.0731,0.24087 0.134107,0.48525 0.182798,0.73222 0.04854,0.24703 0.0847,0.49632 0.108339,0.74696 0.02395,0.25072 0.03534,0.50247 0.03413,0.75433 -0.0015,0.25176 -0.01563,0.5033 -0.04228,0.75365 -0.02647,0.2503 -0.06545,0.49911 -0.116767,0.74552 -0.05138,0.24649 -0.115049,0.49026 -0.190779,0.73039 -0.07577,0.24017 -0.163508,0.4764 -0.262883,0.7078 -0.09927,0.23131 -0.210051,0.45751 -0.331916,0.67776 -0.121881,0.22032 -0.254705,0.4344 -0.397974,0.64145 -0.143518,0.20695 -0.297299,0.40658 -0.460766,0.59816 -0.163197,0.19169 -0.335877,0.37509 -0.517394,0.54953 -0.181522,0.17446 -0.371654,0.33973 -0.569685,0.49519 -0.198115,0.15525 -0.403869,0.30049 -0.616489,0.43519 -0.212527,0.135 -0.431673,0.25929 -0.656617,0.3724 -0.159374,0.0799 -0.321527,0.15412 -0.486155,0.22253 -0.232414,0.0969 -0.469528,0.18204 -0.710452,0.25522 -0.240907,0.073 -0.485311,0.13383 -0.732297,0.18238 -0.247057,0.0484 -0.496378,0.0844 -0.747029,0.10783 -0.250724,0.0239 -0.502488,0.0353 -0.754346,0.034 -0.251769,-0.002 -0.503304,-0.0156 -0.753663,-0.0423 -0.25029,-0.0265 -0.4991,-0.0654 -0.745498,-0.11678 -0.246492,-0.0514 -0.490261,-0.11504 -0.730393,-0.19077 -0.24017,-0.0758 -0.476399,-0.16352 -0.707802,-0.2629 -0.23131,-0.0993 -0.457513,-0.21004 -0.67776,-0.3319 -0.220394,-0.12203 -0.434542,-0.25502 -0.641643,-0.39846 -0.206868,-0.14336 -0.40644,-0.29697 -0.597968,-0.46026 -0.19169,-0.1632 -0.375099,-0.33587 -0.54954,-0.51739 -0.174454,-0.18152 -0.339722,-0.37165 -0.495183,-0.56968 -0.155243,-0.19812 -0.300484,-0.40388 -0.435178,-0.61651 -0.135002,-0.21252 -0.259291,-0.43166 -0.372402,-0.6566 -0.07989,-0.15938 -0.154108,-0.32154 -0.2225192,-0.48618 -0.096765,-0.23245 -0.1818427,-0.4696 -0.2549157,-0.71055 -0.073083,-0.24087 -0.1340779,-0.48524 -0.1827552,-0.7322 -0.048528,-0.24702 -0.084674,-0.49632 -0.1083013,-0.74695 -0.023947,-0.25072 -0.035336,-0.50247 -0.034124,-0.75433 0.00152,-0.25177 0.01563,-0.50331 0.042278,-0.75367 0.026474,-0.25029 0.065445,-0.4991 0.1167657,-0.7455 0.051378,-0.24649 0.1150515,-0.49026 0.1907825,-0.73039 0.07577,-0.24017 0.1635071,-0.4764 0.2628819,-0.7078 0.099274,-0.23131 0.2100523,-0.45752 0.3319183,-0.67777 0.121881,-0.22032 0.254704,-0.4344 0.397972,-0.64145 0.143515,-0.20695 0.297293,-0.40659 0.460758,-0.59818 0.1632,-0.19168 0.335883,-0.37509 0.517403,-0.54952 0.181523,-0.17445 0.371656,-0.33971 0.569687,-0.49517 0.198114,-0.15525 0.403867,-0.30049 0.616486,-0.43519 0.212528,-0.135 0.431674,-0.25928 0.656618,-0.37238 0.159371,-0.0799 0.321521,-0.15414 0.486146,-0.22256 z"
       style="fill:#000000;fill-opacity:1;stroke-width:0.7737267"
       inkscape:connector-curvature="0"
       sodipodi:nodetypes="ccaaccaacccaaccaacccaaccaacccaaccaaccccccccccccccccccccccccccccccccccccccccccccccccccccccccccccccccccccc" />
  </g>
</svg>
