<?xml version="1.0" encoding="UTF-8" standalone="no"?>
<svg
   xmlns:dc="http://purl.org/dc/elements/1.1/"
   xmlns:cc="http://creativecommons.org/ns#"
   xmlns:rdf="http://www.w3.org/1999/02/22-rdf-syntax-ns#"
   xmlns:svg="http://www.w3.org/2000/svg"
   xmlns="http://www.w3.org/2000/svg"
   xmlns:sodipodi="http://sodipodi.sourceforge.net/DTD/sodipodi-0.dtd"
   xmlns:inkscape="http://www.inkscape.org/namespaces/inkscape"
   id="svg8"
   version="1.1"
   viewBox="0 0 33.866666 33.866668"
   height="128"
   width="128"
   sodipodi:docname="cog3.svg"
   inkscape:version="0.92.3 (2405546, 2018-03-11)">
  <sodipodi:namedview
     pagecolor="#ffffff"
     bordercolor="#666666"
     borderopacity="1"
     objecttolerance="10"
     gridtolerance="10"
     guidetolerance="10"
     inkscape:pageopacity="0"
     inkscape:pageshadow="2"
     inkscape:window-width="792"
     inkscape:window-height="480"
     id="namedview7"
     showgrid="false"
     inkscape:zoom="1.84375"
     inkscape:cx="64"
     inkscape:cy="64"
     inkscape:window-x="0"
     inkscape:window-y="25"
     inkscape:window-maximized="0"
     inkscape:current-layer="svg8" />
  <defs
     id="defs2" />
  <metadata
     id="metadata5">
    <rdf:RDF>
      <cc:Work
         rdf:about="">
        <dc:format>image/svg+xml</dc:format>
        <dc:type
           rdf:resource="http://purl.org/dc/dcmitype/StillImage" />
        <dc:title />
      </cc:Work>
    </rdf:RDF>
  </metadata>
  <g
     transform="translate(0,-263.13332)"
     id="layer1"
     style="fill:#000000">
    <path
       id="path26"
       d="m 11.151452,266.17636 a 15.046057,15.046057 0 0 0 -1.3453584,0.65691 l 0.1594195,3.01725 a 12.379628,12.379628 0 0 0 -3.2804479,3.28434 l -3.016292,-0.14881 a 15.046057,15.046057 0 0 0 -1.1368123,2.75807 l 2.2471836,2.0206 a 12.379628,12.379628 0 0 0 6.169e-4,4.65013 L 2.5399196,284.446 a 15.046057,15.046057 0 0 0 0.5032351,1.40258 15.046057,15.046057 0 0 0 0.656867,1.3454 l 3.0174813,-0.15892 a 12.379628,12.379628 0 0 0 3.284134,3.27998 l -0.1488442,3.0163 a 15.046057,15.046057 0 0 0 2.7580932,1.13679 l 2.020619,-2.24716 a 12.379628,12.379628 0 0 0 4.650125,-5.5e-4 l 2.03113,2.2398 a 15.046057,15.046057 0 0 0 1.402449,-0.50361 15.046057,15.046057 0 0 0 1.345359,-0.65691 l -0.159418,-3.01724 a 12.379628,12.379628 0 0 0 3.280448,-3.28434 l 3.016296,0.14881 a 15.046057,15.046057 0 0 0 1.136807,-2.75809 l -2.247185,-2.0206 a 12.379628,12.379628 0 0 0 -6.08e-4,-4.65011 l 2.239839,-2.03116 a 15.046057,15.046057 0 0 0 -0.503264,-1.40258 15.046057,15.046057 0 0 0 -0.656865,-1.34537 l -3.017477,0.15892 a 12.379628,12.379628 0 0 0 -3.284132,-3.27997 l 0.148843,-3.01632 a 15.046057,15.046057 0 0 0 -2.758096,-1.13678 l -2.020619,2.24715 a 12.379628,12.379628 0 0 0 -4.650117,5.5e-4 l -2.031135,-2.23981 a 15.046057,15.046057 0 0 0 -1.402448,0.50363 z m 2.879965,6.91869 a 7.5515384,7.5515384 0 0 1 0.710478,-0.25514 7.5515384,7.5515384 0 0 1 0.732295,-0.18237 7.5515384,7.5515384 0 0 1 0.747027,-0.10783 7.5515384,7.5515384 0 0 1 0.754338,-0.0342 7.5515384,7.5515384 0 0 1 0.75366,0.0422 7.5515384,7.5515384 0 0 1 0.745494,0.11678 7.5515384,7.5515384 0 0 1 0.730406,0.19079 7.5515384,7.5515384 0 0 1 0.707791,0.26284 7.5515384,7.5515384 0 0 1 0.677764,0.33197 7.5515384,7.5515384 0 0 1 0.641441,0.39796 7.5515384,7.5515384 0 0 1 0.598172,0.46072 7.5515384,7.5515384 0 0 1 0.549544,0.51743 7.5515384,7.5515384 0 0 1 0.495178,0.56968 7.5515384,7.5515384 0 0 1 0.435179,0.61648 7.5515384,7.5515384 0 0 1 0.372403,0.65663 7.5515384,7.5515384 0 0 1 0.222495,0.48615 7.5515384,7.5515384 0 0 1 0.254921,0.71053 7.5515384,7.5515384 0 0 1 0.182798,0.73222 7.5515384,7.5515384 0 0 1 0.108339,0.74696 7.5515384,7.5515384 0 0 1 0.03413,0.75433 7.5515384,7.5515384 0 0 1 -0.04228,0.75365 7.5515384,7.5515384 0 0 1 -0.116767,0.74552 7.5515384,7.5515384 0 0 1 -0.190779,0.73039 7.5515384,7.5515384 0 0 1 -0.262883,0.7078 7.5515384,7.5515384 0 0 1 -0.331916,0.67776 7.5515384,7.5515384 0 0 1 -0.397974,0.64145 7.5515384,7.5515384 0 0 1 -0.460766,0.59816 7.5515384,7.5515384 0 0 1 -0.517394,0.54953 7.5515384,7.5515384 0 0 1 -0.569685,0.49519 7.5515384,7.5515384 0 0 1 -0.616489,0.43519 7.5515384,7.5515384 0 0 1 -0.656617,0.3724 7.5515384,7.5515384 0 0 1 -0.486155,0.22253 7.5515384,7.5515384 0 0 1 -0.710452,0.25522 7.5515384,7.5515384 0 0 1 -0.732297,0.18238 7.5515384,7.5515384 0 0 1 -0.747029,0.10783 7.5515384,7.5515384 0 0 1 -0.754346,0.034 7.5515384,7.5515384 0 0 1 -0.753663,-0.0423 7.5515384,7.5515384 0 0 1 -0.745498,-0.11678 7.5515384,7.5515384 0 0 1 -0.730393,-0.19077 7.5515384,7.5515384 0 0 1 -0.707802,-0.2629 7.5515384,7.5515384 0 0 1 -0.67776,-0.3319 7.5515384,7.5515384 0 0 1 -0.641643,-0.39846 7.5515384,7.5515384 0 0 1 -0.597968,-0.46026 7.5515384,7.5515384 0 0 1 -0.54954,-0.51739 7.5515384,7.5515384 0 0 1 -0.495183,-0.56968 7.5515384,7.5515384 0 0 1 -0.435178,-0.61651 7.5515384,7.5515384 0 0 1 -0.372402,-0.6566 7.5515384,7.5515384 0 0 1 -0.2225192,-0.48618 7.5515384,7.5515384 0 0 1 -0.2549157,-0.71055 7.5515384,7.5515384 0 0 1 -0.1827552,-0.7322 7.5515384,7.5515384 0 0 1 -0.1083013,-0.74695 7.5515384,7.5515384 0 0 1 -0.034124,-0.75433 7.5515384,7.5515384 0 0 1 0.042278,-0.75367 7.5515384,7.5515384 0 0 1 0.1167657,-0.7455 7.5515384,7.5515384 0 0 1 0.1907825,-0.73039 7.5515384,7.5515384 0 0 1 0.2628819,-0.7078 7.5515384,7.5515384 0 0 1 0.3319183,-0.67777 7.5515384,7.5515384 0 0 1 0.397972,-0.64145 7.5515384,7.5515384 0 0 1 0.460758,-0.59818 7.5515384,7.5515384 0 0 1 0.517403,-0.54952 7.5515384,7.5515384 0 0 1 0.569687,-0.49517 7.5515384,7.5515384 0 0 1 0.616486,-0.43519 7.5515384,7.5515384 0 0 1 0.656618,-0.37238 7.5515384,7.5515384 0 0 1 0.486146,-0.22256 z"
       style="fill:#000000;fill-opacity:1;stroke-width:0.7737267"
       inkscape:connector-curvature="0" />
  </g>
</svg>
