<?xml version="1.0" encoding="UTF-8" standalone="no"?>
<!-- Created with Inkscape (http://www.inkscape.org/) -->

<svg
   xmlns:dc="http://purl.org/dc/elements/1.1/"
   xmlns:cc="http://creativecommons.org/ns#"
   xmlns:rdf="http://www.w3.org/1999/02/22-rdf-syntax-ns#"
   xmlns:svg="http://www.w3.org/2000/svg"
   xmlns="http://www.w3.org/2000/svg"
   xmlns:sodipodi="http://sodipodi.sourceforge.net/DTD/sodipodi-0.dtd"
   xmlns:inkscape="http://www.inkscape.org/namespaces/inkscape"
   width="128"
   height="128"
   viewBox="0 0 33.866666 33.866666"
   version="1.1"
   id="svg8"
   inkscape:version="0.92.3 (2405546, 2018-03-11)"
   sodipodi:docname="smart_card.svg">
  <defs
     id="defs2" />
  <sodipodi:namedview
     id="base"
     pagecolor="#ffffff"
     bordercolor="#666666"
     borderopacity="1.0"
     inkscape:pageopacity="0.0"
     inkscape:pageshadow="2"
     inkscape:zoom="2.8284272"
     inkscape:cx="2.0659456"
     inkscape:cy="50.643528"
     inkscape:document-units="mm"
     inkscape:current-layer="layer1"
     showgrid="false"
     inkscape:pagecheckerboard="true"
     inkscape:object-paths="true"
     inkscape:snap-intersection-paths="true"
     inkscape:window-width="1920"
     inkscape:window-height="1018"
     inkscape:window-x="0"
     inkscape:window-y="25"
     inkscape:window-maximized="1"
     inkscape:measure-start="0,0"
     inkscape:measure-end="0,0"
     units="px" />
  <metadata
     id="metadata5">
    <rdf:RDF>
      <cc:Work
         rdf:about="">
        <dc:format>image/svg+xml</dc:format>
        <dc:type
           rdf:resource="http://purl.org/dc/dcmitype/StillImage" />
        <dc:title></dc:title>
      </cc:Work>
    </rdf:RDF>
  </metadata>
  <g
     inkscape:label="Layer 1"
     inkscape:groupmode="layer"
     id="layer1"
     transform="translate(0,-263.13334)">
    <rect
       style="opacity:1;fill:none;fill-opacity:1;stroke:#000000;stroke-width:2.46540642;stroke-linecap:square;stroke-linejoin:round;stroke-miterlimit:10;stroke-dasharray:none;stroke-opacity:1;paint-order:stroke fill markers"
       id="rect10"
       width="29.257452"
       height="18.238188"
       x="2.3046074"
       y="270.94757" />
    <path
       style="display:none;opacity:1;fill:#000000;fill-opacity:1;stroke:none;stroke-width:19.30018044;stroke-linecap:square;stroke-linejoin:round;stroke-miterlimit:10;stroke-dasharray:none;stroke-opacity:1;paint-order:stroke fill markers"
       d="m 34.088879,207.08186 c -8.809186,0.13902 -15.858155,7.01294 -16.412278,15.71144 l 16.508153,-0.0419 z"
       id="path949"
       inkscape:connector-curvature="0" />
    <path
       style="display:none;opacity:1;fill:#000000;fill-opacity:1;stroke:none;stroke-width:12.45557594;stroke-linecap:square;stroke-linejoin:round;stroke-miterlimit:10;stroke-dasharray:none;stroke-opacity:1;paint-order:stroke fill markers"
       d="m 39.424889,206.94957 v 39.53316 h 6.527826 v -39.53316 z"
       id="path947"
       inkscape:connector-curvature="0" />
    <path
       style="display:none;opacity:1;fill:#000000;fill-opacity:1;stroke:none;stroke-width:19.30018044;stroke-linecap:square;stroke-linejoin:round;stroke-miterlimit:10;stroke-dasharray:none;stroke-opacity:1;paint-order:stroke fill markers"
       d="m 51.561948,207.0464 0.11748,15.7182 16.516262,9.4e-4 c -0.55736,-8.77302 -7.721236,-15.69342 -16.633742,-15.71931 z"
       id="path945"
       inkscape:connector-curvature="0" />
    <path
       style="display:none;opacity:1;fill:#000000;fill-opacity:1;stroke:none;stroke-width:19.30018044;stroke-linecap:square;stroke-linejoin:round;stroke-miterlimit:10;stroke-dasharray:none;stroke-opacity:1;paint-order:stroke fill markers"
       d="m 51.763183,230.04681 0.120184,16.37447 c 8.801228,-0.22865 15.814984,-7.32385 16.266437,-16.25294 z"
       id="path939"
       inkscape:connector-curvature="0" />
    <path
       style="display:none;opacity:1;fill:#000000;fill-opacity:1;stroke:none;stroke-width:19.30018044;stroke-linecap:square;stroke-linejoin:round;stroke-miterlimit:10;stroke-dasharray:none;stroke-opacity:1;paint-order:stroke fill markers"
       d="m 34.504732,229.30104 -16.918663,0.0243 c 0.258544,8.79585 8.085113,15.73288 16.840343,16.14491 z"
       id="path862"
       inkscape:connector-curvature="0" />
    <path
       style="display:none;opacity:1;fill:#000000;fill-opacity:1;stroke:none;stroke-width:14.71585083;stroke-linecap:square;stroke-linejoin:round;stroke-miterlimit:10;stroke-dasharray:none;stroke-opacity:1;paint-order:stroke fill markers"
       d="M 110.89547,238.07015 89.763742,259.20193 H 110.89547 Z"
       id="path921"
       inkscape:connector-curvature="0" />
    <path
       style="display:inline;opacity:1;fill:#000000;fill-opacity:1;stroke-width:0.00432013"
       d="m 11.134619,273.72466 a 3.0481199,3.0481199 0 0 0 -0.215522,0.008 3.0481199,3.0481199 0 0 0 -0.302495,0.0367 3.0481199,3.0481199 0 0 0 -0.29734,0.0667 3.0481199,3.0481199 0 0 0 -0.289026,0.0963 3.0481199,3.0481199 0 0 0 -0.2782158,0.12422 3.0481199,3.0481199 0 0 0 -0.2642459,0.15167 3.0481199,3.0481199 0 0 0 -0.2479491,0.17743 3.0481199,3.0481199 0 0 0 -0.2288263,0.20072 3.0481199,3.0481199 0 0 0 -0.2075387,0.22318 3.0481199,3.0481199 0 0 0 -0.1845906,0.24246 3.0481199,3.0481199 0 0 0 -0.1591471,0.25992 3.0481199,3.0481199 0 0 0 -0.1327062,0.27407 3.0481199,3.0481199 0 0 0 -0.1042685,0.28636 3.0481199,3.0481199 0 0 0 -0.075496,0.29518 3.0481199,3.0481199 0 0 0 -0.045394,0.30116 3.0481199,3.0481199 0 0 0 -0.015301,0.30432 3.0481199,3.0481199 0 0 0 0.00746,0.21569 3.0481199,3.0481199 0 0 0 0.036921,0.30233 3.0481199,3.0481199 0 0 0 0.066523,0.29734 3.0481199,3.0481199 0 0 0 0.096286,0.2892 3.0481199,3.0481199 0 0 0 0.1243906,0.2782 3.0481199,3.0481199 0 0 0 0.1516637,0.26409 3.0481199,3.0481199 0 0 0 0.17694,0.24812 3.0481199,3.0481199 0 0 0 0.2012208,0.22882 3.0481199,3.0481199 0 0 0 0.2230043,0.20754 3.0481199,3.0481199 0 0 0 0.2424624,0.18442 3.0481199,3.0481199 0 0 0 0.2597565,0.15932 3.0481199,3.0481199 0 0 0 0.274391,0.13253 3.0481199,3.0481199 0 0 0 0.2861989,0.10428 3.0481199,3.0481199 0 0 0 0.295178,0.0755 3.0481199,3.0481199 0 0 0 0.301331,0.0456 3.0481199,3.0481199 0 0 0 0.304324,0.0153 3.0481199,3.0481199 0 0 0 0.215522,-0.008 3.0481199,3.0481199 0 0 0 0.302495,-0.0367 3.0481199,3.0481199 0 0 0 0.29734,-0.0667 3.0481199,3.0481199 0 0 0 0.289026,-0.0963 3.0481199,3.0481199 0 0 0 0.27838,-0.12422 3.0481199,3.0481199 0 0 0 0.264082,-0.15182 3.0481199,3.0481199 0 0 0 0.24795,-0.17695 3.0481199,3.0481199 0 0 0 0.228991,-0.20105 3.0481199,3.0481199 0 0 0 0.207374,-0.22317 3.0481199,3.0481199 0 0 0 0.18459,-0.24246 3.0481199,3.0481199 0 0 0 0.159146,-0.25959 3.0481199,3.0481199 0 0 0 0.132705,-0.2744 3.0481199,3.0481199 0 0 0 0.104269,-0.28637 3.0481199,3.0481199 0 0 0 0.0755,-0.29517 3.0481199,3.0481199 0 0 0 0.0454,-0.30117 3.0481199,3.0481199 0 0 0 0.0153,-0.30448 3.0481199,3.0481199 0 0 0 -0.0075,-0.21552 3.0481199,3.0481199 0 0 0 -0.03692,-0.30234 3.0481199,3.0481199 0 0 0 -0.06652,-0.2975 3.0481199,3.0481199 0 0 0 -0.09629,-0.28903 3.0481199,3.0481199 0 0 0 -0.124224,-0.27821 3.0481199,3.0481199 0 0 0 -0.151829,-0.26408 3.0481199,3.0481199 0 0 0 -0.176941,-0.24812 3.0481199,3.0481199 0 0 0 -0.201221,-0.22883 3.0481199,3.0481199 0 0 0 -0.223004,-0.20754 3.0481199,3.0481199 0 0 0 -0.242461,-0.18442 3.0481199,3.0481199 0 0 0 -0.259757,-0.15931 3.0481199,3.0481199 0 0 0 -0.274225,-0.13254 3.0481199,3.0481199 0 0 0 -0.286364,-0.10443 3.0481199,3.0481199 0 0 0 -0.295179,-0.0754 3.0481199,3.0481199 0 0 0 -0.301331,-0.0455 3.0481199,3.0481199 0 0 0 -0.304324,-0.0153 z m -2.0115357,6.2518 c -0.3803606,0.0844 -0.7499026,0.19218 -1.1020541,0.32262 -0.3521506,0.13043 -0.6868814,0.28353 -0.9977856,0.45947 -0.3109024,0.17594 -0.5979878,0.37465 -0.8546028,0.59568 -0.2566132,0.22101 -0.4828891,0.46454 -0.6721743,0.73021 -0.1316304,0.18476 -0.2403942,0.38243 -0.3284378,0.5912 -0.088044,0.20874 -0.1552533,0.42855 -0.2035477,0.65802 a 7.7450079,7.7450079 0 0 0 0.1034363,0.14452 7.7450079,7.7450079 0 0 0 0.5107,0.58154 7.7450079,7.7450079 0 0 0 0.5665757,0.52766 7.7450079,7.7450079 0 0 0 0.6162982,0.46846 7.7450079,7.7450079 0 0 0 0.6600362,0.40477 7.7450079,7.7450079 0 0 0 0.6969528,0.33692 7.7450079,7.7450079 0 0 0 0.7273852,0.26507 7.7450079,7.7450079 0 0 0 0.7501681,0.19175 7.7450079,7.7450079 0 0 0 0.7654685,0.11574 7.7450079,7.7450079 0 0 0 0.773117,0.0386 7.7450079,7.7450079 0 0 0 0.773283,-0.0386 7.7450079,7.7450079 0 0 0 0.765302,-0.11574 7.7450079,7.7450079 0 0 0 0.750168,-0.19175 7.7450079,7.7450079 0 0 0 0.727386,-0.26507 7.7450079,7.7450079 0 0 0 0.696952,-0.33692 7.7450079,7.7450079 0 0 0 0.660036,-0.40477 7.7450079,7.7450079 0 0 0 0.616465,-0.46846 7.7450079,7.7450079 0 0 0 0.56641,-0.52766 7.7450079,7.7450079 0 0 0 0.510699,-0.58154 7.7450079,7.7450079 0 0 0 0.103603,-0.14452 c -0.0483,-0.22947 -0.115671,-0.44928 -0.203714,-0.65802 -0.08805,-0.20877 -0.196806,-0.40644 -0.328439,-0.5912 -0.189284,-0.26567 -0.41556,-0.5092 -0.672174,-0.73021 -0.256613,-0.22103 -0.543533,-0.41974 -0.854436,-0.59568 -0.310904,-0.17594 -0.6458,-0.32904 -0.997952,-0.45947 -0.352152,-0.13044 -0.721528,-0.23813 -1.101887,-0.32262 a 3.8510935,3.8510935 0 0 1 -0.165466,0.10126 3.8510935,3.8510935 0 0 1 -0.346399,0.16763 3.8510935,3.8510935 0 0 1 -0.361531,0.13205 3.8510935,3.8510935 0 0 0 -3.46e-4,0 3.8510935,3.8510935 0 0 1 -0.372839,0.0951 3.8510935,3.8510935 0 0 1 -0.380656,0.0573 3.8510935,3.8510935 0 0 1 -0.384479,0.0194 3.8510935,3.8510935 0 0 1 -0.384481,-0.0194 3.8510935,3.8510935 0 0 1 -0.380655,-0.0573 3.8510935,3.8510935 0 0 1 -0.3728376,-0.0951 3.8510935,3.8510935 0 0 1 -0.3615325,-0.13205 3.8510935,3.8510935 0 0 1 -1.701e-4,0 3.8510935,3.8510935 0 0 1 -0.3465637,-0.16763 3.8510935,3.8510935 0 0 1 -0.1652997,-0.10126 z"
       id="path1031"
       inkscape:connector-curvature="0" />
    <rect
       style="opacity:1;fill:none;fill-opacity:1;stroke:#000000;stroke-width:1.85208333;stroke-linecap:square;stroke-linejoin:round;stroke-miterlimit:10;stroke-dasharray:none;stroke-opacity:1;paint-order:stroke fill markers"
       id="rect1036"
       width="5.8606238"
       height="5.8606238"
       x="21.684237"
       y="277.13635" />
  </g>
</svg>
