<?xml version="1.0" encoding="UTF-8" standalone="no"?>
<svg
   xmlns:dc="http://purl.org/dc/elements/1.1/"
   xmlns:cc="http://creativecommons.org/ns#"
   xmlns:rdf="http://www.w3.org/1999/02/22-rdf-syntax-ns#"
   xmlns:svg="http://www.w3.org/2000/svg"
   xmlns="http://www.w3.org/2000/svg"
   xmlns:sodipodi="http://sodipodi.sourceforge.net/DTD/sodipodi-0.dtd"
   xmlns:inkscape="http://www.inkscape.org/namespaces/inkscape"
   width="128"
   height="128"
   viewBox="0 0 33.866666 33.866668"
   version="1.1"
   id="svg8"
   sodipodi:docname="usbguard.svg"
   inkscape:version="0.92.3 (2405546, 2018-03-11)">
  <sodipodi:namedview
     pagecolor="#ffffff"
     bordercolor="#666666"
     borderopacity="1"
     objecttolerance="10"
     gridtolerance="10"
     guidetolerance="10"
     inkscape:pageopacity="0"
     inkscape:pageshadow="2"
     inkscape:window-width="1920"
     inkscape:window-height="1018"
     id="namedview7"
     showgrid="false"
     inkscape:zoom="11.313709"
     inkscape:cx="58.467364"
     inkscape:cy="59.11689"
     inkscape:window-x="0"
     inkscape:window-y="25"
     inkscape:window-maximized="1"
     inkscape:current-layer="svg8" />
  <defs
     id="defs2" />
  <metadata
     id="metadata5">
    <rdf:RDF>
      <cc:Work
         rdf:about="">
        <dc:format>image/svg+xml</dc:format>
        <dc:type
           rdf:resource="http://purl.org/dc/dcmitype/StillImage" />
        <dc:title />
      </cc:Work>
    </rdf:RDF>
  </metadata>
  <path
     style="display:inline;fill:none;fill-opacity:1;stroke:#000000;stroke-width:2.64583325;stroke-linejoin:miter;stroke-miterlimit:4;stroke-dasharray:none;stroke-opacity:1"
     d="m 16.933333,2.6236139 c 0,0 -3.888442,2.9446529 -6.077665,3.6602416 -2.2669362,0.7409904 -6.6223345,0.5953124 -6.6223345,0.5953124 0,0 1.3357812,10.9308061 3.7207031,15.0616121 2.3849224,4.130804 8.9792964,9.302275 8.9792964,9.302275 0,0 6.594376,-5.171471 8.979297,-9.302275 2.384922,-4.130806 3.720703,-15.0616121 3.720703,-15.0616121 0,0 -4.355398,0.145678 -6.622335,-0.5953124 C 20.821775,5.5682668 16.933333,2.6236139 16.933333,2.6236139 Z"
     id="path945" />
  <path
     style="stroke:#000000;stroke-width:1.05833334;stroke-miterlimit:4;stroke-dasharray:none;stroke-opacity:1;fill:#000000;fill-opacity:1"
     id="path1334"
     d="m 16.933701,7.4785042 -1.23007,2.1300161 0.877473,-8e-7 -2e-6,10.8871085 -2.239628,-2.119844 c -0.144592,-0.180417 -0.246087,-0.416426 -0.251665,-0.659266 -1e-6,-0.982274 -2.56e-4,-1.565595 -6.67e-4,-1.780312 0.414675,-0.145508 0.713964,-0.536498 0.713965,-1.001262 -4e-6,-0.587957 -0.477105,-1.065117 -1.065283,-1.065113 -0.588431,-5e-6 -1.065375,0.477103 -1.065373,1.065113 -3e-6,0.464767 0.299128,0.855719 0.713458,1.00126 l -3.03e-4,1.759456 c -8e-6,0.476862 0.261627,0.976529 0.568332,1.294563 -0.0092,-0.0086 -0.01877,-0.01776 1.69e-4,5.14e-4 0.0077,0.0068 2.375939,2.249084 2.375939,2.249084 0.144402,0.180016 0.245213,0.415927 0.250985,0.658581 l 1e-6,1.231596 c -0.813615,0.163252 -1.426606,0.881734 -1.42661,1.743578 0,0.982614 0.796503,1.779119 1.778823,1.779119 0.982617,0 1.779165,-0.796503 1.779165,-1.779121 0,-0.862016 -0.613501,-1.580497 -1.4278,-1.743746 l -3e-6,-1.21002 c 1.33e-4,-0.0031 2.21e-4,-0.0062 -4e-6,-0.0092 l 1e-6,-2.676313 c 0.0062,-0.242168 0.107103,-0.477789 0.251666,-0.657645 0,0 2.368191,-2.241843 2.375852,-2.248783 0.01897,-0.01801 0.0092,-0.0089 1.75e-4,-1.78e-4 0.306691,-0.318012 0.568125,-0.817919 0.568125,-1.294861 l -3.83e-4,-1.695601 0.714176,-4e-6 -2e-6,-2.130562 h -2.130362 l 1e-6,2.130571 0.713242,-3e-6 c 0,0 -8.21e-4,0.446589 -8.19e-4,1.716375 -0.0056,0.242858 -0.106892,0.479155 -0.251496,0.659477 l -2.240064,2.120309 -2e-6,-8.2246854 0.878873,-9e-7 z" />
  <ellipse
     style="opacity:1;fill:#000000;fill-opacity:1;stroke:none;stroke-width:1.32291675;stroke-linecap:round;stroke-linejoin:miter;stroke-miterlimit:4;stroke-dasharray:none;stroke-opacity:1;paint-order:fill markers stroke"
     id="path816"
     cx="20.112986"
     cy="16.563847"
     rx="0.22375895"
     ry="0.21652426" />
  <ellipse
     style="opacity:1;fill:#000000;fill-opacity:1;stroke:none;stroke-width:1.32291675;stroke-linecap:round;stroke-linejoin:miter;stroke-miterlimit:4;stroke-dasharray:none;stroke-opacity:1;paint-order:fill markers stroke"
     id="path818"
     cx="13.818278"
     cy="19.165756"
     rx="0.31419271"
     ry="0.3028239" />
</svg>
