<?xml version="1.0" encoding="UTF-8" standalone="no"?>
<!-- Created with Inkscape (http://www.inkscape.org/) -->

<svg
   xmlns:dc="http://purl.org/dc/elements/1.1/"
   xmlns:cc="http://creativecommons.org/ns#"
   xmlns:rdf="http://www.w3.org/1999/02/22-rdf-syntax-ns#"
   xmlns:svg="http://www.w3.org/2000/svg"
   xmlns="http://www.w3.org/2000/svg"
   xmlns:sodipodi="http://sodipodi.sourceforge.net/DTD/sodipodi-0.dtd"
   xmlns:inkscape="http://www.inkscape.org/namespaces/inkscape"
   version="1.0"
   width="128"
   height="128"
   viewBox="0 0 128 128"
   id="Layer_1"
   xml:space="preserve"
   sodipodi:docname="usbguard.svg"
   inkscape:version="0.92.3 (2405546, 2018-03-11)"><metadata
   id="metadata7"><rdf:RDF><cc:Work
       rdf:about=""><dc:format>image/svg+xml</dc:format><dc:type
         rdf:resource="http://purl.org/dc/dcmitype/StillImage" /><dc:title /></cc:Work></rdf:RDF></metadata><sodipodi:namedview
   pagecolor="#ffffff"
   bordercolor="#666666"
   borderopacity="1"
   objecttolerance="10"
   gridtolerance="10"
   guidetolerance="10"
   inkscape:pageopacity="0"
   inkscape:pageshadow="2"
   inkscape:window-width="1920"
   inkscape:window-height="1018"
   id="namedview5"
   showgrid="false"
   inkscape:pagecheckerboard="true"
   inkscape:zoom="32"
   inkscape:cx="55.172241"
   inkscape:cy="80.365628"
   inkscape:window-x="0"
   inkscape:window-y="25"
   inkscape:window-maximized="1"
   inkscape:current-layer="Layer_1" /><defs
   id="defs1337" />
<path
   d="m 118.75984,64.002272 -12.44832,-7.18881 v 5.128147 H 42.684732 L 55.073588,48.85268 c 1.054339,-0.845113 2.433836,-1.437961 3.85289,-1.470801 5.740646,0 9.14971,-0.0015 10.404567,-0.004 0.850593,2.423387 3.1354,4.172575 5.851609,4.172575 3.436176,0 6.224784,-2.788351 6.224784,-6.225775 0,-3.438916 -2.788354,-6.226272 -6.224784,-6.226272 -2.716209,0 -5.001016,1.748192 -5.851609,4.169589 l -10.282664,-0.0017 c -2.786858,0 -5.707063,1.529015 -7.565715,3.32149 0.05076,-0.05324 0.103493,-0.109961 -0.003,9.31e-4 -0.03931,0.04428 -13.144158,13.885531 -13.144158,13.885531 -1.052101,0.843868 -2.430851,1.432985 -3.848909,1.466819 h -7.19779 c -0.95408,-4.754946 -5.153026,-8.33741 -10.189871,-8.33741 -5.742639,0 -10.3976027,4.654964 -10.3976027,10.395862 0,5.74264 4.6549637,10.397852 10.3976037,10.397852 5.037839,0 9.236786,-3.585449 10.190864,-8.344404 h 7.071635 c 0.01816,0 0.03633,9.31e-4 0.05473,0 h 15.641187 c 1.415322,0.03608 2.792331,0.625937 3.843435,1.4708 0,0 13.101865,13.840251 13.142415,13.885031 0.104986,0.111206 0.05271,0.05324 8.46e-4,9.31e-4 1.858652,1.792226 4.780102,3.320246 7.567458,3.320246 l 9.909493,-0.0022 v 4.173818 H 96.972589 V 76.451186 H 84.521041 v 4.168345 c 0,0 -2.609979,-0.0047 -10.030904,-0.0047 -1.419296,-0.0326 -2.800293,-0.624693 -3.854131,-1.469807 L 58.244567,66.05373 h 48.066953 v 5.136357 z"
   id="path1334"
   inkscape:connector-curvature="0"
   style="stroke:#000000;stroke-width:5.079;stroke-miterlimit:4;stroke-dasharray:none;stroke-opacity:1" />
<ellipse
   style="opacity:1;fill:#000000;fill-opacity:1;stroke:none;stroke-width:10;stroke-linecap:square;stroke-linejoin:round;stroke-miterlimit:10;stroke-dasharray:none;stroke-opacity:1;paint-order:stroke fill markers"
   id="path7"
   cx="66.589569"
   cy="81.678978"
   rx="1.9887378"
   ry="2.0716019" /><ellipse
   style="opacity:1;fill:#000000;fill-opacity:1;stroke:none;stroke-width:10;stroke-linecap:square;stroke-linejoin:round;stroke-miterlimit:10;stroke-dasharray:none;stroke-opacity:1;paint-order:stroke fill markers"
   id="path7-3"
   cx="65.639397"
   cy="80.502312"
   rx="1.9887378"
   ry="2.0716019" /><ellipse
   style="opacity:1;fill:#000000;fill-opacity:1;stroke:none;stroke-width:10;stroke-linecap:square;stroke-linejoin:round;stroke-miterlimit:10;stroke-dasharray:none;stroke-opacity:1;paint-order:stroke fill markers"
   id="path7-3-6"
   cx="51.025196"
   cy="46.3284"
   rx="1.9887378"
   ry="2.0716019" /><ellipse
   style="opacity:1;fill:#000000;fill-opacity:1;stroke:none;stroke-width:10;stroke-linecap:square;stroke-linejoin:round;stroke-miterlimit:10;stroke-dasharray:none;stroke-opacity:1;paint-order:stroke fill markers"
   id="path7-3-6-7"
   cx="49.845505"
   cy="47.594227"
   rx="1.9887378"
   ry="2.0716019" /></svg>