<?xml version="1.0" encoding="UTF-8" standalone="no"?>
<svg
   xmlns:dc="http://purl.org/dc/elements/1.1/"
   xmlns:cc="http://creativecommons.org/ns#"
   xmlns:rdf="http://www.w3.org/1999/02/22-rdf-syntax-ns#"
   xmlns:svg="http://www.w3.org/2000/svg"
   xmlns="http://www.w3.org/2000/svg"
   width="128"
   height="128"
   viewBox="0 0 33.866666 33.866666"
   version="1.1"
   id="svg8">
  <defs
     id="defs2" />
  <metadata
     id="metadata5">
    <rdf:RDF>
      <cc:Work
         rdf:about="">
        <dc:format>image/svg+xml</dc:format>
        <dc:type
           rdf:resource="http://purl.org/dc/dcmitype/StillImage" />
        <dc:title></dc:title>
      </cc:Work>
    </rdf:RDF>
  </metadata>
  <g
     style="fill:#000000"
     id="layer1"
     transform="translate(0,-263.13335)">
    <g
       style="fill:#000000"
       transform="matrix(0.03041439,0,0,0.03041439,-2.5318751,290.49882)"
       id="layer1-3">
      <path
         style="display:inline;opacity:1;fill:#000000;fill-opacity:1;stroke-width:0.03041439"
         d="M 64,4.2148438 A 59.785998,59.785998 0 0 0 4.2148438,64 59.785998,59.785998 0 0 0 64,123.78516 59.785998,59.785998 0 0 0 123.78516,64 59.785998,59.785998 0 0 0 64,4.2148438 Z m 0,24.4882812 a 21.459254,21.459254 0 0 1 2.142578,0.107422 21.459254,21.459254 0 0 1 2.121094,0.320312 21.459254,21.459254 0 0 1 2.078125,0.53125 21.459254,21.459254 0 0 1 2.015625,0.734375 21.459254,21.459254 0 0 1 1.93164,0.933594 21.459254,21.459254 0 0 1 1.828126,1.121094 21.459254,21.459254 0 0 1 1.707031,1.298828 21.459254,21.459254 0 0 1 1.570312,1.460938 21.459254,21.459254 0 0 1 1.416016,1.611328 21.459254,21.459254 0 0 1 1.246094,1.746093 21.459254,21.459254 0 0 1 1.068359,1.859375 21.459254,21.459254 0 0 1 0.875,1.958985 21.459254,21.459254 0 0 1 0.677734,2.035156 21.459254,21.459254 0 0 1 0.46875,2.09375 21.459254,21.459254 0 0 1 0.259766,2.128906 21.459254,21.459254 0 0 1 0.05273,1.517578 21.459254,21.459254 0 0 1 -0.107422,2.142579 21.459254,21.459254 0 0 1 -0.320312,2.121093 21.459254,21.459254 0 0 1 -0.53125,2.078125 21.459254,21.459254 0 0 1 -0.734375,2.015625 21.459254,21.459254 0 0 1 -0.933594,1.931641 21.459254,21.459254 0 0 1 -1.121093,1.828125 21.459254,21.459254 0 0 1 -1.298829,1.707031 21.459254,21.459254 0 0 1 -1.460937,1.570313 21.459254,21.459254 0 0 1 -1.611328,1.416015 21.459254,21.459254 0 0 1 -1.746094,1.246094 21.459254,21.459254 0 0 1 -1.859375,1.068359 21.459254,21.459254 0 0 1 -1.958984,0.875 21.459254,21.459254 0 0 1 -2.035157,0.677735 21.459254,21.459254 0 0 1 -2.09375,0.46875 21.459254,21.459254 0 0 1 -2.128906,0.259765 A 21.459254,21.459254 0 0 1 64,71.621094 21.459254,21.459254 0 0 1 61.857422,71.513672 21.459254,21.459254 0 0 1 59.736328,71.193359 21.459254,21.459254 0 0 1 57.658203,70.662109 21.459254,21.459254 0 0 1 55.642578,69.927734 21.459254,21.459254 0 0 1 53.710938,68.994141 21.459254,21.459254 0 0 1 51.882812,67.873047 21.459254,21.459254 0 0 1 50.175781,66.574219 21.459254,21.459254 0 0 1 48.605469,65.113281 21.459254,21.459254 0 0 1 47.189453,63.501953 21.459254,21.459254 0 0 1 45.943359,61.755859 21.459254,21.459254 0 0 1 44.875,59.896484 21.459254,21.459254 0 0 1 44,57.9375 21.459254,21.459254 0 0 1 43.322266,55.902344 21.459254,21.459254 0 0 1 42.853516,53.808594 21.459254,21.459254 0 0 1 42.59375,51.679688 21.459254,21.459254 0 0 1 42.541016,50.162109 21.459254,21.459254 0 0 1 42.648438,48.019531 21.459254,21.459254 0 0 1 42.96875,45.898438 21.459254,21.459254 0 0 1 43.5,43.820312 21.459254,21.459254 0 0 1 44.234375,41.804688 21.459254,21.459254 0 0 1 45.167969,39.875 a 21.459254,21.459254 0 0 1 1.121093,-1.830078 21.459254,21.459254 0 0 1 1.298829,-1.707031 21.459254,21.459254 0 0 1 1.460937,-1.570313 21.459254,21.459254 0 0 1 1.611328,-1.414062 21.459254,21.459254 0 0 1 1.746094,-1.248047 21.459254,21.459254 0 0 1 1.859375,-1.06836 21.459254,21.459254 0 0 1 1.958984,-0.875 21.459254,21.459254 0 0 1 2.035157,-0.677734 21.459254,21.459254 0 0 1 2.09375,-0.46875 21.459254,21.459254 0 0 1 2.128906,-0.259766 A 21.459254,21.459254 0 0 1 64,28.703125 Z M 49.837891,72.716797 a 27.112317,27.112317 0 0 0 1.164062,0.712891 27.112317,27.112317 0 0 0 2.439453,1.179687 27.112317,27.112317 0 0 1 0.002,0 27.112317,27.112317 0 0 0 2.544922,0.929687 27.112317,27.112317 0 0 0 2.625,0.669922 27.112317,27.112317 0 0 0 2.679688,0.404297 A 27.112317,27.112317 0 0 0 64,76.75 a 27.112317,27.112317 0 0 0 2.707031,-0.136719 27.112317,27.112317 0 0 0 2.679688,-0.404297 27.112317,27.112317 0 0 0 2.625,-0.669922 27.112317,27.112317 0 0 1 0.002,0 27.112317,27.112317 0 0 0 2.544922,-0.929687 27.112317,27.112317 0 0 0 2.439453,-1.179687 27.112317,27.112317 0 0 0 1.164062,-0.712891 c 2.677796,0.594934 5.278607,1.353205 7.757813,2.271484 2.479206,0.918279 4.836582,1.995734 7.02539,3.234375 2.188809,1.238642 4.20902,2.637337 6.015626,4.19336 1.806605,1.556022 3.399835,3.270203 4.732425,5.140625 0.9267,1.30071 1.69266,2.69244 2.3125,4.162109 0.61984,1.469669 1.09357,3.017276 1.43359,4.632812 a 54.526103,54.526103 0 0 1 -0.72851,1.017579 54.526103,54.526103 0 0 1 -3.59571,4.093749 54.526103,54.526103 0 0 1 -3.98828,3.71484 54.526103,54.526103 0 0 1 -4.339844,3.29883 54.526103,54.526103 0 0 1 -4.646484,2.84961 54.526103,54.526103 0 0 1 -4.90625,2.3711 54.526103,54.526103 0 0 1 -5.121094,1.86718 54.526103,54.526103 0 0 1 -5.28125,1.34961 54.526103,54.526103 0 0 1 -5.388672,0.81446 A 54.526103,54.526103 0 0 1 64,118 a 54.526103,54.526103 0 0 1 -5.443359,-0.27148 54.526103,54.526103 0 0 1 -5.388672,-0.81446 54.526103,54.526103 0 0 1 -5.28125,-1.34961 54.526103,54.526103 0 0 1 -5.121094,-1.86718 54.526103,54.526103 0 0 1 -4.90625,-2.3711 54.526103,54.526103 0 0 1 -4.646484,-2.84961 54.526103,54.526103 0 0 1 -4.339844,-3.29883 54.526103,54.526103 0 0 1 -3.988281,-3.71484 54.526103,54.526103 0 0 1 -3.595704,-4.093749 54.526103,54.526103 0 0 1 -0.728515,-1.017579 c 0.340022,-1.615536 0.813751,-3.163143 1.433594,-4.632812 0.619843,-1.469669 1.3858,-2.861399 2.3125,-4.162109 1.332593,-1.870422 2.925817,-3.584603 4.732421,-5.140625 1.806605,-1.556023 3.826816,-2.954718 6.015626,-4.19336 2.188809,-1.238641 4.546184,-2.316096 7.02539,-3.234375 2.479206,-0.918279 5.080017,-1.67655 7.757813,-2.271484 z"
         id="path849"
         transform="matrix(8.6992813,0,0,8.6992813,83.24596,-899.75403)" />
    </g>
  </g>
</svg>
