<?xml version="1.0" encoding="UTF-8"?>
<svg width="128" height="128" version="1.1" viewBox="0 0 34 34" xmlns="http://www.w3.org/2000/svg">
 <path id="world" transform="scale(.27)" d="m71 18c-0.16-3.7e-4 -0.32-1e-3 -0.49 2e-3 -0.43 0.0052-0.87 0.02-1.3 0.045-0.76 0.044-1.9 0.1-2.5 0.12-2.2-0.034-5.3 0.49-7.1 0.5-1.1-0.56-2.6-0.41-3.6-0.41-2.4-0.088-4.8 0.29-7 0.42-2.2 0.2-1.9 0.13-2.7 0.37-1.1 0.41-2.3 0.16-1.4 1.4 1.7 0.38 0.98 0.5 0.71 0.79-0.98 0.32-1.4 0.056-2.2 0.045-0.35-0.3-1.6 0.15-1.3 0.16 0.056 0.7-0.76 0.75-0.63 0.02-0.74 0.17-1.1 0.2-2.6-0.037-0.2 0.075-0.48 0.36-0.35 0.36 0.37 0.34 1.4 0.62 1.6 0.61 1-0.43 1 0.12 1.1 0.28l-0.055 0.068c-0.23-0.032-1.3 0.22-1.4 0.36-0.15 0.072-0.26 0.17-0.35 0.27 0.019-0.092 0.026-0.19 0.0098-0.29l-0.02 0.039c-1.2 0.16-1.3 0.055-1.9 0.24-0.052 0.73-0.65 0.18-1.2 0.43-0.25 0.47 0.55 0.42 0.55 0.82 0.21 0.14 0.47 0.15 0.75 0.11-0.084 0.065-0.19 0.16-0.26 0.19-1.2 0.47-1.9 0.86-2.3 1.4-0.18 0.19-0.26 0.2-1.2 0.21-1.3-0.045-1.7-0.34-0.22-0.47 0.29-0.32 1.4-0.53 1.5-0.87-0.0019-0.088-0.35-0.28-0.77-0.42-0.42-0.31 1.4-1.6 1.5-1.7-0.13-0.18-2 0.24-2.2 0.35-0.82 1.1-0.23 0.39-0.53 0.061-0.38-0.11-0.84-0.038-1.3-0.057-0.0022 0.0033-0.0056 0.0065-0.0078 0.0098-0.027 0.24-0.058 0.48-0.059 0.67 0.09-0.1 0.17-0.21 0.26-0.31 0.22-0.23-0.24 0.59-0.36 0.88-0.093 0.097-0.18 0.21-0.26 0.31-0.0047 9e-3 -0.0089 0.018-0.014 0.027 0.054-0.021 0.11-0.043 0.16-0.064 0.05-0.02 0.054-0.014 0.029 0.012 0.34-0.38 0.69-0.78 0.42-0.43-0.37 0.47-0.66 0.77-0.91 1 0.5 4-2.7 5.8-5.2 4.3-0.15 0.12-0.3 0.25-0.46 0.37-0.13 0.64-0.72 0.65-1.1 0.85-0.027 0.023-0.054 0.048-0.082 0.07-0.34 1.1-0.71 1.7-0.99 1.2 0.013-0.024 0.028-0.048 0.039-0.072-0.019 0.012-0.041 0.018-0.061 0.027-0.021-0.046-0.042-0.082-0.062-0.14-0.27 0.49-0.73 0.85-1.3 1.2-0.2 0.89-0.64 1.9-1.4 2.9-0.73 1-0.049 0.044-0.29 0.43-0.086 0.14-0.18 0.27-0.28 0.4-0.0011 0.0014-0.0028 0.0025-0.0039 0.0039-0.12 0.29-0.25 0.58-0.39 0.86-0.063 0.19-0.14 0.38-0.21 0.54 0.0019 0.0026 0.0067-0.01 0.0078-0.0039-0.13 0.42-0.19 0.7-0.4 1.1-0.1 0.2-0.22 0.39-0.33 0.58 0.03-0.051 0.067-0.11 0.061-0.082-0.035 0.19-0.27 0.48-0.12 0.29-0.014 0.051-0.063 0.2-0.041 0.15 0.031-0.069 0.086-0.29 0.068-0.22-0.13 0.57-0.29 1.2-0.54 1.7-0.063 0.14-0.13 0.27-0.2 0.4 0.0033 3e-3 0.0064-0.0034 0.0098 2e-3 0.065 0.1-0.081 0.23-0.12 0.35-0.084 0.24-0.13 0.37-0.21 0.61-0.03 0.09-0.051 0.18-0.088 0.27-0.11 0.27-0.24 0.53-0.35 0.79 0.041-0.081 0.082-0.16 0.12-0.24 0.0039-6.5e-5 0.013-4e-3 0.012 0-0.12 0.56-0.31 1.1-0.52 1.6-0.015 0.058-0.023 0.099-0.037 0.15-0.084 0.3-0.2 0.59-0.32 0.87-9.2e-4 0.0026-9.5e-4 0.0092-2e-3 0.012-0.075 0.21-0.18 0.43-0.29 0.65-0.012 0.14-0.038 0.28-0.07 0.41-0.035 0.52-0.21 1-0.67 1.7-0.066 0.26-0.089 0.26-0.066 0.098-0.085 0.12-0.13 0.22-0.24 0.36-0.41 0.54-2.1 1.7-1.7 1.1 1.4-2 1.8-2.1 1.9-1.9 0.096-0.13 0.21-0.29 0.32-0.46 0.042-0.15 0.085-0.3 0.15-0.52-0.21 0.3-0.14 0.17 0.059-0.21 0.074-0.25 0.049-0.19 0.15-0.52-0.12-1.1 0.012-0.5-0.55-1.9-0.2-0.49-0.38-0.82-0.56-1.1-0.033 0.07-0.057 0.14-0.092 0.21-0.012 0.025-0.025 0.049-0.037 0.074-0.14 0.46-0.63 1.4-0.54 1.3-0.18 0.4-0.045 0.091-0.37 0.69 0.0043-0.0054 0.011-0.0057 0.018-0.0078 0.017-0.025 0.019-0.033 0.031-0.047 0.01-0.011-0.0095 0.024-0.018 0.041 0.0025 2.8e-4 0.0031-0.0027 0.0059-2e-3 0.082 0.021-0.017 0.17-0.045 0.25-0.22 0.63-0.33 0.93-0.44 1.2 0.031-0.062 0.064-0.15 0.09-0.18 0.043-0.051-0.037 0.13-0.059 0.19-0.06 0.18-0.12 0.35-0.19 0.53 0.056-0.2-0.042 0.097-0.13 0.35 0.013 0.0064-0.012 0.12-0.021 0.19-0.1 0.66-0.086 0.52-0.26 1.2-0.12 0.24-0.13 0.52-0.23 0.77-0.11 0.28-0.24 0.55-0.36 0.83v2e-3c-0.036 0.23-0.082 0.45-0.12 0.68-0.0052 0.03-0.0017 0.062-0.0098 0.092-0.075 0.28-0.16 0.55-0.24 0.83 0.0022 0.0039 0.0037 0.0079 0.0059 0.012 0.0094-0.036 0.019-0.072 0.029-0.11-0.0048 0.044-0.011 0.088-0.016 0.13 0.22 0.39 0.3 0.69 0.018 0.69 0.012 0.067 0.019 0.14 0.027 0.21-0.027-0.14-0.067-0.27-0.12-0.4-0.0013 0.0072-0.0026 0.014-0.0039 0.021 0.04 0.062 0.06 0.22 0.066 0.4 0.0042 0.011 0.0093 0.02 0.014 0.031 0.018 0.0017 0.031 3e-4 0.047 0 5e-3 0.045 0.015 0.091 0.018 0.13 0.045 0.2 0.087 0.37 0.14 0.7 0.0017 0.011-0.0029 0.02-2e-3 0.031 0.0098 0.023 0.016 0.032 0.025 0.057 0.06 0.14 0.076 0.28 0.084 0.44 0.77 0.91 1.6 1.6 1.6 2.8 0.019 0.6-0.38 0.78-0.07 1.3 0.67 0.73 2.8 2.1 3.4 2.2 1.4 0.82 1.6 0.47 2.7 0.33 0.34 0 0.76 0.27 1.1 0.7 0.52 0.69 0.77 0.9 1.3 0.97 1.4 0.33 2.8 1.4 2.9 2.4 0.51 0.2 1.4 1.6 1.4 1.6 0.89 0.2 1.6 1.1 2 0.86 0.19-0.98 0.75-1.2 1.6-0.096 0.53 0.88 0.33 3.1-0.27 3.4-0.55 0.31-0.35 0.94-0.83 1.1-0.69 0.012-0.74 2.3-0.91 2.3 0.13 0.73 0.093 0.69 0.086 1.2-0.63 0.23-0.096 1.8 0.23 2 0.68 0.49 1.2 1.4 1.5 2.2 0.14 0.43 1.7 3 1.7 3 0.37 2.1 3.6 2.3 4.2 3.9 0.14 1.3 0.61 6.1 0.36 7 0.33 2.1 0.68 3.1 0.46 5.4-0.28 1.1 0.28 2.7 0.59 4-0.01-5.9e-4 -0.038-8.8e-4 -0.047-2e-3v2e-3c0.016 6.6e-4 0.031 8.5e-4 0.047 2e-3 0.0094 0.039 0.022 0.088 0.031 0.13 0.11 0.01 0.21 0.021 0.35 0.043 0.0021 1.6e-4 0.0018-1.5e-4 0.0039 0 0.36 0.059 0.89 0.16 2 0.29-0.071-0.07-0.048-0.068 0.076 0.012 0.029 4e-3 0.047 9e-3 0.066 0.012 0.062 0.044 0.12 0.088 0.18 0.13 0.017 3e-3 0.05 7e-3 0.064 0.01 0.056 0.011 0.11 0.037 0.16 0.051-0.056-0.038-0.086-0.059-0.14-0.096 0.37 0.16 0.75 0.3 1.1 0.52 0.11 0.067 0.3 0.21 0.46 0.31 0.32 0.19 0.65 0.38 0.98 0.54 0.076 0.083 0.15 0.17 0.22 0.26 0.069 0.047 0.11 0.08 0.17 0.12 0.068-0.6-0.13-1.2 0.63-1.5-0.37-1.3-1.1-0.15-1.1-1.4 1.3 0.62 2.1-0.21 1.4-1.1-0.37-0.43 2.1 0.24 2.4-0.97 0.24-0.81-0.13-2-0.85-2.3-0.23-0.061-0.45-0.58-0.18-0.33 1.7 0.31 2.4 1.1 2.8-0.44 0.28-0.91 1.3-1.8 1.5-2.5 0.098-0.44 0.35-0.92 0.55-1.1 0.45-0.44-0.098-2.4 0.12-2.4 1.3-0.88 1.8-1.7 3.3-1.7 0.36 0.042 1.1-0.78 1.1-0.94 0.23-0.21 0.74-2.6 0.75-2.7 0.46-0.49-0.12-3.6 0.42-3.6 0.4-0.98 1.7-2.1 2.1-3 0.23-0.98 0.09-1.8-0.28-2.6-0.98-0.19-1.3-0.37-1.8-0.83-1.8-0.87-3.1-1.1-4.4-2.1-0.66 0.16-1.8-0.58-2.4-0.78-0.69-0.38-1.4-1.8-1.4-2.7-0.041-0.6-2.1-2-3.1-1.7-1.3 0.093-1.4-0.79-1.8-1.3-0.3-0.42-1.5-0.64-1.3-0.89-0.47-0.48 0.17-1.5-0.12-1.4-1.3 0.28-1.4-0.078-2.3 0.46-0.17-0.36-2.3-0.13-2.3-0.45-0.6-0.7-0.94-1.2-1.2-0.98-0.3 1.1-0.98 1.3-0.73-0.098-0.38-0.0063-1.8 0.98-2.2 0.92-0.34-0.085-0.8 0.6-0.72 1.1-0.16 0.26-0.9 0.59-0.85 0.88-0.71-0.43-1.2-1.1-2.1-0.62-1.2 0.62-1.6-0.14-2.1-1.3 0.025-0.54 0.4-2.5 0.6-2.8-0.0067-0.54-1.5-0.98-1.9-0.78-0.49 0.19-1.3-0.017-1.7 0.029-0.074-1.3 1.5-2.7 1.7-3.6h2e-3c1.5-0.38 1.4-0.22 2.3-0.19 0.97 0.26 1.8 0.81 1.8 1.5-0.054 0.14 1.7 0.097 2.1-0.047l0.24-0.098c-0.34-0.18-1.1-0.73-1.3-0.79-0.35-0.11-0.85-0.53-0.85-0.72 0-0.054-0.026-0.073-0.055-0.045-0.62 0.078-1.4-0.58-2.3-0.64h-0.0039c-0.15 9.7e-4 -0.28 0.015-0.38 0.043-0.14 0.038-0.43 0.12-0.65 0.17-0.3 0.065-0.67 0.32-0.85 0.54-0.25-0.33-2-0.066-2.3 0.36-0.89 2.3-2.3 1.8-3.4 1.5-0.39-0.21-1.1-2.1-0.98-2.6 0.47-1.9 1.1-3.8 2.3-4.5 0.65-0.45 2.2-0.98 2.8-0.47 2.5 0.33 1.7-1.4 3.5-0.59 1.3 1.2 1.6-0.52 1.6 1.4-0.067 0.13-0.12 0.32-0.098 0.43 0.13 0.86 0.45 1.6 0.98 2 1.1-0.091 0.51-2.7 0.44-3-0.29-1.1 0.44-2.1 1.3-2.5 0.39-0.29 1.9-1.4 2.3-1.5 1.3-1.2 2-2.2 1.9-3-0.024-0.15-0.0076-0.29 0.035-0.32 0.043-0.027 0.078 0.0096 0.078 0.082 0 0.19 0.055 0.17 0.45-0.16 0.2-0.16 0.4-0.42 0.46-0.58 0.098-0.26 0.16-0.29 0.59-0.38 0.59-0.12 1.1-0.32 0.8-0.34 1.6-0.06 1.1-0.92 1.1-0.97 0.33-0.58 0.85-0.9 1.4-1.1 0.92 0.011 1.9-1.2 2.7-0.96-0.32 0.43-1.6 0.66-0.98 1.2 1.3 0.19 1.8-0.91 3.1-1.1 0.33-0.36 0.97-0.45 0.98-0.7-0.47-0.18 0.04-0.43-0.15-0.62-1.4 0.81-2 0.44-2.5-0.023 0.38-0.62 1.1-1.6 0.2-1.6-0.8 0.27-0.47 0.053-0.73-0.21 0.67-0.63 1.8-0.42 2.4-0.42 2.3 0.29 2.4-0.83 3.5-0.84 0.47-0.062 0.064 0.19-0.12 0.37-1.7 1.8-2.5 2.3-1.1 2.3 2.2 0.085 2 0.066 1.9 0.21-0.097 1.3 1.1-0.15 0.88-0.55-0.38 0.051-0.58-0.51-0.13-0.74 0.17-0.23-0.1-0.29-0.092-0.49-0.79 0.39-0.72-0.23-1.3-0.33 0.63-0.57 0.52-0.25 0.77-0.74-0.72-0.21 0.16-0.4 0.32-0.98 0.065-0.98-0.63-1.7-1.7-1.8-7e-4 -1.4-0.59-2-0.42-3.6 0.028 0.21-0.82 0.7-0.92 0.79-0.28 0.25-1.2 0.96-1.6 0.7-0.66-0.45-0.46-1.2 0.047-1.6-0.78-0.35-0.81-0.33-1.5-1.1-0.81 0.097-2.3-0.38-2.4 0.49-1.6 1.8-1.3 1.4-1.2 2.7 0 0.21-0.31 0.86-0.49 0.98-0.69 0.5-1.5 0.77-2.3 0.91 0.32 0.98-1.4 3.1-1.5 2.2-1.2-0.28 0.9-2 0.34-2.4-1.4 0.23-2-0.88-2.8-1.2-0.54-0.27-0.89-0.23-1.5-0.13-0.062 7.7e-4 0.032-0.43 0.17-0.78-0.068-0.36-0.82-0.2 0.24-1.5 0.031-7.4e-4 0.28-0.17 0.56-0.37 1.1-0.71 2.3-1.1 3.3-1.8 0.68-0.42 1.2 0.12 1.7 0.11 0.86 0.4 0.17 0.23 1.3-0.014 0.85-0.65 0.74 0.29 1.7-0.0078 0.08-1.2 1.2-2.8 1.9-3.1 0.19-0.76 1.7-0.71 0.98 0.24 1.5-0.24 0.32 0.17 0.5 0.53 1.8-0.22 2-0.033 1.3 0.45 0.33 0.77-3.4 0.79-2.9 1.4 1.5 0.035 2.4-0.37 2.4 0.71 0.35 0.57 3 1.4 2.9 0.98-0.5 0.11-0.79-0.83-0.16-0.72 0.62 0.41 0.51 0.16 0.98-0.33-1.2-1.3-0.25-1.6 0.72-1.1 0.74-0.21 1.5-0.61 2.1-1.1-0.51-0.47-1.9-0.8-2.3-1.3 2-1.5-2.4-1.9-2-2.5 0-0.24-0.29-0.37-0.96-0.42-0.96 0.046-1.6 0.055-2.6-0.072-0.57-0.23-2.2 0.27-2.8 0.89-1.1 0.8-0.71 1.6-0.016 1.3-2.1 2.9-2.1-0.36-2.2-0.98 0.38-0.41 2.9-1.2 2.8-1.3-0.22-0.07-0.43-0.082-0.64-0.09 0.84-0.17 1.3-0.87 1.8-0.82 0.13 0.22-0.76 0.62-0.46 0.71 0.65 0.13 3.4 0.19 3.5 0.08 0.44-0.02 2.2 0.095 2.2-0.5-1.6-0.017-4.8 0.38-3.9-0.34 1.6-0.52 3 0.095 4.3 0.17 0.078-0.23 1.2-0.46 1.2-0.64 0.49-0.59 1.7-0.6 2.1-0.77 0.69-0.43 1.4-0.59 1.9-0.64 1.1-0.29 1.8-0.43 2.8-0.13 0 0.17-0.39 0.28-1.2 0.34-0.52 0.096-3.4 0.11-3.1 0.93 2.2 1.5 1.9 0.26 4.3 0.83 2.1 0.4-0.25 1.8 0.32 2.5-0.38 0.95-0.64 2.1-0.77 2.7 0.36 0.3-0.18 0.8 0.061 1.9-0.15 0.53 0.68 1.6 0.77 2.1 0.88-0.065 1.9 0.93 2.4 0.58 0.23-0.32 0.44-0.63 0.72-0.93 0.39-0.58 0.74-1.1 1.4-1.4 0.066-0.55 0.94-0.93 0.98-1.2 0.61-0.44 1.2 0.21 1.6-0.24 0.84 0.0051 1.8-1.1 2.3-1.2 0.98-0.49 2.4-0.19 3.7-0.79 0.85-0.23 1.6-0.83 2-1.3-0.71-0.86-0.42-0.69 1.4-1.8 0.46-0.18 0.92-0.35 1.3-0.5-0.72-0.75 0.055-0.97 0.023-1.2-0.21-1.9-0.11-1.4 2.7-2.2 0.84-0.15 0.64-0.26-0.55-0.32-1.4 0.058-2.7-0.26-3.8-0.57-0.34-0.11-1.4-0.17-2.4-0.18zm-55 30c-0.029 0.1-0.033 0.12-0.059 0.21 0.03-0.043 0.017-0.02 0.061-0.084 0.06-0.13 0.084-0.2 0.13-0.29 0.0091-0.043 0.016-0.086 0.023-0.13-0.053 0.1-0.11 0.21-0.15 0.29zm-0.21 0.72c-0.0029 0.01-7e-3 0.025-0.0098 0.035 0.031-0.054 0.069-0.11 0.096-0.16-0.03 0.047-0.055 0.081-0.086 0.13zm-0.0098 0.035c-0.087 0.16-0.18 0.31-0.3 0.46-0.0051 0.0055-9.2e-4 0.0025-0.0059 0.0078 0.044 0.14 0.049 0.22 0.029 0.36 0.023-0.034 0.044-0.065 0.066-0.098 0.025-0.099 0.15-0.52 0.21-0.72zm-0.3 0.46c-0.0042-0.013-0.0025-0.033-0.0078-0.045-0.25 0.33-0.37 0.45 0.0078 0.045zm16-24c-0.068 0.071-0.34 0.28-0.45 0.42-0.0066 0.0072-0.011 0.016-0.018 0.023-0.0056 0.0059-0.01 0.0098-0.016 0.016 0.03-0.016 0.047-0.028 0.078-0.045 0.0079-0.0042 0.0036 9.1e-4 0.0098-2e-3 0.093-0.091 0.24-0.25 0.39-0.42zm59-5.6c-0.41 0.0011-0.75 0.052-0.95 0.2-2.4 0.017-2.9 0.15-2.8 0.32 0.43 0.79 0.24 0.57 2.1 1.5 0.49 0.23 0.69 0.22 0.75-0.084 0.43-0.92 2-0.6 1.5-0.34-0.19 0.26 0.46 0.26 0.98 0.15-0.098-0.055-0.2-0.11-0.28-0.2 0.096 0.034 0.2 0.072 0.28 0.11-0.027-0.022-0.056-0.039-0.084-0.059 0.055 0.034 0.069 0.04 0.12 0.068 0.043 0.017 0.09 0.028 0.13 0.045 0.19-0.053 0.33-0.12 0.38-0.2-0.59-0.22-2.4-0.48-1.6-0.74-0.023-0.0077-0.034-0.0066-0.064-0.02-0.011-0.0046-0.041-0.021-0.029-0.018 0.082 0.032 0.092 0.031 0.12 0.033 0.0063-0.0018 0.011-0.0058 0.018-0.0078-8.8e-4 -4.9e-4 -3e-3 -0.0015-0.0039-2e-3 -0.017-0.0089-0.039-0.027-0.055-0.039-6e-3 -0.0057-0.024-0.016-0.02-0.016-0.02-0.017-0.034-0.024-0.062-0.051 0.023 0.018 0.047 0.035 0.07 0.053 0.043 0.0091 0.084 0.027 0.13 0.041 0.047-0.012 0.065-0.024 0.13-0.035-0.018 0.029 0.029 0.048 0.11 0.057 0.26-0.098-0.08-0.41-0.33-0.7-0.15-0.0071-0.29-0.022-0.43-0.021zm-57 1.6c0.0079 0 0.027 0.0037 0.037 0.0039 0.0043 4.9e-5 0.015-0.0021 0.02-2e-3zm0.037 0.0039c-0.27-0.0031-0.89 0.093-1.5 0.21 0.014 0.045 0.026 0.082 0.041 0.13 0.11 0.052 0.15 0.23 0.15 0.49 0.035 0.11 0.08 0.24 0.11 0.34 0.03 0.12 0.044 0.22 0.049 0.33 0.0057 0.0037 0.038 0.014 0.041 0.018 0.33 0.48 1.3 0.12 1.4 0.098 0.52-0.088 1.3-0.18 1.8-0.21 1.1 0.025 2.5-0.72 0.72-0.64 0.32-0.42-0.057-0.44-0.37-0.34-0.73 0.2-0.33 0.57-0.88 0.58-0.63 0.011-0.62-0.39-1.3-0.46-0.85 0.025-0.12-0.32 0.043-0.35 0.47-0.15-0.03-0.19-0.22-0.19zm-3.6 1.8c5.3e-4 0.015 0.0034 0.03 0.0039 0.045 0.0056-0.0055 0.012-0.01 0.018-0.016-0.0073-0.01-0.014-0.019-0.021-0.029zm0.0039 0.045c-0.47 0.46-0.89 0.96-1.2 1.5 0.42-0.27 0.84-0.54 1.3-0.81-0.0058-0.24-0.017-0.45-0.025-0.7zm0.025 0.7c0.012 0.47 0.027 0.93 0.061 1.3 0.011-0.0051 0.024-9e-3 0.035-0.014 0.26-0.37 0.43-0.64 0.63-0.93-0.12-0.19-0.25-0.39-0.39-0.59-0.11 0.074-0.22 0.15-0.34 0.22zm86 0.21-2e-3 2e-3c0.028 0.012 0.058 0.021 0.086 0.033 0.19 0.084 0.13 0.059 0.16 0.072-9e-3 -0.016-0.018-0.03-0.025-0.047-0.067-0.016-0.15-0.047-0.21-0.061zm-85 0.54c-0.0045 0.0045-0.0092 0.0091-0.014 0.014-0.0034 0.037-0.0089 0.087-0.012 0.12 9e-3 -0.042 0.017-0.09 0.025-0.14zm62 0.24 0.26 0.3c-0.067 4.8e-5 -0.13 0.018-0.21 0.072-0.32 0.16-1.6 0.063-1.5 0.33-0.24 0.21-0.77 0.29-0.8 0.27-0.21-0.19-0.74-0.11-0.74 0.11 0 0.12-0.0096 0.13-0.31 0.16-0.49 0.34-1.7 0.37-1.6 0.7 0.0098 0.23-0.67 0.05-0.72 0.35 0.23 0.16 0.38-0.059 0.66-0.12 0.45 0.19-0.5 1.1-0.75 1.2-0.4 0.39-0.8 1.1-0.83 1.1-0.73 0.64-1.1 0.48-1.2 0.62-0.48 0.49-1.1 0.64-1.6 0.91-0.25 0.16-0.25 0.18-0.26 0.79 0.073 0.52 0.15 1.3 0.17 1.3 0.36 0.55 1.1 0.9 1.7 0.55 0.16-0.12 0.44-0.28 0.65-0.38 0.2-0.098 0.36-0.24 0.36-0.32 0.034-0.21 0.32 0.41 0.32 0.48 0.093 0.4 0.37 0.81 0.62 1.1 0.23 0.23 0.24 0.41 0.061 0.6-0.59-0.036-0.78 0.21-0.85-0.033 0.28-0.3-0.48-0.37-0.18-0.59 0.098-0.06 0.092-0.55-0.0098-0.55-0.18 0.17-0.47 0.41-0.74 0.42-0.45 0-0.76 0.89-0.43 1.3 0.18 0.23-0.035 0.29-0.0059 0.48 0.23 0.23 0.23 0.72-0.24 0.66-0.36-0.09-0.64 0.21-0.96 0.16-0.39-0.058-0.75 0.17-0.82 0.5-0.084 0.45-0.64 0.95-1.3 1.2-0.37 0.12-0.43 0.17-0.49 0.44-0.084 0.51-0.61 0.28-0.83 0.64-0.38 0.36-1.1-0.58-1.1 0.016 0.18 0.57 0.16 0.62-0.19 0.61-0.45-0.046-0.94-0.16-1.4 0.047-0.24 0.28-0.03 0.61 0.2 0.62 1.2 0.066 1.8 1.6 1.4 2.7-0.092 0.3-0.32 0.47-0.56 0.4-0.98-0.26-1.9 0.089-2.8-0.23-0.35-0.12-1.3 0.36-1.2 0.71 0.042 0.12 0.095 0.47 0.1 0.78-0.0041 0.72-0.19 1.2-0.5 1.7-0.069 0.83 0.33 0.95 0.21 1.5 0.15 0.63 1.2-0.32 1.5 0.48 0.1 0.17 0.16 0.26 0.21 0.33 0.15-0.029 0.31-0.047 0.43-0.049 0.78 0.27 0.83-0.46 1.3-0.56 0.16-0.085 0.97-0.92 0.81-1.1-0.53-0.43 0.66-1.6 0.85-1.6 0.94-0.39 0.98-0.59 0.98-1.3 0-0.41 0.89-0.56 1.4-0.23 0.6 0.27 1.3-0.51 1.9-0.83 1.4-0.057 0.85 0.97 0.9 1.2 0.59-0.21 1.1 0.98 1.9 1.1 0.5 0.2 1.4 0.9 1.6 1.3 0.31 0.82-0.87 0.93-1.4 0.89-0.49-0.043-0.64 7.2e-4 -0.64 0.2 0.25 0.16 1.1 0.78 1.4 0.86 0.58 0.022 0.047-1.1 0.53-0.9 0.4-0.072 1.1-0.96 0.71-1.2-0.32-0.32 0.27-0.62 0.7-0.2 0.13 0.13 0.15 0.12 0.21-0.047-0.2-0.95-1.3-0.79-1.4-1.5-1.2 0.12-1.3-0.98-1.9-1.4-0.41-0.27-0.44-1.1-0.13-1.2 0.044-0.035 0.21-0.066 0.33-0.076 0.0051 0.0093-5.2e-5 0.02-0.029 0.039 0.26 1.4 2.3 2 3.5 2.7-0.14 0.52 0.26 1.7 0.38 1.8 0.38 0.092 0.34 0.48 0.25 0.7-0.0015 0.74 0.58 0.23 0.75 0.95 0.48 0.16 0.67 0.18 0.8 0.48-0.039 0.021-0.063 0.051-0.068 0.092 0.021 0.35 1.9 0.52 1.8 0.18-0.32-0.069-1.1-0.32-1.5-0.3h-0.039c0.19-0.57-0.23-0.63 0.086-0.59-0.031-0.25 0.55-0.61 0.9-0.15 0.46-0.41-1.8-1.5-1.4-2.1 0.24 0.056 0.86 0.53 0.91-0.02-0.44-0.62 1.5-0.3 1.1 0.014-0.47 0.39-0.3 0.79-0.023 0.91 0.96 0.027-0.59 0.93 0.57 1.1 0.49 0.16 0.048 0.56 0.074 0.74 0.67-0.18 0.44 0.31 0.52 0.43 0.4 0.17 0.12-0.55 0.44-0.47 0.39 0.25 1.3 0.65 1.3-0.012-0.033-0.24 0.65-0.031 1.1 0.32 0.09 0.083 0.24 0.13 0.4 0.13-0.063 0.017-0.13 0.029-0.19 0.035-0.23 0-0.18 0.26 0.094 0.39 0.42 0.19 0.46-0.09 0.83-0.23 0.041-0.19 0.29-0.47 0.27-0.56-0.073 0.012-0.15 0.033-0.22 0.059 0.17-0.2 0.3-0.22 0.54-0.074 0.54-0.06 0.21-0.082 0.41 0.78 0.098 0.11 0.17 0.68 0.098 0.75-0.11 0.12-0.41 1.1-0.51 1.6-0.061 0.76-1.1 0.98-1.5 0.68-0.31-0.27-1.3-0.18-1.6 0.17-0.77 0.37-1.7-0.51-2.5-0.37-0.59-0.35-1.4-0.47-2-0.9-0.13-0.2-0.92-0.014-1.3 0.3 0.085 0.98 0.53 1.9-1.2 1.3-0.34-0.24-0.87-0.43-1.2-0.43-1.2-1.3-1.7-0.79-2.8-1.4-0.98 0.11-1.6-1.1-0.48-1.1 0.2 0.016-0.11-0.8-0.12-0.8 0.36-0.96-0.26-0.71-0.31-0.9-0.067-0.26-0.41-0.31-0.78-0.12-0.67-0.33-2 0.55-2.3 0.27-0.23-0.14-0.46-0.13-1.6 0.061-0.95 0.16-1.5 0.35-1.5 0.52 0 0.048-0.058 0.065-0.13 0.039-0.52-0.018-0.98 0.92-1.6 0.45-0.33-0.067-0.72 0.059-1-0.0078-0.22 0.45-0.43 0.66-0.84 0.87-0.87 0.37-0.83 0.77-1.2 1.3-0.63 1.5 0.22 2-2.1 2.7-0.23 0.11-1.5 1.8-1.5 2.1-0.59 0.98-1.3 2-1.6 3 0.028 0.31 0.33-0.0079 0.44 1.4 0.15 1.2-0.37 2.4-0.88 3.1 0.9 0.64 0.087 1.4 0.67 2 0.71 0.73 0.91 0.91 1.5 1.6 0.3 0.33 0.67 1.3 0.71 1.7 0.77 0.56 1.5 1.1 2 1.6 0.98 0.92 1.3 0.98 2.1 0.62 0.44-0.22 0.65-0.26 1.3-0.29 0.7-0.034 1.1 0.021 1.5 0.21 0.67 0.072 1.2-0.65 1.9-0.68 0.58-0.29 1.2-0.42 1.8-0.44 0.65-0.07 1.3 0.37 1.3 1.1 0.29 0.73 1.3 0.34 1.9 0.28 0.81 0.083 0.98 1.5 0.69 2.2-0.087 0.22-0.053 1.8-0.43 1.6-0.26 1.1 2.1 2.6 2.2 3.6 0.62 0.98 0.56 2.6 0.75 3.1 0.19 0.46 0.27 0.82 0.26 1.1-0.59 0.86-0.61 2.3-1.3 3.1-0.37 1.6 0.55 2.5 1.1 3.7 0.7 1.3 0.66 2.4 0.92 3.8 0.16 1.2 2.5 3.9 1.7 4.8 0.13 1.1 0.42 0.81 0.9 1.3 0.19 0.21 0.35 0.21 0.56 0.025 0.66-0.56 2.1-0.34 2.7-0.36 0.9-0.24 2-0.68 2.6-1.4 0.19-0.072 0.34-0.21 0.48-0.38-0.11-0.76-0.17-1.6-0.17-2.4-1.9e-4 -0.21-2e-3 -0.42 0-0.63-0.0029-0.27-0.0029-0.56 0.0059-0.83-0.019-0.23-0.053-0.49-0.049-0.55 0.033-0.5 0.11-0.98 0.18-1.5-0.012-0.96 0.13-2 0.66-2.7 9.8e-4 -0.0013-4.4e-5 -0.0025 2e-3 -0.0039 1.2e-4 -5.9e-4 -1.1e-4 -0.0033 0-0.0039 0.065-0.32 0.15-0.57 0.21-0.48 0.063-0.14 0.13-0.27 0.2-0.41 0.04-0.15 0.098-0.35 0.13-0.45 2.9e-4 -0.0015 0.025-0.057 0.027-0.061 0.05-0.39 0.13-0.77 0.3-1.2 0.063-0.13 0.14-0.24 0.21-0.35-0.034-0.094 0.39-0.72 0.87-1.4-0.062 0.13-0.12 0.25-0.19 0.38 0.62-0.61 1.3-1.2 1.9-1.9 0.019-0.023 0.027-0.037 0.025-0.043l-0.035 0.0039c-0.012-0.044-0.47 0.29-0.63 0.43-0.21 0.17-0.42 0.34-0.62 0.51 0.036-0.052 0.065-0.096 0.1-0.15 0.098-0.19 0.2-0.37 0.33-0.53 0.078-0.087 0.17-0.17 0.25-0.25 0.27-0.34 0.45-0.55 0.41-0.41 0.21-0.21 0.4-0.42 0.62-0.62-0.05 0.041-0.098 0.083-0.15 0.13-0.044 0.035 0.075-0.084 0.12-0.13 0.056-0.064 0.11-0.13 0.17-0.2l-0.26 0.2c0.087-0.073 0.24-0.22 0.38-0.34 0.018-0.02 0.034-0.042 0.053-0.061 0.3-0.31 0.61-0.64 0.94-0.93 0.041-0.036 0.32-0.23 0.55-0.39 0.094-0.11 0.16-0.16 0.25-0.25-0.087-0.35-0.21-0.67-0.34-1.1 0.16-1.6 1.4-2.4 2-3.4 0.36-0.7 1.5-2 2.2-2.3 0.45-0.28 1.8-1.8 1.8-2 0.64-1.2 1.7-2.4 1.7-3.7 0.41-0.47 0.25-2-0.32-1.5-0.75 0.55-2.5 0.46-3.2 0.86-1.8 0.62-1.3-1.3-1.6-1.7-1.3-1.7-2.3-1.6-2.4-2.4-0.26-1.5-1.4-1.7-1.4-2.9-0.42-1.8-0.97-2.2-1.7-3.4 0.053-0.41-1.5-2.6-1.6-2.9 0.098-0.32 0.61 0.96 0.96 0.98 0.16-0.075 0.28-0.24 0.47-0.25 0.3 0.22 0.59 0.68 0.78 1.1 0.25 0.29 0.9 1.7 1.1 1.7 0.34 0.15 0.79 1.1 0.73 1.5-0.23 0.82 1.5 1.9 1.5 2.2 0.029 0.28 1.2 1.6 0.31 1.5 0.57 1.1 1.2 1.2 1.4 2.6 0.23 1.5 1.4 0.094 2 0.084 1.3-0.04 2.2-0.92 3.1-1.7-0.65-0.12-1.1-0.83-1.2-2.4-0.25-0.43-0.47-0.86-0.62-1.3-0.11-0.17-0.2-0.36-0.28-0.6 0.049 0.053 0.096 0.1 0.15 0.16-0.022-0.074-0.047-0.15-0.068-0.23 0.046 0.024 0.085 0.043 0.13 0.066 0.19 0.58 0.25 0.78 0.096 0.57 0.028 0.098 0.058 0.21 0.092 0.3l2e-3 -0.0078c0.13 0.21 0.27 0.43 0.44 0.63-0.087-0.26-0.16-0.52-0.23-0.79 0.058 0.069 0.1 0.12 0.18 0.21-4e-3 -0.058-0.012-0.12-0.014-0.18-0.057-0.02-0.11-0.039-0.17-0.059-0.046-0.15-0.12-0.34-0.12-0.41-0.04-0.06-0.086-0.13-0.13-0.19 0.091 0.048 0.19 0.1 0.28 0.15-0.038-0.11-0.075-0.22-0.12-0.32-0.039-0.054-0.078-0.11-0.12-0.16-0.013 0.06-0.026 0.049-0.041-0.057-0.18-0.25-0.37-0.51-0.55-0.76-6e-3 0.024-0.014 0.045-0.018 0.074 0.064 0.27 0.13 0.56 0.22 0.87-0.023-0.011-0.047-0.022-0.068-0.033-0.24-0.5-0.34-0.91-0.45-1.7-0.058-0.13-0.1-0.26-0.15-0.39 9e-3 0.012 0.017 0.027 0.027 0.041-8e-3 -0.033-0.015-0.065-0.022-0.098 2e-3 0.0052 4e-3 0.01 6e-3 0.016-0.022-0.083-0.039-0.19-0.059-0.27 0.028 0.034 0.042 0.042 0.07 0.076-0.043-0.16-0.086-0.33-0.13-0.51l2e-3 -0.0059c0.058 0.07 0.12 0.14 0.18 0.21-0.041-0.16-0.093-0.3-0.13-0.46-0.011-0.028-0.018-0.058-0.029-0.086-0.03-0.045-0.064-0.095-0.09-0.13-0.016-0.016-0.032-0.03-0.049-0.047 8e-3 0.045 0.012 0.12 0.022 0.15 0.034 0.14 0.061 0.23 0.094 0.37-0.014-0.017-0.029-0.031-0.043-0.049 0.032 0.19 0.071 0.33 0.11 0.49-5e-3 -0.0054-9e-3 -8e-3 -0.014-0.014 0.011 0.049 0.021 0.099 0.031 0.15-0.03-0.074-0.06-0.15-0.09-0.23 0.021 0.026 0.038 0.045 0.062 0.074-0.035-0.16-0.068-0.32-0.11-0.48-0.075-0.095-0.14-0.19-0.21-0.3 3e-3 0.033 6e-3 0.066 0.01 0.1 0.067 0.18 0.14 0.37 0.22 0.56-0.068-0.084-0.13-0.17-0.19-0.25 4e-3 0.036 0.01 0.072 0.014 0.11 0.015 0.033 0.032 0.065 0.047 0.098-0.06-0.088-0.054-0.085-0.16-0.24 1.4e-4 0.0013-1.5e-4 0.0026 0 0.0039 2e-3 0.015-0.029-0.047-0.022-0.035 0.015 0.022 7e-3 0.011 0.022 0.031-4e-3 -0.032-7e-3 -0.063-0.01-0.094v-0.0059c0.033 0.047 0.07 0.095 0.11 0.15-0.011-0.11-0.02-0.22-0.029-0.32-0.027-0.073-0.055-0.15-0.08-0.21 0.022 0.036 0.048 0.069 0.07 0.11-0.011-0.11-0.022-0.22-0.031-0.33-0.059-0.062-0.12-0.14-0.18-0.2 0.044 0.14 0.07 0.24 0.13 0.41-0.046-0.079-0.084-0.17-0.13-0.24 0.03 0.15 0.068 0.37 0.094 0.51-0.026-0.054-0.052-0.11-0.076-0.16-0.18-0.24-0.31-0.47-0.34-0.61-0.022-0.13-0.033-0.25-0.053-0.38 5e-3 0.079 0.014 0.16 0.02 0.23 8e-3 0.14-0.13-0.26-0.19-0.38-0.015-0.03-0.056-0.13-0.1-0.23-6.8e-4 -0.0015-3e-3 -0.0043-4e-3 -0.0059 0.019 0.055-0.094-0.12-0.11-0.2-5e-3 -0.021-9e-3 -0.044-0.014-0.064-0.21-0.29-0.4-0.6-0.5-0.88-0.038-0.11-0.065-0.21-0.098-0.32 0.09 0.17 0.32 0.69 0.29 0.51-0.23-0.5-0.42-0.91-0.23-0.66-0.022-0.06-0.049-0.12-0.072-0.18-0.055-0.088-0.11-0.17-0.16-0.26 0.05 0.2 0.11 0.38 0.17 0.57-0.052-0.098-0.11-0.2-0.14-0.3-0.027-0.11-0.049-0.23-0.074-0.34-1.1-1.7-2.1-3.6-0.5-1.2 0.18 0.27 0.17 0.27 0.32 0.51-0.097-0.24-0.18-0.5-0.25-0.75-0.035-0.063-0.12-0.24-0.26-0.53 0.035 0.034 0.05 0.051 0.084 0.084-0.018-0.04-0.031-0.068-0.049-0.11 0.054 0.081 0.11 0.16 0.16 0.24-4e-3 -0.015-0.014-0.055-0.02-0.07-0.061-0.12-0.12-0.22-0.18-0.34-5e-3 -0.0087-0.011-0.015-0.016-0.021-0.033-0.056-0.062-0.11-0.092-0.17-0.019-0.06-0.039-0.11-0.057-0.17-0.019-0.029-0.03-0.062-0.049-0.092-3e-3 -0.011-4e-3 -0.022-8e-3 -0.033-0.023-0.038-0.044-0.076-0.066-0.11-5e-3 -0.0084-9e-3 -0.017-0.014-0.025 5e-3 -0.0016 9e-3 -0.0043 0.014-0.0059-0.014-0.017-0.029-0.033-0.043-0.049-0.06-0.11-0.13-0.22-0.18-0.34-5e-3 0.0015-9e-3 3.3e-4 -0.014 2e-3 -0.14-0.25-0.28-0.49-0.38-0.76-0.053-0.14-0.12-0.42-0.18-0.65-0.11-0.17-0.22-0.33-0.33-0.5-9.8e-4 0.015 7.1e-4 0.03-2e-3 0.045-2e-3 0.02-2e-3 0.037-4e-3 0.057l2e-3 0.039c0.14 0.43 0.54 1.2 0.87 1.8-1.1 0.31-1.1-0.96-1-2.3-0.011-0.031-0.043-0.098-0.051-0.13-0.016-0.055-0.053-0.13-0.076-0.19-0.098-0.21-0.18-0.34-0.27-0.55-0.21-0.35-0.36-0.74-0.54-1.3-0.19 0.081-0.45 0.13-0.95 0.15-0.48 0.049-2.2-0.39-2.3-0.61-0.13-0.15-0.2-0.16-0.81-0.098-0.51 0.047-0.77 0.12-1.1 0.29-0.51 0.45-1.5 0.45-2.1 0.13-0.22-0.12-0.53-0.77-0.43-0.87 0.22-0.36 0.55-1.4 0.68-1.5 0.38-0.22 0.44-1.3 0.94-1.3 0.13 0 0.21 0.05 0.21 0.13 0.32 0.31 0.86 0.14 1.1 0.3-0.14 0.08-0.59 0.39-0.49 0.42 0.81 0.14 0.53 0.62 0.82 0.65 0.36-0.058 0.68-0.31 1-0.38-0.015 0.15 0.076 0.16-0.28 0.23 0.26 0.071 1.1 0.79 1.5 1.2 0.16 0.13 0.34 0.25 0.53 0.37-0.14-0.32-0.28-0.65-0.42-0.98-4e-3 -0.0098-4e-3 -0.014-0.01-0.029-0.34-0.68-0.5-1.1-0.71-1.7l8e-3 -0.068c-0.21 0.13-0.57 0.19-0.63 0.31 0.12 0.18 0.14 0.26 0.13 0.36-0.048-0.017-0.1-0.042-0.13-0.053-0.18-0.029-0.34-0.28-0.43-0.37 0.2-0.21 0.43-0.48 0.71-0.52 0.37-0.071 0.74-0.21 1.1-0.26l0.3-0.043c-0.094-0.26-0.16-0.45-0.32-0.87 0.41 1.1-0.031-0.075-0.21-0.6-0.091-0.27-0.071-0.24-0.09-0.32-0.016-0.037-8e-3 -0.013-0.025-0.055-0.046-0.11-0.086-0.21-0.13-0.33 0.037 0.076 0.098 0.21 0.11 0.22 0-9.8e-5 -2e-3 -0.0078-2e-3 -0.0078-0.12-0.26-0.25-0.53-0.37-0.8-0.2-0.49-0.32-0.89-0.44-1.4-0.39-0.87-0.68-1.8-0.84-2.7-0.022-0.041-0.049-0.088-0.07-0.13-0.13-0.07-0.2-0.11-0.28-0.16-0.47-0.11-0.87-0.46 0 0 0.076 0.019 0.15 0.026 0.21 0.023-0.033-0.066-0.049-0.11-0.072-0.16-0.14-0.26-0.27-0.53-0.44-0.74-0.089-0.12-0.15-0.28-0.17-0.42-0.014-0.096 0.17 0.35 0.14 0.25-0.03-0.13-0.11-0.23-0.17-0.35-0.71-1.6-1.2-2.9-1.4-4.3-0.13-0.12-0.28-0.13-0.51-0.33-0.027-0.067 0.13-0.058 0.46 0.0059-0.088-0.6-0.14-1.2-0.14-1.8-0.33-0.024-0.66-0.055-0.88-0.22-0.46-0.28-1.1-0.11-1.6-0.17 0.2-0.053 0.42-0.16 0.51-0.28-0.31-0.05-1.3-0.43-1.5-0.43-0.57 0.096-0.77-0.072-0.97-0.072zm13 25c0.01 0.016 0.018 0.033 0.027 0.049-0.014-0.031-0.028-0.063-0.041-0.096 5e-3 0.016 9e-3 0.031 0.014 0.047zm-0.014-0.047c-5e-3 -0.018-7e-3 -0.033-0.012-0.051-8.6e-4 -0.0011 3.9e-4 -0.0029-2e-3 -0.0039-5e-3 -0.0054-0.011-0.0097-0.016-0.016 9e-3 0.023 0.02 0.047 0.029 0.07zm-0.014-0.055c-6e-3 -0.019-9e-3 -0.037-0.014-0.057-5e-3 0.0019-0.011 0.0041-0.016 0.0059 0.01 0.017 0.02 0.034 0.029 0.051zm1.4 3.9c0.12 0.24 0.21 0.46 0.3 0.66-0.036-0.16-0.066-0.32-0.098-0.48 0.028 0.038 0.052 0.071 0.082 0.12-6e-3 -0.026-0.012-0.054-0.018-0.08-0.027-0.042-0.058-0.095-0.088-0.14-2e-3 -0.011-4e-3 -0.022-6e-3 -0.033-0.051-0.098-0.11-0.2-0.17-0.29-0.019-0.025-0.057-0.078-0.07-0.098 0.02 0.12 0.041 0.23 0.06 0.34zm1.3 2.3-4e-3 2e-3c1e-3 2e-3 3e-3 0.0038 4e-3 0.0059-2.6e-4 -0.0026 2.9e-4 -0.0053 0-0.0078zm0.85 2.3c2e-3 -0.0063 2e-3 -0.012 4e-3 -0.02l-0.014 0.0078c3e-3 0.0041 7e-3 0.0077 0.01 0.012zm-34-8.4c0.046-0.094 0.09-0.18 0.14-0.3 0.24-0.57 0.35-0.39 0.17-0.65-0.51 0.097-1.1 0.35-0.53 0.88 0.069 0.044 0.15 0.059 0.22 0.074zm-45-25c-0.018 0.045-0.035 0.09-0.053 0.13-0.0072 0.035-0.015 0.07-0.021 0.11 0.05-0.046 0.078-0.07 0.13-0.12-0.01-0.037-0.02-0.074-0.031-0.11-3e-3 0.0029-0.0067 0.0049-0.0098 0.0078-0.0036-0.0071-0.0081-0.014-0.012-0.021zm-0.09 0.32c-0.016 0.019-0.033 0.038-0.049 0.057 2e-3 0.035-0.0083 0.073-0.025 0.11-0.0022 0.044-0.0053 0.079-0.0078 0.12 0.01-0.0055 0.021-0.01 0.031-0.016 0.017-0.093 0.033-0.19 0.051-0.28zm0.2 0.053c-0.034 0.05-0.067 0.1-0.098 0.15 0.033-0.017 0.065-0.036 0.098-0.051 0.011-0.0052 0.01-2e-3 0.02-0.0059-0.0063-0.031-0.013-0.062-0.02-0.094zm-0.31 0.19c-0.0094 0.016-0.02 0.031-0.031 0.047-0.0065 0.017-0.013 0.034-0.02 0.051 0.012-0.0059 0.023-0.012 0.035-0.018 5e-3 -0.027 0.011-0.053 0.016-0.08zm0.26 0.098c-0.06 0.056-0.098 0.086-0.16 0.14 0.026-0.01 0.053-0.019 0.08-0.029 0.0052-0.0047 0.0085-9e-3 0.014-0.014 0.021-0.029 0.042-0.058 0.062-0.088-7.1e-4 -0.0031 0.0014-0.0068 0-0.0098zm-0.49 0.29c-0.011 0.01-0.02 0.021-0.031 0.031 0.01-0.0084 0.019-0.017 0.029-0.025zm-0.031 0.031c-0.054 0.045-0.1 0.093-0.15 0.14-0.0023 0.0087-0.0053 0.018-0.0078 0.027 0.056-0.054 0.11-0.11 0.16-0.17zm0.19-0.012c-6.9e-4 1e-3 -0.0032 7.7e-4 -0.0039 2e-3 -0.013 0.02-0.026 0.041-0.039 0.061 0.012-0.01 0.025-0.019 0.037-0.029 0.0021-0.011 0.0037-0.022 0.0059-0.033zm-0.12 0.11c-0.089 0.08-0.21 0.19-0.28 0.25 0.0068-0.0039 0.014-0.0077 0.021-0.012 0.077-0.06 0.16-0.14 0.24-0.21 0.0031-0.0098 0.0067-0.019 0.0098-0.029zm0.62 0.016c-0.092 0.084-0.18 0.15-0.26 0.21-6e-3 0.011-0.015 0.022-0.021 0.033 0.025-0.021 0.056-0.054 0.08-0.072 0.025-0.019 0.027-0.014 0.031-0.0098 0.061-0.058 0.12-0.11 0.17-0.16zm-0.17 0.16c-0.053 0.05-0.089 0.088-0.15 0.14-0.012 0.02-0.026 0.039-0.039 0.059 0.013 0.0092-0.0068 0.03-0.037 0.057-0.024 0.035-0.04 0.071-0.066 0.11-0.03 0.04-0.097 0.12-0.14 0.17 0.21-0.22 0.45-0.51 0.43-0.53zm-0.15 0.14c0.011-0.019 0.025-0.038 0.035-0.057-0.014 0.012-0.03 0.029-0.045 0.041-8e-3 0.015-0.014 0.027-0.021 0.041 0.011-0.01 0.02-0.015 0.031-0.025zm-0.031 0.025c-0.014 0.012-0.025 0.019-0.039 0.031 0.0063 4.2e-4 0.016 4.3e-4 0.02 2e-3 0.0065-0.012 0.013-0.021 0.02-0.033zm-0.039 0.031c-0.0057-3.7e-4 -0.0099-4.4e-4 -0.018 0-0.031 0.029-0.063 0.055-0.096 0.086-2e-4 0.0019 2e-4 0.0039 0 0.0059 0.039-0.032 0.072-0.056 0.11-0.092zm-0.018 0c0.026-0.024 0.053-0.05 0.078-0.072 0.0074-0.014 0.014-0.023 0.021-0.037-0.045 0.03-0.1 0.079-0.14 0.1-0.0035 0.0052-0.0062 0.01-0.0098 0.016 0.0094-0.0015 0.022-0.0065 0.031-0.0078 0.011-0.0016 0.011 0.0024 0.02 2e-3zm-0.051 0.0059c-0.011 0.0017-0.024 0.0077-0.035 0.0098-0.0021 0.019-0.0058 0.038-0.0078 0.057 0.016-0.023 0.028-0.044 0.043-0.066zm-0.035 0.0098c3e-4 -0.0027 0.0017-0.0052 2e-3 -0.0078-0.0047 0.0021-9e-3 0.0039-0.014 0.0059l-2e-3 2e-3c-0.0037 0.0031-0.0061 0.0047-0.0098 0.0078 0.0074-0.0015 0.016-0.0064 0.023-0.0078zm-0.023 0.0077c-0.012 0.0023-0.025 0.0071-0.037 0.0098-7e-3 0.0024-0.015 0.0076-0.021 0.0098-0.011 0.012-0.022 0.023-0.033 0.035-0.0011 0.0059-0.0028 0.012-0.0039 0.018 0.034-0.027 0.061-0.043 0.096-0.072zm-0.059 0.02 0.0039-0.0039c-0.01 0.0023-0.021 0.0053-0.031 0.0078-5.1e-4 0.0026-0.0014 0.0052-2e-3 0.0078 9e-3 -0.0023 0.02-0.0088 0.029-0.012zm-0.027 0.0039c0.0027-0.014 0.0052-0.027 0.0078-0.041-0.027 0.015-0.06 0.042-0.096 0.059 0.0087-6.4e-4 0.016 0.0012 0.025 0 0.021-6e-3 0.042-0.012 0.062-0.018zm-0.088 0.018c-0.0047 3.4e-4 -9e-3 -1.8e-4 -0.014 0-0.0019 0.0033-4e-3 0.0065-0.0059 0.0098 0.0056-0.0026 0.014-0.0073 0.02-0.0098zm-0.014 0c0.0037-0.0066 8e-3 -0.013 0.012-0.02-0.0048 0.0062-0.011 0.013-0.016 0.02 0.0013-5.1e-5 0.0026 5.2e-5 0.0039 0zm0.4-0.17c0.014-0.0089 0.031-0.027 0.045-0.037 0.021-0.04 0.034-0.081 0.053-0.12-0.0067 0.0065-0.013 0.013-0.02 0.02-0.027 0.05-0.05 0.087-0.078 0.14zm-0.56-0.2c-0.057 0.049-0.11 0.099-0.17 0.15 0.0054 0.011 0.0099 0.024 0.016 0.033 0.04-0.04 0.076-0.083 0.12-0.12 0.011-0.019 0.022-0.039 0.033-0.059zm0.33 0.033c-0.067 0.077-0.11 0.14-0.18 0.21 9e-3 -0.0056 0.022-0.011 0.033-0.018 0.051-0.065 0.087-0.11 0.14-0.17 0.0012-0.0065 0.0027-0.013 0.0039-0.02zm-0.18 0.21c-0.032 0.038-0.063 0.075-0.092 0.11 0.0058 0.0015 0.012 0.0028 0.018 0.0039 0.021-0.026 0.04-0.05 0.062-0.078 0.0037-0.012 0.0079-0.025 0.012-0.037zm0.3 0.13c-0.022 0.018-0.058 0.042-0.092 0.064-0.0044 0.075 0.037 0.024 0.092-0.064zm-0.1 0.027c-0.012 0.011-0.022 0.02-0.033 0.031 0.0096-0.0076 0.019-0.015 0.029-0.023 0.0019-0.0026 2e-3 -0.0053 0.0039-0.0078zm-0.053 0.08c-0.024 0.015-0.036 0.025-0.062 0.041-0.0045 0.023-0.0092 0.047-0.014 0.07 4e-3 -0.0048 0.014-0.015 0.018-0.02 0.028-0.034 0.033-0.059 0.059-0.092zm-0.92 1.1c-0.051 0.043-0.11 0.091-0.14 0.12-2.4e-4 0.0037-0.0022 0.011-2e-3 0.014 0.059-0.049 0.089-0.074 0.14-0.12-6.6e-4 -0.0027 0.0022-0.01 2e-3 -0.014zm44 0.72c-0.74 0.047-1.8 0.44-1.9 0.32-0.41 0.43-0.63 6.2e-4 -0.98-0.21-0.49-0.32-0.89 0.17-1.3 0.45-0.045 0.21 1.7 0.17 0.44 0.34-0.39 0.055-0.49 0.097-0.43 0.2 0.77 0.073 1.3-0.11 0.46 0.53 0 0.084 0.099 0.11 0.4 0.092 0.75 0.079 1.4 0.37 2.1 0.14 0.49-0.19 2.3-0.61 2.3-1.1-0.69-0.31-0.32-0.77-0.61-0.72-0.11-0.046-0.25-0.06-0.43-0.055zm19 0.51c0.19 2e-4 0.37 0.026 0.54 0.059 0.56 0.16-0.36 0.65-0.74 1.1-0.54 0.65-0.62 1.1-0.65 1.9-0.024 0.63 0.42 0.5 0.82 0.79 0.017 0.055 0.25 0.028 0.65-0.078 0.57-0.023 1.1-0.26 1.6-0.29 0.94 0.0011 0.8 0.13 0.46 0.52 0 0.11-0.42 0.098-1.3-0.0078-1.1 0.11-0.68 0.81-1.4 0.36-0.24 0.035-0.49 0.39-0.44 0.56 0.014 0.59-0.34-0.033-0.35 1.6 0.05 0.43-0.09 0.66-0.38 0.66-0.036 0.19-0.67 0.72-0.77 0.26 0.15-0.24-1.1-0.13-1.3 0.12-0.34 0.2-1.4 0.42-1.4 0-0.4-0.34-1.4 0.52-1.5 0.21 0.67-0.68 0.71-0.18 0.7-0.87 0.3-0.46 0.16 0.068 0.65 0.07 0.31 0 0.37-0.029 0.4-0.17 0.67-0.41 0.98-0.55 1.2-0.47 0.098-0.11 0.3-0.7 0.26-0.74-0.37 0.49-0.18-0.21-0.13-0.77 0.39-0.23 1.7-0.81 0.64-1.3-0.82-0.45-0.44-0.44-0.44-0.98 0.14-0.41 0.76-0.97 1.3-0.98 0.54-0.34 0.77-0.98 0.98-1.3 0.17-0.07 0.35-0.094 0.54-0.094zm-70 2.8c-0.0023 0.0016-0.0055 0.0023-0.0078 0.0039-0.1 0.13-0.18 0.26-0.28 0.39 0.02 0.21 0.024 0.42 0.014 0.64 0.027-0.018 0.053-0.036 0.082-0.053 0.12-0.33 0.19-0.66 0.2-0.98zm57 1.3c-0.077-7.4e-4 -0.18 0.07-0.27 0.24-0.24 0.48-0.78 0.11-1.1 0.46-0.23 0.5-0.58 0.37-0.74 0.51 0.018 0.29-0.2 0.48-0.28 0.76 0.85 0.12 0.47 0.11 0.17 0.49 0.38 0.056 0.68 0.74 0.82 0.79 0.76-0.28 0.53 0.011 0.75 0.26 0.26 0.45-0.037 0.63-0.42 0.58-0.48 0.013-0.046 0.035-0.53 0.48 1.2 0.098-0.97 0.7 0.21 0.78 0.4 0.022 0.7 0.21 0.33 0.21-0.32 0.18-0.91 0.57-1.1 0.84 0.23 0.038 1.3-0.17 1.3-0.26 0.38-0.12 1.2-0.23 1.7-0.21 0.37 0.02 1.1-0.21 1.1-0.37-0.64-0.38 0.41-0.52 0.18-0.98-0.93-0.66-0.6 0.27-0.88-0.89-0.15-0.35-0.6-0.43-0.7-0.77-0.075-0.32-0.29-0.6-0.46-0.61-0.22-0.2 0.15-0.7 0.32-0.87 0.21-0.21 0.056-0.3-0.47-0.3-0.16-0.019-0.64 0.0053-0.5-0.17 0.83-0.33 0.81-0.95 0.58-0.95zm-57 0.35c-0.0037 3e-3 -0.0079 0.0066-0.012 0.0098 0.0034-0.0022 0.0083-0.0056 0.012-0.0078zm-0.012 0.0098c-0.1 0.068-0.22 0.14-0.37 0.24-7.8e-4 0.0037-0.0012 8e-3 -2e-3 0.012 0.059-0.032 0.1-0.054 0.15-0.086 0.059-0.038 0.085-0.063 0.13-0.096 0.028-0.024 0.058-0.049 0.086-0.072zm78 0.73v0.0059c0.02 0.039 0.05 0.089 0.072 0.13 5e-3 0.0027 0.016 0.011 0.022 0.014-0.024-0.049-0.05-0.097-0.074-0.15-6e-3 4.1e-4 -0.014-2.1e-4 -0.02 0zm-24 1.7c-0.27-0.0051-0.53 0.069-0.69 0.25-0.018 0.68-0.8 0.25-0.97 0.55 0.016 0.29-0.083 0.57 0.13 0.62 0.59 0.2-0.9 0.98-0.37 1.1 0.17 0.35 0.88 0.17 1.3-0.051 0.42-0.2 0.9-0.17 0.98-0.53 0.032-0.72 0.59-1.4 0.35-1.7-0.22-0.14-0.5-0.21-0.77-0.22zm23 0.86c-0.0074-0.026 0.015 0.056 0.021 0.08-0.0069-0.024-0.013-0.044-0.021-0.072zm-80 2c-0.18 0.18-0.37 0.35-0.55 0.53-0.028 0.041-0.092 0.14-0.1 0.15-0.0028 0.0075-0.015 0.029-0.0098 0.023 0.014-0.013 0.016-0.047 0.035-0.047 0.017 3.7e-4 -9e-3 0.032-0.018 0.047-0.02 0.033-0.041 0.065-0.061 0.098 0.2-0.2 0.45-0.45 0.58-0.57 0.041-0.079 0.083-0.16 0.12-0.24zm11 1.7c0.81-0.013 0.7 0.63 0.62 1.5-0.31 0.12-0.47-0.22-1.1 0.053-0.56-0.95-1.7-0.13-2.8-0.22 1.3-1.1 1.5-0.8 2.7-1.2 0.23-0.05 0.4-0.074 0.56-0.076zm0.65 1.9 0.059 0.02c-0.96 0.6-1.4 2.1-2.1 2.7-0.4 0.41-0.64 0.47-0.65 0.18 0.26-1.4 1.2-2.8 2.6-2.9zm2.3 0.076 0.039 0.0098c0.12-0.0017 0.22 0.088 0.28 0.26 0.21 0.58-0.18 0.91-0.47 0.41-0.54-0.3-0.74 0.97-1.1 1.2-0.34-0.34 0.54-1.4-0.91-0.28 0.69-0.96 0.83-0.68 0.37-1.5 0.77-0.11 1.5-0.088 1.8-0.11zm1.8 0.78h0.0098c0.29 0 0.18 0.23-0.21 0.4-0.34-0.0067-2.3 0.3-1.4-0.13 0.47-0.082 1.3-0.27 1.6-0.27zm50 0.66-2e-3 0.059c-0.15 0.19-0.45 0.24-0.55 0.45-0.078 0.48 0.46 0.77 0.15 0.98-0.2 0.18-0.67-0.13-0.33 0.42 0.2 0.33-0.18 0.88 0.098 1.1 0.3 0.21 0.3-0.12 0.55-0.12 0.17 0.066 0.21-0.085 0.24-0.8 0.017-0.48 4.2e-4 -0.59-0.14-0.69-0.23-0.3 0.03-0.65 0.033-1.1 0-0.22-0.018-0.31-0.051-0.3zm-52 0.22c-0.47 0.33-2 1.1-2.5 0.89-0.13-0.14 0.4-0.27 0.81-0.49 0.9-0.26 0.96-0.25 1.7-0.39 0.016-0.0036 0.016-0.0029 0.029-0.0059zm-16 2.5c-0.0036 0.0023-0.0069 0.014-0.012 0.041-0.071 0.4-0.058 0.81-0.088 1.2 0.041-0.15 0.079-0.29 0.11-0.57 0.018-0.19 0.02-0.71-0.0059-0.69zm90 0.49c0.028 0.47 0.016 0.94 0.033 1.4 0.015 0.023 0.027 0.036 0.053 0.1 0.13 0.47 0.15 0.54 0.25 0.9 0.018 0.028 0.039 0.054 0.057 0.082 1e-3 -0.12 4e-3 -0.27 0.023-0.49-0.15-0.66-0.29-1.3-0.42-2zm0.4 2.5c-1.1e-4 0.0082-2e-3 0.027-2e-3 0.035l4e-3 -0.031c-7.3e-4 -0.0012-8.5e-4 -0.0027-2e-3 -0.0039zm-92-2.2c-0.039 0.072-0.018 0.024-0.072 0.13-0.018 0.034 0.033-0.049 0.062-0.098 2e-3 -0.011 0.0065-0.02 0.0098-0.029zm2.5 0.18c-0.046 0.098-0.087 0.2-0.14 0.29 0.045-0.095 0.11-0.19 0.13-0.29 7.1e-4 -0.0026 0.0013-0.0052 2e-3 -0.0078zm-0.18 0.43c-0.012 0.024-0.019 0.048-0.031 0.072 9e-6 0.011 2e-3 0.026 2e-3 0.037 0.01-0.028 0.02-0.081 0.029-0.11zm90 0.52c0.01 0.073 0.014 0.11 0.023 0.19-3e-3 -0.051-6e-3 -0.098-8e-3 -0.16v-2e-3c-4e-3 -0.0069-0.012-0.024-0.016-0.027zm0.023 0.19c4e-3 0.074 6e-3 0.15 0.012 0.22 0.015 0.083 0.025 0.15 0.045 0.25-4e-3 -0.0056-8e-3 -0.01-0.012-0.016 0.017 0.13 0.03 0.26 0.059 0.39 2e-3 0.011 6e-3 0.021 0.01 0.031v2e-3l4e-3 0.0078c-0.022-0.17-0.022-0.17-0.043-0.32-8e-3 -0.035-0.01-0.051-0.016-0.08 2e-3 0.0031 4e-3 0.0066 6e-3 0.0098-0.03-0.24-0.036-0.28-0.062-0.49zm-2.1 0.2c1e-3 0.0061 4e-3 0.011 6e-3 0.018l-6e-3 -0.0078zm2.5 0.41c-4e-3 0.15 2e-3 0.29 0.01 0.44 0.036 0.056 0.074 0.11 0.11 0.17-0.042-0.21-0.077-0.4-0.12-0.61zm0.3 0.22c-0.054 0.033-0.052 0.45-0.022 0.9 0.096 0.13 0.22 0.32 0.36 0.6 0.054 0.062 0.11 0.13 0.16 0.19l2e-3 0.0098c-4e-3 -0.042-2e-3 -0.076-4e-3 -0.12-0.12-0.49-0.26-0.98-0.42-1.5-0.032-0.088-0.056-0.12-0.074-0.11zm0.5 1.7c-0.044-0.055-0.097-0.11-0.15-0.16 0.048 0.09 0.091 0.16 0.15 0.26h2e-3c-6e-3 -0.042 2e-3 -0.07-2e-3 -0.11zm-1.1-1.6c0.017 0.14 0.015 0.11 0.035 0.27 0.029 0.059 0.065 0.12 0.098 0.17-0.052-0.14-0.095-0.28-0.13-0.43zm0.24 0.029c1e-5 0.023-7e-3 0.082-6e-3 0.098 0.026 0.094 0.044 0.16 0.068 0.24l2e-3 0.0039c0.012-0.0052 0.02-8e-3 0.031-0.014-9e-3 -0.07-0.01-0.14-0.014-0.21-0.027-0.041-0.055-0.082-0.082-0.13zm0.064 0.35c-0.016 0.0069-0.029 0.011-0.045 0.018 0.019 0.047 0.049 0.11 0.09 0.14-0.015-0.053-0.029-0.1-0.045-0.16zm0.13-0.047c-0.036 0.019-0.062 0.021-0.098 0.037 9e-3 0.069 0.024 0.13 0.039 0.2v0.0059l2e-3 -2e-3c0.037 0.038 0.078 0.09 0.13 0.15-0.027-0.13-0.049-0.27-0.076-0.39zm0.076 0.39c4.1e-4 0.0021 2e-3 0.0038 2e-3 0.0059h4e-3c-2e-3 -0.0026-4e-3 -0.0033-6e-3 -0.0059zm2e-3 0.0059c0.016 0.076 0.032 0.16 0.047 0.22 0.015 0.017 0.026 0.036 0.041 0.053-5e-3 -0.059-6e-3 -0.11-0.01-0.17-0.024-0.032-0.057-0.077-0.078-0.11zm-0.14-0.16c-9e-3 -0.0095-0.022-0.022-0.029-0.031 0.024 0.085 0.052 0.18 0.074 0.26 5e-3 0.0052 0.01 0.0098 0.014 0.016-6e-3 -0.017-0.014-0.034-0.02-0.051-0.019-0.061-0.026-0.12-0.039-0.19zm-0.14 0.19h2e-3c6e-3 0.02 0.012 0.032 0.018 0.051-8e-3 -0.015-0.016-0.029-0.023-0.045zm0.33 0.54c0.011 0.037 0.032 0.13 0.043 0.16h2e-3c0.021 0.038 0.039 0.078 0.059 0.12-7e-3 -0.055-0.014-0.098-0.022-0.16-0.019-0.022-0.041-0.056-0.082-0.12zm-2.1 0.2c8.6e-4 0.0045 8.5e-4 0.0091 2e-3 0.014-8.7e-4 -0.0011-8.5e-4 -0.0034-2e-3 -0.0039zm2.2 0.031c0.015 0.049 0.052 0.2 0.064 0.24-9e-3 -0.052-0.014-0.12-0.022-0.18v-0.0039c-0.014-0.019-0.029-0.038-0.043-0.057zm0.49 0.2c0.026 0.2 0.076 0.42 0.14 0.66v2e-3c0.012 0.012 0.023 0.022 0.035 0.033-4e-3 -0.064-0.01-0.13-0.016-0.2 0.018 0.083 0.034 0.16 0.051 0.25 0.047 0.046 0.092 0.091 0.14 0.14l4e-3 -0.0098c-8e-3 -0.041-0.016-0.081-0.023-0.12-0.061-0.15-0.13-0.31-0.19-0.43 4e-3 0.053 8e-3 0.091 0.012 0.14-0.019-0.09-0.041-0.18-0.06-0.27-0.032-0.07-0.06-0.13-0.09-0.19zm0.35 0.89c0.045 0.23 0.092 0.45 0.14 0.68-0.064-0.11-0.12-0.23-0.19-0.34 0.11 0.37 0.22 0.74 0.33 1.1 5.7e-4 8.5e-4 -5.6e-4 3e-3 0 0.0039 8e-3 0.013 0.016 0.024 0.023 0.037-0.052-0.26-0.11-0.51-0.16-0.77 0.09 0.16 0.18 0.32 0.27 0.48 0.022 0.037 0.086 0.098 0.13 0.15-0.18-0.5-0.34-0.95-0.49-1.3-0.015-0.015-0.029-0.03-0.045-0.045zm-1.6 1 6e-3 0.0039c2e-3 0.024 4e-3 0.048 6e-3 0.072-4e-3 -0.026-8e-3 -0.05-0.012-0.076zm1.9 0.47c0.012 0.06 0.022 0.12 0.035 0.18 0.012 0.038 0.023 0.073 0.033 0.12-3e-3 -0.0031-7e-3 -7e-3 -0.01-0.0098 0.018 0.084 0.033 0.17 0.051 0.26v2e-3c0.015 0.023 0.034 0.057 0.049 0.078-0.026-0.098-0.057-0.22-0.088-0.32 0.092 0.1 0.2 0.22 0.34 0.38 7e-3 0.11 0.023 0.26 0.029 0.34 0.034 0.045 0.08 0.11 0.11 0.14-0.013-0.12-0.027-0.23-0.039-0.34-0.014-0.022-0.041-0.066-0.057-0.09 0.02 0.023 0.027 0.029 0.053 0.061-6e-3 -0.05-9e-3 -0.098-0.014-0.15-0.037-0.11-0.07-0.2-0.11-0.3 5e-3 0.08 0.016 0.23 0.022 0.32-0.11-0.17-0.28-0.43-0.4-0.64zm-1.8 0.27c6e-4 4e-3 8.5e-4 0.0078 2e-3 0.012-3e-3 -0.0027-7e-3 -0.0051-0.01-0.0078zm2.2 0.41c5e-3 0.0079 0.01 0.016 0.014 0.021-5e-3 -0.0065-8e-3 -0.0098-0.012-0.014-3.3e-4 -0.0028-2e-3 -0.0049-2e-3 -0.0078zm-0.28 0.36c0.03 0.069 0.081 0.17 0.11 0.23-0.037-0.084-0.084-0.18-0.084-0.19 0-0.0028-2e-3 -0.0069-2e-3 -0.0098-8e-3 -0.011-0.016-0.02-0.023-0.029zm-1.7 0.18c8.7e-4 0.0049 8.5e-4 0.0088 2e-3 0.014-5.6e-4 -9.3e-4 -8.5e-4 -3e-3 -2e-3 -0.0039zm2.8 1.1c7e-3 0.056 0.014 0.11 0.022 0.16 0.013 0.018 0.034 0.052 0.049 0.072l0.066 0.066c-0.014-0.037-0.025-0.074-0.039-0.11-0.034-0.062-0.067-0.13-0.098-0.19zm-100 0.35c0.0072 0.022 0.015 0.042 0.021 0.064 0.0099 0.0069 0.02 0.015 0.029 0.021-0.0012-0.02-0.0055-0.039-0.0078-0.059-0.012-0.0079-0.03-0.019-0.043-0.027zm100 0.92c0.026 0.037 0.038 0.053 0.055 0.078 4e-3 0.02 9e-3 0.039 0.014 0.061 0.065 0.14 0.14 0.28 0.2 0.42 0.041 0.094-0.14-0.16-0.17-0.27-0.012-0.054-0.022-0.11-0.033-0.16-0.021-0.047-0.044-0.093-0.064-0.14zm0.14 0.13c0.011 0.039 0.018 0.091 0.029 0.13 0.024 0.035 0.046 0.066 0.066 0.098-0.034-0.08-0.061-0.15-0.096-0.22zm-0.52 1.8c2e-3 0.0062 6e-3 0.013 8e-3 0.02-2e-3 -0.0047-5e-3 -0.0095-8e-3 -0.014zm0.074 0.15c2.1e-4 2e-3 -2.3e-4 0.0039 0 0.0059-7.9e-4 -0.0013-8.8e-4 -0.0026-2e-3 -0.0039zm0.95 1.2h0.014c-2e-3 0.0051-3e-3 0.0091-6e-3 0.014-2e-3 -0.0044-6e-3 -0.0095-8e-3 -0.014zm0.16 0.43c3e-3 5e-3 7e-3 0.011 0.01 0.016 8.9e-4 0.0046 8.5e-4 0.0091 2e-3 0.014-4e-3 -0.0065-6e-3 -0.011-0.01-0.018-7.9e-4 -0.0039-8.8e-4 -0.0078-2e-3 -0.012zm-77 0.16 0.039 0.045c-0.12 2e-4 -0.21 0.012-0.26 0.033-0.3 0.14-0.32 0.26-0.039 0.26 0.85 1.3-0.74 0.42-0.93 0.76 0.21 0.76 1.4 0.15 1.7 0.52l0.18 0.23c0.48-0.75 0.98-0.65 1.8-0.43 0.48-0.62-0.53-0.88-0.65-1.1-0.21-0.17-1.3-0.35-1.8-0.35zm78 0.031c0.039 0.12 0.076 0.24 0.12 0.35 0.017 0.019 0.031 0.033 0.047 0.051-2e-3 -0.028-2e-3 -0.06-4e-3 -0.088-0.029-0.074-0.058-0.15-0.086-0.22-0.026-0.032-0.05-0.062-0.074-0.092zm-74 1.1c-0.23 0.0041-0.43 0.075-0.45 0.25 0.11 0.35 1.5 0.24 1.1-0.098-0.13-0.094-0.38-0.16-0.61-0.16zm-7 0.027c-0.34-0.0067-0.6 0.096-0.23 0.35 0.52 0.43 0.54 0.12 0.94 0.11 0.34-0.26-0.26-0.45-0.71-0.46zm74 20c-0.021 0.0053-0.2 0.17-0.4 0.35h-0.01c-0.041 0.045-0.081 0.092-0.12 0.14l0.25-0.19c0.078-0.083 0.17-0.16 0.24-0.24 0.034-0.039 0.046-0.056 0.039-0.055zm-0.45 2.9c-0.34-0.035-1.9 0.9-2.7 1.7-0.028 0.057-0.064 0.13-0.098 0.2-0.17 0.49-0.34 0.97-0.54 1.5 0.16-0.13 0.32-0.25 0.49-0.37-0.055 0.071-0.1 0.14-0.16 0.21 0.38-0.37 0.73-0.66 0.61-0.35-0.14 0.35-0.3 0.68-0.47 0.98 0.48-0.44 1.1-1.2 1.9-2.3-0.58 0.5-1.2 0.97-1.9 1.4 0.31-0.39 0.61-0.79 0.86-1.2 0.36-0.16 1.1-0.63 1.4-0.76-0.094 0.13-0.19 0.27-0.28 0.39 0.13-0.12 0.26-0.24 0.38-0.36 0.1-0.11 0.057-0.11-0.053-0.074 0.16-0.21 0.3-0.39 0.46-0.63 0.14-0.19 0.13-0.28 0.035-0.29zm-0.83 1.4-0.029-0.039c-0.05 0.067-0.086 0.1-0.13 0.17 0.052-0.045 0.11-0.085 0.16-0.13zm-3.8 5.5-0.0039 0.0098c-0.081 0.13-0.16 0.27-0.24 0.4 0.013 0.2 0.09 0.41 0.15 0.61-0.0042-0.029-0.016-0.064-0.014-0.084 0.037-0.31 0.072-0.63 0.11-0.94zm-60 16v4e-3c0.0019 2e-4 0.0039-1.9e-4 0.0059 0-0.0015-1e-3 -0.0044-3e-3 -0.0059-4e-3zm0.0059 4e-3c0.21 0.16 0.51 0.36 0.83 0.58-0.18-0.21-0.29-0.33-0.48-0.55-0.12-0.011-0.23-0.024-0.35-0.035zm1.8 0.16-0.039 0.01c0.38 0.22 0.75 0.43 1.2 0.65-0.064-0.062-0.12-0.13-0.19-0.2-0.31-0.15-0.62-0.28-0.95-0.46zm-16 20-0.0059 2e-3c-0.033 0.17-0.14 0.28-0.29 0.36 0.022 9.8e-4 0.044-9.8e-4 0.064 0h1.1c-0.25-0.12-0.51-0.23-0.76-0.34-0.03-8e-3 -0.057-0.014-0.086-0.022z" stroke-width=".098"/>
 <path transform="scale(.27)" d="m63 15a48 48 0 0 0-48 48 48 48 0 0 0 48 48 48 48 0 0 0 48-48 48 48 0 0 0-48-48z" fill="none" stroke="#000" stroke-linejoin="round" stroke-width="9.4" style="paint-order:markers fill stroke"/>
</svg>
