<?xml version="1.0" encoding="UTF-8"?>
<svg width="128" height="128" version="1.1" viewBox="0 0 34 34" xmlns="http://www.w3.org/2000/svg">
 <g transform="translate(0 -263)">
  <path transform="matrix(.26 0 0 .26 0 263)" d="m64 6.5a57 57 0 0 0-57 57 57 57 0 0 0 57 57 57 57 0 0 0 57-57 57 57 0 0 0-57-57zm0 18a12 12 0 0 1 1.2 0.059 12 12 0 0 1 1.2 0.18 12 12 0 0 1 1.2 0.29 12 12 0 0 1 1.1 0.41 12 12 0 0 1 1.1 0.52 12 12 0 0 1 1 0.62 12 12 0 0 1 0.95 0.72 12 12 0 0 1 0.87 0.81 12 12 0 0 1 0.78 0.89 12 12 0 0 1 0.69 0.97 12 12 0 0 1 0.59 1 12 12 0 0 1 0.48 1.1 12 12 0 0 1 0.37 1.1 12 12 0 0 1 0.26 1.2 12 12 0 0 1 0.14 1.2 12 12 0 0 1 0.029 0.84 12 12 0 0 1-0.059 1.2 12 12 0 0 1-0.18 1.2 12 12 0 0 1-0.29 1.2 12 12 0 0 1-0.41 1.1 12 12 0 0 1-0.52 1.1 12 12 0 0 1-0.62 1 12 12 0 0 1-0.72 0.95 12 12 0 0 1-0.81 0.87 12 12 0 0 1-0.89 0.78 12 12 0 0 1-0.96 0.69 12 12 0 0 1-1 0.59 12 12 0 0 1-1.1 0.49 12 12 0 0 1-1.1 0.37 12 12 0 0 1-1.2 0.26 12 12 0 0 1-1.2 0.14 12 12 0 0 1-0.84 0.029 12 12 0 0 1-1.2-0.061 12 12 0 0 1-1.2-0.18 12 12 0 0 1-1.2-0.29 12 12 0 0 1-1.1-0.41 12 12 0 0 1-1.1-0.52 12 12 0 0 1-1-0.62 12 12 0 0 1-0.95-0.72 12 12 0 0 1-0.87-0.81 12 12 0 0 1-0.78-0.89 12 12 0 0 1-0.69-0.96 12 12 0 0 1-0.59-1 12 12 0 0 1-0.48-1.1 12 12 0 0 1-0.37-1.1 12 12 0 0 1-0.26-1.2 12 12 0 0 1-0.14-1.2 12 12 0 0 1-0.029-0.84 12 12 0 0 1 0.059-1.2 12 12 0 0 1 0.18-1.2 12 12 0 0 1 0.29-1.2 12 12 0 0 1 0.41-1.1 12 12 0 0 1 0.52-1.1 12 12 0 0 1 0.62-1 12 12 0 0 1 0.72-0.95 12 12 0 0 1 0.81-0.87 12 12 0 0 1 0.89-0.78 12 12 0 0 1 0.96-0.69 12 12 0 0 1 1-0.59 12 12 0 0 1 1.1-0.48 12 12 0 0 1 1.1-0.38 12 12 0 0 1 1.2-0.26 12 12 0 0 1 1.2-0.14 12 12 0 0 1 0.84-0.029zm-12 32h24v47h-24z" style="paint-order:fill markers stroke"/>
 </g>
</svg>
