<?xml version="1.0" encoding="UTF-8"?>
<svg width="128" height="128" version="1.1" viewBox="0 0 33.9 33.9" xmlns="http://www.w3.org/2000/svg">
 <path d="m3.77 13.6v18.4h26.3v-18.4zm13.2 3.33a3.71 3.71 0 0 1 0.263 0.0093 3.71 3.71 0 0 1 0.369 0.0452 3.71 3.71 0 0 1 0.362 0.0812 3.71 3.71 0 0 1 0.352 0.117 3.71 3.71 0 0 1 0.338 0.151 3.71 3.71 0 0 1 0.322 0.185 3.71 3.71 0 0 1 0.302 0.216 3.71 3.71 0 0 1 0.279 0.245 3.71 3.71 0 0 1 0.253 0.272 3.71 3.71 0 0 1 0.224 0.295 3.71 3.71 0 0 1 0.194 0.317 3.71 3.71 0 0 1 0.16 0.334 3.71 3.71 0 0 1 0.128 0.349 3.71 3.71 0 0 1 0.0915 0.36 3.71 3.71 0 0 1 0.0555 0.367 3.71 3.71 0 0 1 0.0185 0.37 3.71 3.71 0 0 1-0.0175 0.354 3.71 3.71 0 0 1-0.0535 0.367 3.71 3.71 0 0 1-0.0905 0.36 3.71 3.71 0 0 1-0.126 0.35 3.71 3.71 0 0 1-0.159 0.334 3.71 3.71 0 0 1-0.193 0.318 3.71 3.71 0 0 1-0.223 0.296 3.71 3.71 0 0 1-0.252 0.273 3.71 3.71 0 0 1-0.278 0.246v4.81h-4.64v-4.82a3.71 3.71 0 0 1-0.264-0.233 3.71 3.71 0 0 1-0.253-0.27 3.71 3.71 0 0 1-0.225-0.295 3.71 3.71 0 0 1-0.194-0.317 3.71 3.71 0 0 1-0.161-0.334 3.71 3.71 0 0 1-0.129-0.348 3.71 3.71 0 0 1-0.0915-0.36 3.71 3.71 0 0 1-0.0566-0.367 3.71 3.71 0 0 1-0.0185-0.37 3.71 3.71 0 0 1 0.0093-0.263 3.71 3.71 0 0 1 0.0452-0.369 3.71 3.71 0 0 1 0.0812-0.362 3.71 3.71 0 0 1 0.116-0.352 3.71 3.71 0 0 1 0.152-0.338 3.71 3.71 0 0 1 0.184-0.322 3.71 3.71 0 0 1 0.216-0.302 3.71 3.71 0 0 1 0.245-0.279 3.71 3.71 0 0 1 0.272-0.253 3.71 3.71 0 0 1 0.296-0.224 3.71 3.71 0 0 1 0.316-0.194 3.71 3.71 0 0 1 0.334-0.161 3.71 3.71 0 0 1 0.349-0.128 3.71 3.71 0 0 1 0.36-0.0915 3.71 3.71 0 0 1 0.367-0.0555 3.71 3.71 0 0 1 0.37-0.0185z" style="paint-order:fill markers stroke"/>
 <path d="m16.9 1.74c-4.59-0.0601-8.96 2.94-10.7 7.15-1.91 4.3-0.949 9.68 2.35 13 1.6 1.72 3.76 2.82 6.05 3.3v-1.7a3.71 3.71 0 0 1-0.264-0.233 3.71 3.71 0 0 1-0.253-0.27 3.71 3.71 0 0 1-0.225-0.295 3.71 3.71 0 0 1-0.194-0.317 3.71 3.71 0 0 1-0.161-0.334 3.71 3.71 0 0 1-0.129-0.348 3.71 3.71 0 0 1-0.0915-0.36 3.71 3.71 0 0 1-0.0566-0.367 3.71 3.71 0 0 1-0.0103-0.2c-0.931-0.492-1.79-1.11-2.44-1.95-2.65-3.17-2.36-8.31 0.652-11.1 1.45-1.43 3.46-2.25 5.5-2.24 3.66-0.0715 7.04 2.75 7.76 6.31 0.846 3.48-0.878 7.37-4.06 9.05a3.71 3.71 0 0 1-0.0082 0.159 3.71 3.71 0 0 1-0.0535 0.367 3.71 3.71 0 0 1-0.0905 0.36 3.71 3.71 0 0 1-0.126 0.35 3.71 3.71 0 0 1-0.159 0.334 3.71 3.71 0 0 1-0.193 0.318 3.71 3.71 0 0 1-0.223 0.296 3.71 3.71 0 0 1-0.252 0.273 3.71 3.71 0 0 1-0.278 0.246v1.65c0.431-0.0904 0.876-0.091 1.29-0.236 4.6-1.48 7.95-6.03 8.07-10.9 0.243-4.74-2.65-9.45-7-11.4-1.47-0.658-3.07-1-4.68-0.999z" color="#000000" color-rendering="auto" dominant-baseline="auto" image-rendering="auto" shape-rendering="auto" solid-color="#000000" style="font-feature-settings:normal;font-variant-alternates:normal;font-variant-caps:normal;font-variant-ligatures:normal;font-variant-numeric:normal;font-variant-position:normal;isolation:auto;mix-blend-mode:normal;paint-order:fill markers stroke;shape-padding:0;text-decoration-color:#000000;text-decoration-line:none;text-decoration-style:solid;text-indent:0;text-orientation:mixed;text-transform:none;white-space:normal"/>
</svg>
