<?xml version="1.0" encoding="UTF-8"?>
<svg width="128" height="128" version="1.1" viewBox="0 0 34 34" xmlns="http://www.w3.org/2000/svg">
 <path d="m3.8 14v18h26v-18zm13 3.3a3.7 3.7 0 0 1 0.26 0.0093 3.7 3.7 0 0 1 0.37 0.045 3.7 3.7 0 0 1 0.36 0.081 3.7 3.7 0 0 1 0.35 0.12 3.7 3.7 0 0 1 0.34 0.15 3.7 3.7 0 0 1 0.32 0.19 3.7 3.7 0 0 1 0.3 0.22 3.7 3.7 0 0 1 0.28 0.24 3.7 3.7 0 0 1 0.25 0.27 3.7 3.7 0 0 1 0.22 0.3 3.7 3.7 0 0 1 0.19 0.32 3.7 3.7 0 0 1 0.16 0.33 3.7 3.7 0 0 1 0.13 0.35 3.7 3.7 0 0 1 0.092 0.36 3.7 3.7 0 0 1 0.056 0.37 3.7 3.7 0 0 1 0.019 0.37 3.7 3.7 0 0 1-0.017 0.35 3.7 3.7 0 0 1-0.053 0.37 3.7 3.7 0 0 1-0.091 0.36 3.7 3.7 0 0 1-0.13 0.35 3.7 3.7 0 0 1-0.16 0.33 3.7 3.7 0 0 1-0.19 0.32 3.7 3.7 0 0 1-0.22 0.3 3.7 3.7 0 0 1-0.25 0.27 3.7 3.7 0 0 1-0.28 0.25v4.8h-4.6v-4.8a3.7 3.7 0 0 1-0.26-0.23 3.7 3.7 0 0 1-0.25-0.27 3.7 3.7 0 0 1-0.23-0.3 3.7 3.7 0 0 1-0.19-0.32 3.7 3.7 0 0 1-0.16-0.33 3.7 3.7 0 0 1-0.13-0.35 3.7 3.7 0 0 1-0.092-0.36 3.7 3.7 0 0 1-0.057-0.37 3.7 3.7 0 0 1-0.019-0.37 3.7 3.7 0 0 1 0.0093-0.26 3.7 3.7 0 0 1 0.045-0.37 3.7 3.7 0 0 1 0.081-0.36 3.7 3.7 0 0 1 0.12-0.35 3.7 3.7 0 0 1 0.15-0.34 3.7 3.7 0 0 1 0.18-0.32 3.7 3.7 0 0 1 0.22-0.3 3.7 3.7 0 0 1 0.24-0.28 3.7 3.7 0 0 1 0.27-0.25 3.7 3.7 0 0 1 0.3-0.22 3.7 3.7 0 0 1 0.32-0.19 3.7 3.7 0 0 1 0.33-0.16 3.7 3.7 0 0 1 0.35-0.13 3.7 3.7 0 0 1 0.36-0.092 3.7 3.7 0 0 1 0.37-0.056 3.7 3.7 0 0 1 0.37-0.019z" style="paint-order:fill markers stroke"/>
 <path d="m17 1.7c-4.6-0.06-9 2.9-11 7.1-1.9 4.3-0.95 9.7 2.4 13 1.6 1.7 3.8 2.8 6 3.3v-1.7a3.7 3.7 0 0 1-0.26-0.23 3.7 3.7 0 0 1-0.25-0.27 3.7 3.7 0 0 1-0.23-0.3 3.7 3.7 0 0 1-0.19-0.32 3.7 3.7 0 0 1-0.16-0.33 3.7 3.7 0 0 1-0.13-0.35 3.7 3.7 0 0 1-0.092-0.36 3.7 3.7 0 0 1-0.057-0.37 3.7 3.7 0 0 1-0.01-0.2c-0.93-0.49-1.8-1.1-2.4-2-2.6-3.2-2.4-8.3 0.65-11 1.5-1.4 3.5-2.3 5.5-2.2 3.7-0.072 7 2.7 7.8 6.3 0.85 3.5-0.88 7.4-4.1 9a3.7 3.7 0 0 1-0.0082 0.16 3.7 3.7 0 0 1-0.053 0.37 3.7 3.7 0 0 1-0.09 0.36 3.7 3.7 0 0 1-0.13 0.35 3.7 3.7 0 0 1-0.16 0.33 3.7 3.7 0 0 1-0.19 0.32 3.7 3.7 0 0 1-0.22 0.3 3.7 3.7 0 0 1-0.25 0.27 3.7 3.7 0 0 1-0.28 0.25v1.7c0.43-0.09 0.88-0.091 1.3-0.24 4.6-1.5 8-6 8.1-11 0.24-4.7-2.6-9.5-7-11-1.5-0.66-3.1-1-4.7-1z" color="#000000" color-rendering="auto" dominant-baseline="auto" image-rendering="auto" shape-rendering="auto" solid-color="#000000" style="font-feature-settings:normal;font-variant-alternates:normal;font-variant-caps:normal;font-variant-ligatures:normal;font-variant-numeric:normal;font-variant-position:normal;isolation:auto;mix-blend-mode:normal;paint-order:fill markers stroke;shape-padding:0;text-decoration-color:#000000;text-decoration-line:none;text-decoration-style:solid;text-indent:0;text-orientation:mixed;text-transform:none;white-space:normal"/>
</svg>
