<?xml version="1.0" encoding="UTF-8"?>
<svg width="128" height="128" version="1.1" viewBox="0 0 33.9 33.9" xmlns="http://www.w3.org/2000/svg">
 <g transform="translate(0 -263)">
  <path d="m7.71 264a6.45 6.45 0 0 0-4.47 1.89 6.45 6.45 0 0 0 0 9.13l4.56 4.56-4.56 4.56a6.45 6.45 0 0 0 0 9.13 6.45 6.45 0 0 0 9.13 0l4.56-4.56 4.56 4.56a6.45 6.45 0 0 0 9.13 0 6.45 6.45 0 0 0 0-9.13l-4.56-4.56 4.56-4.56a6.45 6.45 0 0 0 0-9.13 6.45 6.45 0 0 0-9.13 0l-4.56 4.56-4.56-4.56a6.45 6.45 0 0 0-4.66-1.89zm-2.7 3.25 0.534 0.53 0.304 0.303a3.35 3.69 5.55 0 0-0.0321 0.0372 3.35 3.69 5.55 0 0-0.155 0.202 3.35 3.69 5.55 0 0-0.195 0.303 3.35 3.69 5.55 0 0-0.168 0.323 3.35 3.69 5.55 0 0-0.137 0.339 3.35 3.69 5.55 0 0-0.107 0.352 3.35 3.69 5.55 0 0-0.0744 0.361 3.35 3.69 5.55 0 0-0.041 0.367 3.35 3.69 5.55 0 0-0.00756 0.369 3.35 3.69 5.55 0 0 0.0258 0.367 3.35 3.69 5.55 0 0 0.0592 0.362 3.35 3.69 5.55 0 0 0.0914 0.353 3.35 3.69 5.55 0 0 0.124 0.34 3.35 3.69 5.55 0 0 0.0523 0.111l-0.87 0.87a4.49 4.95 5.55 0 1 0.564-5.85 4.49 4.95 5.55 0 1 0.0328-0.0384zm11.9 6.68c0.279 2e-5 0.558 0.106 0.77 0.319 0.425 0.425 0.425 1.12 0 1.54-0.425 0.425-1.12 0.425-1.54 0-0.425-0.425-0.425-1.12 0-1.54 0.213-0.213 0.491-0.319 0.77-0.319zm-2.28 2.28c0.279 2e-5 0.558 0.106 0.77 0.319 0.425 0.425 0.425 1.12 0 1.54-0.425 0.425-1.12 0.425-1.54 0-0.425-0.425-0.425-1.12 0-1.54 0.213-0.213 0.491-0.319 0.77-0.319zm4.56 0c0.279 2e-5 0.558 0.106 0.77 0.319 0.425 0.425 0.425 1.11 0 1.54-0.425 0.425-1.12 0.425-1.54 0-0.425-0.425-0.425-1.11 0-1.54 0.213-0.213 0.491-0.319 0.77-0.319zm-6.85 2.28c0.279 1e-5 0.558 0.106 0.77 0.319 0.425 0.425 0.425 1.12 0 1.54-0.425 0.425-1.11 0.425-1.54 0-0.425-0.425-0.425-1.12 0-1.54 0.213-0.213 0.491-0.319 0.77-0.319zm4.56 0c0.279 1e-5 0.558 0.106 0.77 0.319 0.425 0.425 0.425 1.12 0 1.54-0.425 0.425-1.12 0.425-1.54 0-0.425-0.425-0.425-1.12 0-1.54 0.213-0.213 0.491-0.319 0.77-0.319zm4.56 0c0.279 1e-5 0.557 0.106 0.77 0.319 0.425 0.425 0.425 1.12 0 1.54-0.425 0.425-1.11 0.425-1.54 0-0.425-0.425-0.425-1.12 0-1.54 0.213-0.213 0.491-0.319 0.77-0.319zm-2.28 2.28c0.279 1e-5 0.558 0.106 0.77 0.319 0.425 0.425 0.425 1.12 0 1.54-0.425 0.425-1.12 0.425-1.54 0-0.425-0.425-0.425-1.12 0-1.54 0.213-0.213 0.491-0.319 0.77-0.319zm-4.56 6.4e-4c0.279 1e-5 0.558 0.106 0.77 0.319 0.425 0.425 0.425 1.11 0 1.54-0.425 0.425-1.12 0.425-1.54 0-0.425-0.425-0.425-1.11 0-1.54 0.213-0.213 0.491-0.319 0.77-0.319zm2.28 2.28c0.279 1e-5 0.558 0.106 0.77 0.319 0.425 0.425 0.425 1.12 0 1.54-0.425 0.425-1.12 0.425-1.54 0-0.425-0.425-0.425-1.12 0-1.54 0.213-0.213 0.491-0.319 0.77-0.319zm12.1 2.62a4.95 4.49 84.5 0 1 0.0328 0.0385 4.95 4.49 84.5 0 1 0.564 5.85l-0.87-0.87a3.69 3.35 84.5 0 0 0.0523-0.111 3.69 3.35 84.5 0 0 0.124-0.34 3.69 3.35 84.5 0 0 0.0914-0.353 3.69 3.35 84.5 0 0 0.0592-0.362 3.69 3.35 84.5 0 0 0.0258-0.367 3.69 3.35 84.5 0 0-0.0076-0.369 3.69 3.35 84.5 0 0-0.041-0.367 3.69 3.35 84.5 0 0-0.0744-0.361 3.69 3.35 84.5 0 0-0.107-0.352 3.69 3.35 84.5 0 0-0.137-0.339 3.69 3.35 84.5 0 0-0.168-0.323 3.69 3.35 84.5 0 0-0.195-0.303 3.69 3.35 84.5 0 0-0.155-0.202 3.69 3.35 84.5 0 0-0.0321-0.0366l0.304-0.304zm-15.1 1.65 0.812 0.812-4.07 4.07-0.812-0.812 2.04-2.04z" style="paint-order:fill markers stroke"/>
 </g>
</svg>
