<?xml version="1.0" encoding="UTF-8"?>
<svg width="128" height="128" version="1.1" viewBox="0 0 34 34" xmlns="http://www.w3.org/2000/svg">
 <g transform="translate(0 -263)">
  <path d="m8 264a6 6 0 0 0-4 2 6 6 0 0 0 0 9l5 5-5 5a6 6 0 0 0 0 9 6 6 0 0 0 9 0l5-5 5 5a6 6 0 0 0 9 0 6 6 0 0 0 0-9l-5-5 5-5a6 6 0 0 0 0-9 6 6 0 0 0-9 0l-5 5-5-5a6 6 0 0 0-5-2zm-3 3 0.8 0.8a3 4 6 0 0-0.03 0.04 3 4 6 0 0-0.2 0.2 3 4 6 0 0-0.2 0.3 3 4 6 0 0-0.2 0.3 3 4 6 0 0-0.1 0.3 3 4 6 0 0-0.1 0.4 3 4 6 0 0-0.07 0.4 3 4 6 0 0-0.04 0.4 3 4 6 0 0-8e-3 0.4 3 4 6 0 0 0.03 0.4 3 4 6 0 0 0.06 0.4 3 4 6 0 0 0.09 0.4 3 4 6 0 0 0.1 0.3 3 4 6 0 0 0.05 0.1l-0.9 0.9a4 5 6 0 1 0.6-6 4 5 6 0 1 0.03-0.04zm12 7c0.3 2e-5 0.6 0.1 0.8 0.3 0.4 0.4 0.4 1 0 2-0.4 0.4-1 0.4-2 0-0.4-0.4-0.4-1 0-2 0.2-0.2 0.5-0.3 0.8-0.3zm-2 2c0.3 2e-5 0.6 0.1 0.8 0.3 0.4 0.4 0.4 1 0 2-0.4 0.4-1 0.4-2 0-0.4-0.4-0.4-1 0-2 0.2-0.2 0.5-0.3 0.8-0.3zm5 0c0.3 2e-5 0.6 0.1 0.8 0.3 0.4 0.4 0.4 1 0 2-0.4 0.4-1 0.4-2 0-0.4-0.4-0.4-1 0-2 0.2-0.2 0.5-0.3 0.8-0.3zm-7 2c0.3 1e-5 0.6 0.1 0.8 0.3 0.4 0.4 0.4 1 0 2-0.4 0.4-1 0.4-2 0-0.4-0.4-0.4-1 0-2 0.2-0.2 0.5-0.3 0.8-0.3zm5 0c0.3 1e-5 0.6 0.1 0.8 0.3 0.4 0.4 0.4 1 0 2-0.4 0.4-1 0.4-2 0-0.4-0.4-0.4-1 0-2 0.2-0.2 0.5-0.3 0.8-0.3zm5 0c0.3 1e-5 0.6 0.1 0.8 0.3 0.4 0.4 0.4 1 0 2-0.4 0.4-1 0.4-2 0-0.4-0.4-0.4-1 0-2 0.2-0.2 0.5-0.3 0.8-0.3zm-2 2c0.3 1e-5 0.6 0.1 0.8 0.3 0.4 0.4 0.4 1 0 2-0.4 0.4-1 0.4-2 0-0.4-0.4-0.4-1 0-2 0.2-0.2 0.5-0.3 0.8-0.3zm-5 6e-4c0.3 1e-5 0.6 0.1 0.8 0.3 0.4 0.4 0.4 1 0 2-0.4 0.4-1 0.4-2 0-0.4-0.4-0.4-1 0-2 0.2-0.2 0.5-0.3 0.8-0.3zm2 2c0.3 1e-5 0.6 0.1 0.8 0.3 0.4 0.4 0.4 1 0 2-0.4 0.4-1 0.4-2 0-0.4-0.4-0.4-1 0-2 0.2-0.2 0.5-0.3 0.8-0.3zm12 3a5 4 84 0 1 0.03 0.04 5 4 84 0 1 0.6 6l-0.9-0.9a4 3 84 0 0 0.05-0.1 4 3 84 0 0 0.1-0.3 4 3 84 0 0 0.09-0.4 4 3 84 0 0 0.06-0.4 4 3 84 0 0 0.03-0.4 4 3 84 0 0-8e-3 -0.4 4 3 84 0 0-0.04-0.4 4 3 84 0 0-0.07-0.4 4 3 84 0 0-0.1-0.4 4 3 84 0 0-0.1-0.3 4 3 84 0 0-0.2-0.3 4 3 84 0 0-0.2-0.3 4 3 84 0 0-0.2-0.2 4 3 84 0 0-0.03-0.04l0.3-0.3zm-15 2 0.8 0.8-4 4-0.8-0.8 2-2z" style="paint-order:fill markers stroke"/>
 </g>
</svg>
