<?xml version="1.0" encoding="UTF-8"?>
<svg width="128" height="128" version="1.1" viewBox="0 0 33.9 33.9" xmlns="http://www.w3.org/2000/svg">
 <g>
  <path transform="scale(.265)" d="m5.18 34.2v59.3h23.6v-15.3h29.5a37.8 37.8 0 0 1 1.54-3.18 37.8 37.8 0 0 1 1.97-3.22 37.8 37.8 0 0 1 2.29-3.01 37.8 37.8 0 0 1 2.57-2.76 37.8 37.8 0 0 1 2.84-2.49 37.8 37.8 0 0 1 3.07-2.2 37.8 37.8 0 0 1 3.27-1.88 37.8 37.8 0 0 1 3.45-1.54 37.8 37.8 0 0 1 3.58-1.19 37.8 37.8 0 0 1 3.68-0.826 37.8 37.8 0 0 1 3.75-0.455 37.8 37.8 0 0 1 2.67-0.0938 37.8 37.8 0 0 1 3.77 0.188 37.8 37.8 0 0 1 3.73 0.564 37.8 37.8 0 0 1 3.66 0.934 37.8 37.8 0 0 1 3.54 1.29 37.8 37.8 0 0 1 3.4 1.64 37.8 37.8 0 0 1 3.22 1.97 37.8 37.8 0 0 1 3 2.29 37.8 37.8 0 0 1 2.76 2.57 37.8 37.8 0 0 1 2.49 2.84 37.8 37.8 0 0 1 0.381 0.531v-36h-118z" style="paint-order:stroke fill markers"/>
  <path transform="scale(.265)" d="m55.9 85.3h-20.2v37h33.2a37.8 37.8 0 0 1-0.43-0.326 37.8 37.8 0 0 1-2.76-2.57 37.8 37.8 0 0 1-2.49-2.84 37.8 37.8 0 0 1-2.2-3.07 37.8 37.8 0 0 1-1.88-3.27 37.8 37.8 0 0 1-1.54-3.45 37.8 37.8 0 0 1-1.19-3.58 37.8 37.8 0 0 1-0.826-3.68 37.8 37.8 0 0 1-0.455-3.75 37.8 37.8 0 0 1-0.0957-2.67 37.8 37.8 0 0 1 0.189-3.77 37.8 37.8 0 0 1 0.564-3.73 37.8 37.8 0 0 1 0.0664-0.258z" style="paint-order:stroke fill markers"/>
  <rect x="9.45" y="1.71" width="15" height="6.09" style="paint-order:stroke fill markers"/>
  <path d="m21.3 16.7c-0.261 0.112-0.517 0.236-0.766 0.374 0 0 0.296 1.18 0.0908 1.72-0.315 0.823-1.05 1.55-1.87 1.87-0.535 0.206-1.72-0.0892-1.72-0.0892-0.267 0.501-0.484 1.03-0.647 1.57 0 0 1.05 0.626 1.28 1.15 0.359 0.807 0.358 1.84 3.52e-4 2.65-0.233 0.525-1.28 1.16-1.28 1.16 0.0823 0.27 0.178 0.537 0.287 0.799 0.112 0.261 0.237 0.518 0.374 0.767 0 0 1.18-0.296 1.72-0.0901 0.823 0.315 1.55 1.05 1.87 1.87 0.206 0.535-0.0848 1.72-0.0848 1.72 0.501 0.268 1.03 0.485 1.57 0.648 0 0 0.627-1.05 1.15-1.28 0.806-0.36 1.84-0.358 2.65-3.71e-4 0.525 0.233 1.16 1.28 1.16 1.28 0.271-0.0803 0.537-0.178 0.799-0.286 0.261-0.112 0.517-0.236 0.766-0.374 0 0-0.296-1.18-0.0908-1.72 0.315-0.823 1.05-1.55 1.87-1.87 0.535-0.206 1.72 0.0892 1.72 0.0892 0.267-0.501 0.484-1.03 0.647-1.57 0 0-1.05-0.626-1.28-1.15-0.359-0.807-0.358-1.84-3.44e-4 -2.65 0.233-0.525 1.28-1.16 1.28-1.16-0.0823-0.27-0.178-0.537-0.287-0.799-0.112-0.261-0.237-0.518-0.374-0.767 0 0-1.18 0.295-1.72 0.0901-0.823-0.315-1.55-1.05-1.87-1.87-0.206-0.535 0.0848-1.72 0.0848-1.72-0.501-0.268-1.03-0.485-1.57-0.648 0 0-0.627 1.05-1.15 1.28-0.806 0.36-1.84 0.358-2.65 3.58e-4 -0.525-0.233-1.16-1.28-1.16-1.28-0.271 0.0803-0.537 0.178-0.799 0.286zm1.64 3.94c0.132-0.0535 0.267-0.104 0.405-0.145 0.137-0.0446 0.276-0.0803 0.417-0.104 0.141-0.0268 0.283-0.0446 0.425-0.0625 0.143-0.0178 0.286-0.0178 0.43-0.0178 0.143 6.35e-4 0.287 0.0089 0.429 0.0268 0.143 0.0178 0.284 0.0357 0.425 0.0625 0.14 0.0268 0.279 0.0625 0.416 0.109 0.137 0.0446 0.271 0.0928 0.403 0.15 0.132 0.0535 0.261 0.12 0.386 0.189 0.125 0.0714 0.247 0.145 0.365 0.227 0.118 0.0803 0.232 0.17 0.341 0.262 0.109 0.0928 0.214 0.191 0.313 0.294 0.0994 0.104 0.193 0.211 0.282 0.325 0.0884 0.112 0.171 0.23 0.248 0.351 0.0769 0.121 0.148 0.246 0.212 0.374 0.0455 0.091 0.0877 0.183 0.127 0.277 0.0552 0.132 0.104 0.268 0.145 0.405 0.0417 0.137 0.0764 0.277 0.104 0.417 0.0277 0.141 0.0483 0.283 0.0617 0.426 0.0136 0.143 0.0202 0.286 0.0194 0.429-8.46e-4 0.144-0.0089 0.286-0.0241 0.429-0.0151 0.143-0.0373 0.285-0.0665 0.425-0.0293 0.14-0.0655 0.279-0.109 0.416-0.0432 0.137-0.0931 0.271-0.15 0.403-0.0566 0.132-0.12 0.261-0.189 0.386-0.0694 0.125-0.145 0.247-0.227 0.365-0.0817 0.118-0.169 0.231-0.262 0.341-0.093 0.109-0.191 0.213-0.295 0.313-0.103 0.099-0.212 0.194-0.324 0.282-0.113 0.0892-0.23 0.171-0.351 0.248-0.121 0.0803-0.246 0.147-0.374 0.212-0.0908 0.0446-0.183 0.0892-0.277 0.127-0.132 0.0535-0.267 0.104-0.405 0.145-0.137 0.0446-0.276 0.0803-0.417 0.104-0.141 0.0268-0.283 0.0446-0.425 0.0625-0.143 0.0178-0.286 0.0178-0.43 0.0178-0.143-0.0011-0.287-0.0088-0.429-0.0268-0.143-0.0178-0.284-0.0357-0.425-0.0625-0.14-0.0268-0.279-0.0625-0.416-0.109-0.137-0.0446-0.271-0.0928-0.403-0.15-0.132-0.0535-0.261-0.12-0.386-0.189-0.126-0.0714-0.247-0.145-0.365-0.227-0.118-0.0803-0.231-0.17-0.341-0.262-0.109-0.0928-0.214-0.191-0.313-0.294-0.0994-0.104-0.193-0.211-0.282-0.325-0.0884-0.112-0.171-0.23-0.248-0.351-0.0769-0.121-0.148-0.246-0.212-0.374-0.0455-0.091-0.0878-0.183-0.127-0.277-0.0552-0.132-0.104-0.268-0.145-0.404-0.0416-0.137-0.0764-0.277-0.104-0.417-0.0277-0.141-0.0482-0.283-0.0617-0.426-0.0136-0.143-0.0202-0.286-0.0194-0.429 8.73e-4 -0.144 0.0089-0.286 0.0241-0.429 0.0151-0.143 0.0373-0.285 0.0665-0.425 0.0293-0.14 0.0655-0.279 0.109-0.416 0.0432-0.137 0.0931-0.271 0.15-0.403 0.0566-0.132 0.12-0.261 0.189-0.386 0.0694-0.125 0.145-0.247 0.227-0.365 0.0817-0.118 0.169-0.232 0.262-0.341 0.093-0.109 0.191-0.213 0.295-0.313 0.103-0.099 0.212-0.194 0.324-0.282 0.113-0.0892 0.23-0.171 0.351-0.248 0.121-0.0803 0.246-0.147 0.374-0.212 0.0908-0.0446 0.183-0.0892 0.277-0.127z" stroke-width=".441"/>
 </g>
</svg>
