<?xml version="1.0" encoding="UTF-8"?>
<svg width="128" height="128" version="1.1" viewBox="0 0 34 34" xmlns="http://www.w3.org/2000/svg">
 <g transform="translate(0,-263)">
  <path d="m6.4 269-5.7 11a7.2 4 0 0 0 0.071 0.055 7.2 4 0 0 0 0.47 0.3 7.2 4 0 0 0 0.52 0.27 7.2 4 0 0 0 0.57 0.24 7.2 4 0 0 0 0.61 0.21 7.2 4 0 0 0 0.65 0.17 7.2 4 0 0 0 0.67 0.14 7.2 4 0 0 0 0.69 0.098 7.2 4 0 0 0 0.71 0.06 7.2 4 0 0 0 0.72 0.02 7.2 4 0 0 0 0.51-0.01 7.2 4 0 0 0 0.71-0.048 7.2 4 0 0 0 0.7-0.087 7.2 4 0 0 0 0.68-0.13 7.2 4 0 0 0 0.65-0.16 7.2 4 0 0 0 0.62-0.2 7.2 4 0 0 0 0.58-0.23 7.2 4 0 0 0 0.54-0.26 7.2 4 0 0 0 0.49-0.29 7.2 4 0 0 0 0.2-0.15l-3.1-6.1zm0 1.7 4.2 8.3a5.3 2.9 0 0 1-0.15 0.11 5.3 2.9 0 0 1-0.36 0.21 5.3 2.9 0 0 1-0.4 0.19 5.3 2.9 0 0 1-0.43 0.17 5.3 2.9 0 0 1-0.46 0.15 5.3 2.9 0 0 1-0.48 0.12 5.3 2.9 0 0 1-0.5 0.092 5.3 2.9 0 0 1-0.51 0.064 5.3 2.9 0 0 1-0.52 0.036 5.3 2.9 0 0 1-0.37 7e-3 5.3 2.9 0 0 1-0.53-0.014 5.3 2.9 0 0 1-0.52-0.044 5.3 2.9 0 0 1-0.51-0.072 5.3 2.9 0 0 1-0.49-0.1 5.3 2.9 0 0 1-0.47-0.13 5.3 2.9 0 0 1-0.45-0.15 5.3 2.9 0 0 1-0.42-0.18 5.3 2.9 0 0 1-0.39-0.2 5.3 2.9 0 0 1-0.35-0.22 5.3 2.9 0 0 1-0.052-0.041l2.3-4.5z" stroke="#000" stroke-linecap="round" stroke-width=".5" style="paint-order:fill markers stroke"/>
  <path d="m17 267a1.9 1.9 0 0 0-1.7 0.97h-8.9v1.8h8.9a1.9 1.9 0 0 0 0.73 0.73v17a3.5 3.5 0 0 0-2.6 3.2h-7v1.8h21v-1.8h-7.1a3.5 3.5 0 0 0-2.5-3.2v-17a1.9 1.9 0 0 0 0.73-0.73h8.9v-1.8h-8.9a1.9 1.9 0 0 0-1.7-0.97z" style="paint-order:fill markers stroke"/>
  <path d="m27.5 269-5.7 11a7.2 4 0 0 0 0.071 0.055 7.2 4 0 0 0 0.47 0.3 7.2 4 0 0 0 0.52 0.27 7.2 4 0 0 0 0.57 0.24 7.2 4 0 0 0 0.61 0.21 7.2 4 0 0 0 0.65 0.17 7.2 4 0 0 0 0.67 0.14 7.2 4 0 0 0 0.69 0.098 7.2 4 0 0 0 0.71 0.06 7.2 4 0 0 0 0.72 0.02 7.2 4 0 0 0 0.51-0.01 7.2 4 0 0 0 0.71-0.048 7.2 4 0 0 0 0.7-0.087 7.2 4 0 0 0 0.68-0.13 7.2 4 0 0 0 0.65-0.16 7.2 4 0 0 0 0.62-0.2 7.2 4 0 0 0 0.58-0.23 7.2 4 0 0 0 0.54-0.26 7.2 4 0 0 0 0.49-0.29 7.2 4 0 0 0 0.2-0.15l-3.1-6.1zm0 1.7 4.2 8.3a5.3 2.9 0 0 1-0.15 0.11 5.3 2.9 0 0 1-0.36 0.21 5.3 2.9 0 0 1-0.4 0.19 5.3 2.9 0 0 1-0.43 0.17 5.3 2.9 0 0 1-0.46 0.15 5.3 2.9 0 0 1-0.48 0.12 5.3 2.9 0 0 1-0.5 0.092 5.3 2.9 0 0 1-0.51 0.064 5.3 2.9 0 0 1-0.52 0.036 5.3 2.9 0 0 1-0.37 7e-3 5.3 2.9 0 0 1-0.53-0.014 5.3 2.9 0 0 1-0.52-0.044 5.3 2.9 0 0 1-0.51-0.072 5.3 2.9 0 0 1-0.49-0.1 5.3 2.9 0 0 1-0.47-0.13 5.3 2.9 0 0 1-0.45-0.15 5.3 2.9 0 0 1-0.42-0.18 5.3 2.9 0 0 1-0.39-0.2 5.3 2.9 0 0 1-0.35-0.22 5.3 2.9 0 0 1-0.052-0.041l2.3-4.5z" stroke="#000" stroke-linecap="round" stroke-width=".5" style="paint-order:fill markers stroke"/>
 </g>
</svg>
