<?xml version="1.0" encoding="UTF-8"?>
<svg width="128" height="128" version="1.1" viewBox="0 0 33.9 33.9" xmlns="http://www.w3.org/2000/svg">
 <g transform="matrix(1.06 0 0 1.06 -1.1 -281)">
  <path d="m11.2 266c-0.459 0.197-0.908 0.416-1.35 0.657 0 0 0.52 2.08 0.159 3.02-0.554 1.44-1.84 2.73-3.28 3.28-0.939 0.362-3.02-0.149-3.02-0.149-0.469 0.879-0.85 1.8-1.14 2.76 0 0 1.84 1.1 2.25 2.02 0.631 1.42 0.628 3.23 6.17e-4 4.65-0.408 0.922-2.24 2.03-2.24 2.03 0.144 0.476 0.312 0.944 0.503 1.4 0.196 0.459 0.416 0.908 0.657 1.35 0 0 2.08-0.519 3.02-0.159 1.44 0.554 2.73 1.84 3.28 3.28 0.362 0.939-0.149 3.02-0.149 3.02 0.879 0.469 1.8 0.85 2.76 1.14 0 0 1.1-1.84 2.02-2.25 1.42-0.631 3.23-0.628 4.65-5.5e-4 0.921 0.408 2.03 2.24 2.03 2.24 0.476-0.145 0.944-0.313 1.4-0.504 0.459-0.197 0.908-0.416 1.35-0.657 0 0-0.52-2.08-0.159-3.02 0.554-1.44 1.84-2.73 3.28-3.28 0.939-0.362 3.02 0.149 3.02 0.149 0.469-0.879 0.85-1.8 1.14-2.76 0 0-1.84-1.1-2.25-2.02-0.631-1.42-0.628-3.23-6.08e-4 -4.65 0.408-0.922 2.24-2.03 2.24-2.03-0.144-0.476-0.312-0.944-0.503-1.4-0.196-0.459-0.416-0.908-0.657-1.35 0 0-2.08 0.519-3.02 0.159-1.44-0.554-2.73-1.84-3.28-3.28-0.362-0.939 0.149-3.02 0.149-3.02-0.879-0.469-1.8-0.85-2.76-1.14 0 0-1.1 1.84-2.02 2.25-1.42 0.631-3.23 0.628-4.65 5.5e-4 -0.921-0.408-2.03-2.24-2.03-2.24-0.476 0.145-0.944 0.313-1.4 0.504zm2.88 6.92c0.232-0.0968 0.47-0.182 0.71-0.255 0.241-0.073 0.485-0.134 0.732-0.182 0.247-0.0484 0.496-0.0844 0.747-0.108 0.251-0.024 0.502-0.0354 0.754-0.0342 0.252 1e-3 0.503 0.0156 0.754 0.0422 0.25 0.0265 0.499 0.0654 0.745 0.117 0.246 0.0514 0.49 0.115 0.73 0.191 0.24 0.0758 0.476 0.163 0.708 0.263 0.231 0.0993 0.458 0.21 0.678 0.332 0.22 0.122 0.434 0.255 0.641 0.398 0.207 0.144 0.407 0.297 0.598 0.461 0.192 0.163 0.375 0.336 0.55 0.517 0.174 0.182 0.34 0.372 0.495 0.57 0.155 0.198 0.3 0.404 0.435 0.616 0.135 0.213 0.259 0.432 0.372 0.657 0.0799 0.159 0.154 0.322 0.222 0.486 0.0968 0.232 0.182 0.47 0.255 0.711 0.0731 0.241 0.134 0.485 0.183 0.732 0.0485 0.247 0.0847 0.496 0.108 0.747 0.024 0.251 0.0353 0.502 0.0341 0.754-0.0015 0.252-0.0156 0.503-0.0423 0.754-0.0265 0.25-0.0654 0.499-0.117 0.746-0.0514 0.246-0.115 0.49-0.191 0.73-0.0758 0.24-0.164 0.476-0.263 0.708-0.0993 0.231-0.21 0.458-0.332 0.678-0.122 0.22-0.255 0.434-0.398 0.641-0.144 0.207-0.297 0.407-0.461 0.598-0.163 0.192-0.336 0.375-0.517 0.55-0.182 0.174-0.372 0.34-0.57 0.495-0.198 0.155-0.404 0.3-0.616 0.435-0.213 0.135-0.432 0.259-0.657 0.372-0.159 0.0799-0.322 0.154-0.486 0.223-0.232 0.0969-0.47 0.182-0.71 0.255-0.241 0.073-0.485 0.134-0.732 0.182-0.247 0.0484-0.496 0.0844-0.747 0.108-0.251 0.0239-0.502 0.0353-0.754 0.034-0.252-2e-3 -0.503-0.0156-0.754-0.0423-0.25-0.0265-0.499-0.0654-0.745-0.117-0.246-0.0514-0.49-0.115-0.73-0.191-0.24-0.0758-0.476-0.164-0.708-0.263-0.231-0.0993-0.458-0.21-0.678-0.332-0.22-0.122-0.435-0.255-0.642-0.398-0.207-0.143-0.406-0.297-0.598-0.46-0.192-0.163-0.375-0.336-0.55-0.517-0.174-0.182-0.34-0.372-0.495-0.57-0.155-0.198-0.3-0.404-0.435-0.617-0.135-0.213-0.259-0.432-0.372-0.657-0.0799-0.159-0.154-0.322-0.223-0.486-0.0968-0.232-0.182-0.47-0.255-0.711-0.0731-0.241-0.134-0.485-0.183-0.732-0.0485-0.247-0.0847-0.496-0.108-0.747-0.0239-0.251-0.0353-0.502-0.0341-0.754 0.00152-0.252 0.0156-0.503 0.0423-0.754 0.0265-0.25 0.0654-0.499 0.117-0.746 0.0514-0.246 0.115-0.49 0.191-0.73 0.0758-0.24 0.164-0.476 0.263-0.708 0.0993-0.231 0.21-0.458 0.332-0.678 0.122-0.22 0.255-0.434 0.398-0.641 0.144-0.207 0.297-0.407 0.461-0.598 0.163-0.192 0.336-0.375 0.517-0.55 0.182-0.174 0.372-0.34 0.57-0.495 0.198-0.155 0.404-0.3 0.616-0.435 0.213-0.135 0.432-0.259 0.657-0.372 0.159-0.0799 0.322-0.154 0.486-0.223z" stroke-width=".774"/>
 </g>
</svg>
