<?xml version="1.0" encoding="UTF-8"?>
<svg width="128" height="128" version="1.1" viewBox="0 0 34 34" xmlns="http://www.w3.org/2000/svg">
 <g transform="translate(0 -263)">
  <rect x="2" y="271" width="29" height="18" fill="none" stroke="#000" stroke-linecap="square" stroke-linejoin="round" stroke-miterlimit="10" stroke-width="2" style="paint-order:stroke fill markers"/>
  <g>
   <path d="m34 207c-9 0.1-16 7-16 16l17-0.04z" display="none" style="paint-order:stroke fill markers"/>
   <path d="m39 207v40h7v-40z" display="none" style="paint-order:stroke fill markers"/>
   <path d="m52 207 0.1 16 17 9e-4c-0.6-9-8-16-17-16z" display="none" style="paint-order:stroke fill markers"/>
   <path d="m52 230 0.1 16c9-0.2 16-7 16-16z" display="none" style="paint-order:stroke fill markers"/>
   <path d="m35 229-17 0.02c0.3 9 8 16 17 16z" display="none" style="paint-order:stroke fill markers"/>
   <path d="m111 238-21 21h21z" display="none" style="paint-order:stroke fill markers"/>
   <path d="m11 274a3 3 0 0 0-0.2 8e-3 3 3 0 0 0-0.3 0.04 3 3 0 0 0-0.3 0.07 3 3 0 0 0-0.3 0.1 3 3 0 0 0-0.3 0.1 3 3 0 0 0-0.3 0.2 3 3 0 0 0-0.2 0.2 3 3 0 0 0-0.2 0.2 3 3 0 0 0-0.2 0.2 3 3 0 0 0-0.2 0.2 3 3 0 0 0-0.2 0.3 3 3 0 0 0-0.1 0.3 3 3 0 0 0-0.1 0.3 3 3 0 0 0-0.08 0.3 3 3 0 0 0-0.05 0.3 3 3 0 0 0-0.02 0.3 3 3 0 0 0 7e-3 0.2 3 3 0 0 0 0.04 0.3 3 3 0 0 0 0.07 0.3 3 3 0 0 0 0.1 0.3 3 3 0 0 0 0.1 0.3 3 3 0 0 0 0.2 0.3 3 3 0 0 0 0.2 0.2 3 3 0 0 0 0.2 0.2 3 3 0 0 0 0.2 0.2 3 3 0 0 0 0.2 0.2 3 3 0 0 0 0.3 0.2 3 3 0 0 0 0.3 0.1 3 3 0 0 0 0.3 0.1 3 3 0 0 0 0.3 0.08 3 3 0 0 0 0.3 0.05 3 3 0 0 0 0.3 0.02 3 3 0 0 0 0.2-8e-3 3 3 0 0 0 0.3-0.04 3 3 0 0 0 0.3-0.07 3 3 0 0 0 0.3-0.1 3 3 0 0 0 0.3-0.1 3 3 0 0 0 0.3-0.2 3 3 0 0 0 0.2-0.2 3 3 0 0 0 0.2-0.2 3 3 0 0 0 0.2-0.2 3 3 0 0 0 0.2-0.2 3 3 0 0 0 0.2-0.3 3 3 0 0 0 0.1-0.3 3 3 0 0 0 0.1-0.3 3 3 0 0 0 0.08-0.3 3 3 0 0 0 0.05-0.3 3 3 0 0 0 0.02-0.3 3 3 0 0 0-8e-3 -0.2 3 3 0 0 0-0.04-0.3 3 3 0 0 0-0.07-0.3 3 3 0 0 0-0.1-0.3 3 3 0 0 0-0.1-0.3 3 3 0 0 0-0.2-0.3 3 3 0 0 0-0.2-0.2 3 3 0 0 0-0.2-0.2 3 3 0 0 0-0.2-0.2 3 3 0 0 0-0.2-0.2 3 3 0 0 0-0.3-0.2 3 3 0 0 0-0.3-0.1 3 3 0 0 0-0.3-0.1 3 3 0 0 0-0.3-0.08 3 3 0 0 0-0.3-0.05 3 3 0 0 0-0.3-0.02zm-2 6c-0.4 0.08-0.7 0.2-1 0.3-0.4 0.1-0.7 0.3-1 0.5-0.3 0.2-0.6 0.4-0.9 0.6-0.3 0.2-0.5 0.5-0.7 0.7-0.1 0.2-0.2 0.4-0.3 0.6-0.09 0.2-0.2 0.4-0.2 0.7a8 8 0 0 0 0.1 0.1 8 8 0 0 0 0.5 0.6 8 8 0 0 0 0.6 0.5 8 8 0 0 0 0.6 0.5 8 8 0 0 0 0.7 0.4 8 8 0 0 0 0.7 0.3 8 8 0 0 0 0.7 0.3 8 8 0 0 0 0.8 0.2 8 8 0 0 0 0.8 0.1 8 8 0 0 0 0.8 0.04 8 8 0 0 0 0.8-0.04 8 8 0 0 0 0.8-0.1 8 8 0 0 0 0.8-0.2 8 8 0 0 0 0.7-0.3 8 8 0 0 0 0.7-0.3 8 8 0 0 0 0.7-0.4 8 8 0 0 0 0.6-0.5 8 8 0 0 0 0.6-0.5 8 8 0 0 0 0.5-0.6 8 8 0 0 0 0.1-0.1c-0.05-0.2-0.1-0.4-0.2-0.7-0.09-0.2-0.2-0.4-0.3-0.6-0.2-0.3-0.4-0.5-0.7-0.7-0.3-0.2-0.5-0.4-0.9-0.6-0.3-0.2-0.6-0.3-1-0.5-0.4-0.1-0.7-0.2-1-0.3a4 4 0 0 1-0.2 0.1 4 4 0 0 1-0.3 0.2 4 4 0 0 1-0.4 0.1 4 4 0 0 0-3e-4 0 4 4 0 0 1-0.4 0.1 4 4 0 0 1-0.4 0.06 4 4 0 0 1-0.4 0.02 4 4 0 0 1-0.4-0.02 4 4 0 0 1-0.4-0.06 4 4 0 0 1-0.4-0.1 4 4 0 0 1-0.4-0.1 4 4 0 0 1-2e-4 0 4 4 0 0 1-0.3-0.2 4 4 0 0 1-0.2-0.1z" stroke-width=".004"/>
  </g>
  <rect x="22" y="277" width="6" height="6" fill="none" stroke="#000" stroke-linecap="square" stroke-linejoin="round" stroke-miterlimit="10" stroke-width="2" style="paint-order:stroke fill markers"/>
 </g>
</svg>
