<?xml version="1.0" encoding="UTF-8"?>
<svg width="128" height="128" version="1.0" viewBox="0 0 128 128" xml:space="preserve" xmlns="http://www.w3.org/2000/svg">
<path d="m119 64-12-7v5h-64l12-13c1-0.8 2-1 4-1 6 0 9-2e-3 10-4e-3 0.9 2 3 4 6 4 3 0 6-3 6-6 0-3-3-6-6-6-3 0-5 2-6 4l-10-2e-3c-3 0-6 2-8 3 0.05-0.05 0.1-0.1-3e-3 9e-4 -0.04 0.04-13 14-13 14-1 0.8-2 1-4 1h-7c-1-5-5-8-10-8-6 0-10 5-10 10 0 6 5 10 10 10 5 0 9-4 10-8h7c0.02 0 0.04 9e-4 0.05 0h16c1 0.04 3 0.6 4 1 0 0 13 14 13 14 0.1 0.1 0.05 0.05 8e-4 9e-4 2 2 5 3 8 3l10-2e-3v4h12v-12h-12v4s-3-5e-3 -10-5e-3c-1-0.03-3-0.6-4-1l-12-13h48v5z" stroke="#000" stroke-width="5"/><g>
<ellipse cx="67" cy="82" rx="2" ry="2" style="paint-order:stroke fill markers"/><ellipse cx="66" cy="81" rx="2" ry="2" style="paint-order:stroke fill markers"/><ellipse cx="51" cy="46" rx="2" ry="2" style="paint-order:stroke fill markers"/><ellipse cx="50" cy="48" rx="2" ry="2" style="paint-order:stroke fill markers"/></g></svg>
