<?xml version="1.0" encoding="UTF-8"?>
<svg width="128" height="128" version="1.1" viewBox="0 0 34 34" xmlns="http://www.w3.org/2000/svg">
 <g transform="translate(0 -263)">
  <g transform="matrix(.03 0 0 .03 -2.5 290)">
   <path transform="matrix(8.7 0 0 8.7 83 -900)" d="m64 4.2a60 60 0 0 0-60 60 60 60 0 0 0 60 60 60 60 0 0 0 60-60 60 60 0 0 0-60-60zm0 24a21 21 0 0 1 2.1 0.11 21 21 0 0 1 2.1 0.32 21 21 0 0 1 2.1 0.53 21 21 0 0 1 2 0.73 21 21 0 0 1 1.9 0.93 21 21 0 0 1 1.8 1.1 21 21 0 0 1 1.7 1.3 21 21 0 0 1 1.6 1.5 21 21 0 0 1 1.4 1.6 21 21 0 0 1 1.2 1.7 21 21 0 0 1 1.1 1.9 21 21 0 0 1 0.88 2 21 21 0 0 1 0.68 2 21 21 0 0 1 0.47 2.1 21 21 0 0 1 0.26 2.1 21 21 0 0 1 0.053 1.5 21 21 0 0 1-0.11 2.1 21 21 0 0 1-0.32 2.1 21 21 0 0 1-0.53 2.1 21 21 0 0 1-0.73 2 21 21 0 0 1-0.93 1.9 21 21 0 0 1-1.1 1.8 21 21 0 0 1-1.3 1.7 21 21 0 0 1-1.5 1.6 21 21 0 0 1-1.6 1.4 21 21 0 0 1-1.7 1.2 21 21 0 0 1-1.9 1.1 21 21 0 0 1-2 0.88 21 21 0 0 1-2 0.68 21 21 0 0 1-2.1 0.47 21 21 0 0 1-2.1 0.26 21 21 0 0 1-1.5 0.053 21 21 0 0 1-2.1-0.11 21 21 0 0 1-2.1-0.32 21 21 0 0 1-2.1-0.53 21 21 0 0 1-2-0.73 21 21 0 0 1-1.9-0.93 21 21 0 0 1-1.8-1.1 21 21 0 0 1-1.7-1.3 21 21 0 0 1-1.6-1.5 21 21 0 0 1-1.4-1.6 21 21 0 0 1-1.2-1.7 21 21 0 0 1-1.1-1.9 21 21 0 0 1-0.88-2 21 21 0 0 1-0.68-2 21 21 0 0 1-0.47-2.1 21 21 0 0 1-0.26-2.1 21 21 0 0 1-0.053-1.5 21 21 0 0 1 0.11-2.1 21 21 0 0 1 0.32-2.1 21 21 0 0 1 0.53-2.1 21 21 0 0 1 0.73-2 21 21 0 0 1 0.93-1.9 21 21 0 0 1 1.1-1.8 21 21 0 0 1 1.3-1.7 21 21 0 0 1 1.5-1.6 21 21 0 0 1 1.6-1.4 21 21 0 0 1 1.7-1.2 21 21 0 0 1 1.9-1.1 21 21 0 0 1 2-0.88 21 21 0 0 1 2-0.68 21 21 0 0 1 2.1-0.47 21 21 0 0 1 2.1-0.26 21 21 0 0 1 1.5-0.053zm-14 44a27 27 0 0 0 1.2 0.71 27 27 0 0 0 2.4 1.2 27 27 0 0 1 2e-3 0 27 27 0 0 0 2.5 0.93 27 27 0 0 0 2.6 0.67 27 27 0 0 0 2.7 0.4 27 27 0 0 0 2.7 0.14 27 27 0 0 0 2.7-0.14 27 27 0 0 0 2.7-0.4 27 27 0 0 0 2.6-0.67 27 27 0 0 1 2e-3 0 27 27 0 0 0 2.5-0.93 27 27 0 0 0 2.4-1.2 27 27 0 0 0 1.2-0.71c2.7 0.59 5.3 1.4 7.8 2.3s4.8 2 7 3.2c2.2 1.2 4.2 2.6 6 4.2 1.8 1.6 3.4 3.3 4.7 5.1 0.93 1.3 1.7 2.7 2.3 4.2s1.1 3 1.4 4.6a55 55 0 0 1-0.73 1 55 55 0 0 1-3.6 4.1 55 55 0 0 1-4 3.7 55 55 0 0 1-4.3 3.3 55 55 0 0 1-4.6 2.8 55 55 0 0 1-4.9 2.4 55 55 0 0 1-5.1 1.9 55 55 0 0 1-5.3 1.3 55 55 0 0 1-5.4 0.81 55 55 0 0 1-5.4 0.27 55 55 0 0 1-5.4-0.27 55 55 0 0 1-5.4-0.81 55 55 0 0 1-5.3-1.3 55 55 0 0 1-5.1-1.9 55 55 0 0 1-4.9-2.4 55 55 0 0 1-4.6-2.8 55 55 0 0 1-4.3-3.3 55 55 0 0 1-4-3.7 55 55 0 0 1-3.6-4.1 55 55 0 0 1-0.73-1c0.34-1.6 0.81-3.2 1.4-4.6s1.4-2.9 2.3-4.2c1.3-1.9 2.9-3.6 4.7-5.1 1.8-1.6 3.8-3 6-4.2 2.2-1.2 4.5-2.3 7-3.2s5.1-1.7 7.8-2.3z" stroke-width=".03"/>
  </g>
 </g>
</svg>
